<svg  data-name="Layer 1" xmlns="http://www.w3.org/2000/svg" viewBox="0 0 144 144"><title>phone book</title><rect x="37.93" y="26.95" width="74.62" height="93.35" fill="#fff" stroke="#0f1f2d" stroke-miterlimit="10" stroke-width="3"/><circle cx="76.65" cy="73.41" r="9.01" fill="#fff" stroke="#0f1f2d" stroke-miterlimit="10" stroke-width="3"/><polygon points="94.17 96.82 94.17 110.54 59.13 110.54 59.13 96.82 68.92 89.41 84.39 89.41 94.17 96.82" fill="#fff" stroke="#0f1f2d" stroke-miterlimit="10" stroke-width="3"/><rect x="35.88" y="57.92" width="4.09" height="12.95" stroke-width="3" fill="#fff" stroke="#111f2d" stroke-linecap="round" stroke-miterlimit="10" transform="translate(-26.47 102.32) rotate(-90)"/><rect x="35.88" y="35.83" width="4.09" height="12.95" stroke-width="3" fill="#fff" stroke="#111f2d" stroke-linecap="round" stroke-miterlimit="10" transform="translate(-4.38 80.23) rotate(-90)"/><rect x="35.88" y="98.47" width="4.09" height="12.95" stroke-width="3" fill="#fff" stroke="#111f2d" stroke-linecap="round" stroke-miterlimit="10" transform="translate(-67.02 142.88) rotate(-90)"/><rect x="35.88" y="76.38" width="4.09" height="12.95" stroke-width="3" fill="#fff" stroke="#111f2d" stroke-linecap="round" stroke-miterlimit="10" transform="translate(-44.93 120.79) rotate(-90)"/><polygon points="102.27 54.28 89.72 54.28 85.89 45.91 67.07 45.91 63.32 54.28 51.04 54.28 51.04 43.82 64.28 37.97 88.68 37.97 102.27 45.56 102.27 54.28" fill="#fff" stroke="#111f2d" stroke-linecap="round" stroke-miterlimit="10" stroke-width="3"/></svg>
