<svg  data-name="Layer 1" xmlns="http://www.w3.org/2000/svg" viewBox="0 0 144 144"><title>cards</title><path d="M56.71,33.67h43.93a0,0,0,0,1,0,0v76.67a0,0,0,0,1,0,0H48.57a0,0,0,0,1,0,0V41.8a8.13,8.13,0,0,1,8.13-8.13Z" transform="matrix(0.97, 0.26, -0.26, 0.97, 21.12, -16.82)" fill="#fff" stroke="#0f1f2d" stroke-linecap="round" stroke-linejoin="round" stroke-width="3"/><path d="M101,45.94l-2.56,9.47-2.19-.59,2.09-7.71-1.9-.51.48-1.76Z" fill="#231f20"/><rect x="34.35" y="28.25" width="52.07" height="76.67" fill="#fff" stroke="#0f1f2d" stroke-linecap="round" stroke-linejoin="round" stroke-width="3"/><path d="M69.11,68l-4.33,4.61L60.37,77.2,56,72.58,51.65,68a5.49,5.49,0,1,1,8.73-6.26A5.49,5.49,0,1,1,69.11,68Z" fill="#0f1f2d"/><path d="M42.27,92.13h4.64L47.79,90h2.37l-4.45,10H43.42L39,90h2.42ZM43,93.89l1.58,3.82,1.58-3.82Z" fill="#0c1f2e"/><path d="M78.46,41.49H73.83l-.89,2.14H70.57l4.45-10h2.29l4.46,10H79.35Zm-.72-1.75-1.59-3.82-1.58,3.82Z" fill="#0c1f2e"/></svg>
