<svg xmlns="http://www.w3.org/2000/svg" width="32" height="32" viewBox="0 0 32 32" fill="none">
<path d="M21.159 19.5416C21.3736 19.7562 21.4942 20.0473 21.4942 20.3508C21.4942 20.6543 21.3736 20.9453 21.159 21.1599C20.9444 21.3746 20.6533 21.4951 20.3498 21.4951C20.0463 21.4951 19.7552 21.3746 19.5405 21.1599L13.4961 15.114L7.44974 21.158C7.23512 21.3726 6.94403 21.4932 6.64051 21.4932C6.33699 21.4932 6.04591 21.3726 5.83129 21.158C5.61667 20.9434 5.49609 20.6524 5.49609 20.3489C5.49609 20.0454 5.61667 19.7543 5.83129 19.5397L11.8776 13.4956L5.83319 7.4496C5.61857 7.23499 5.498 6.94392 5.498 6.64042C5.498 6.33692 5.61857 6.04585 5.83319 5.83124C6.04781 5.61663 6.3389 5.49607 6.64242 5.49607C6.94594 5.49607 7.23702 5.61663 7.45164 5.83124L13.4961 11.8772L19.5424 5.83029C19.7571 5.61568 20.0482 5.49512 20.3517 5.49512C20.6552 5.49512 20.9463 5.61568 21.1609 5.83029C21.3755 6.0449 21.4961 6.33597 21.4961 6.63947C21.4961 6.94297 21.3755 7.23404 21.1609 7.44865L15.1145 13.4956L21.159 19.5416Z" fill="white"/>
</svg>