<svg xmlns="http://www.w3.org/2000/svg" viewBox="0 0 720 720"><path d="M497.8 72.6L485 66.4l-15.3 31 12.8 6.3c2.5 1.2 5.1 1.8 7.9 1.8 6.7 0 12.7-3.7 15.6-9.5 4.2-8.6.5-19.1-8.2-23.4zm-3 6.1c2.6 1.3 4.6 3.5 5.5 6.2 1 2.7.8 5.6-.4 8.1-1.8 3.6-5.4 5.8-9.5 5.8-1.7 0-3.4-.4-4.9-1.1l-6.7-3.3 9.3-18.9 6.7 3.2zm29.8 16.7l14.3 9.4 3.7-5.7-18.3-12-1.7-1.1-17.8 27.3-1.1 1.7 18.7 12.3 1.7 1.1 3.7-5.7L513 113l4.2-6.3 12.7 8.3 3.7-5.6-12.7-8.4m39.6 38.3l12.9-15.3-5.2-4.3-12.9 15.3c-3.2 3.9-7.1 4.3-10.9 1.1-1.9-1.6-3-3.3-3.1-5.1-.1-1.8.7-3.7 2.3-5.8l11.6-13.8 1.3-1.5-5.2-4.3-12.9 15.3c-2.9 3.4-4.2 7-3.9 10.6.3 3.6 2.2 7 5.5 9.8 3 2.5 6.2 3.8 9.4 3.8 4.1 0 7.9-2 11.1-5.8zm33.4 9.5c-.5-2.8-2.3-6.2-4.5-8.5-2.8-3-6.2-4.7-9.4-4.7-2.2 0-4.2.8-5.7 2.2-5.4 5.2-2.4 11.3-.4 15.3 2.4 4.8 2.6 6.2 1 7.7-1.4 1.3-4.1.3-6.4-2.1-1.8-1.9-2.9-4.8-2.8-7.1l.2-3.1-6.8-.2-.1 2.9c-.2 4.2 1.7 8.9 4.6 12 3 3.2 6.4 4.9 9.7 4.9 2.3 0 4.5-.9 6.2-2.5 5.6-5.2 2.5-11.5.5-15.6-2.5-5-2.4-6.1-1.1-7.4 1.1-1 3.5-.1 5.6 2.1 1.4 1.4 2.5 3.5 2.8 5.1l.6 3 6.6-1.4-.6-2.6z" fill="#091F2F"/><g fill="#091F2F"><path d="M53 306.9c.8.2 1.6.3 2.3.3 5.7 0 8.4-4.7 10.5-8.6 1.8-3.2 3.1-5.2 5-5.2.3 0 .5 0 .8.1.9.2 1.4.8 1.8 1.8.4 1.2.4 2.9 0 4.7-.6 2.6-2.3 5.1-4.3 6.3l-2.6 1.6 3.6 5.7 2.5-1.6c3.5-2.2 6.4-6.4 7.4-10.6.8-3.4.6-6.6-.5-9.1-1.2-2.9-3.5-4.7-6.4-5.4-.9-.2-1.7-.3-2.5-.3-5.8 0-8.5 4.8-10.7 8.6-1.9 3.4-3.2 5.1-4.9 5.1-.2 0-.5 0-.7-.1-1.5-.3-2-2.7-1.3-5.8.4-2 1.5-4 2.6-5.2l2.2-2.1-4.8-4.7-2.1 2.1c-2 2-3.8 5.3-4.5 8.5-1.5 7.1 1.1 12.7 6.6 13.9zm34.2-31.7L54.1 265l-2 6.4 33.1 10.2m-12.3-19.4c2 .8 4.2 1.2 6.3 1.2 7.1 0 13.7-4.5 16.4-11.1 1.6-4 1.8-8.5.3-12.6l-1.1-3.1-6.1 2.9.9 2.5c.9 2.5.8 5.3-.2 7.8-1.7 4.1-5.8 6.9-10.1 6.9-1.3 0-2.6-.3-3.8-.8-2.6-1.1-4.6-3.1-5.7-5.8-1.1-2.7-1.1-5.7 0-8.4 1-2.6 2.9-4.6 5.3-5.8l2.5-1.2-2.6-6.2-2.8 1.4c-3.9 1.9-6.9 5.2-8.5 9.3-3.8 9.1.4 19.4 9.2 23zm25.3-31.9c4.9 0 9-2.7 11.8-7.7 2.1-3.8 2.7-7.6 1.6-11.1-1-3.4-3.6-6.4-7.5-8.5l-17.5-9.7-3.3 5.9 17.5 9.7c2.3 1.3 3.7 2.8 4.3 4.6.5 1.7.2 3.7-1.1 5.9-2.4 4.3-6.1 5.3-10.6 2.8L76 212.4l-3.3 5.9 17.5 9.7c2.7 1.6 5.4 2.3 8 2.3zm4-47.9l22.7 16.1 3.9-5.5-22.7-16.1 5.7-8-5.6-3.9L91 186.6l5.5 3.9m55.6-57.6c-2.4-2.4-5.3-3.6-8.3-3.6-3.5 0-7.1 1.7-10.2 4.9l-8.9 9 24.6 24.3 4.7-4.8-7-6.9 4.2-4.2c6-6.1 6.4-13.3.9-18.7zm-2.9 8.6c0 1.7-1 3.5-2.8 5.4l-4.2 4.2-8-7.9 4.2-4.2c3.2-3.3 6.4-3.8 9-1.2 1.2 1.1 1.8 2.4 1.8 3.7zm7.6-28.5l9.5 36.8 5.8-4.7-2.4-9.3 10.5-8.6 8.6 4.2 5.8-4.7-34.3-16.7-3.5 3zm16.8 11l-5.7 4.7-2.3-8.6 8 3.9zm24.7-32.5l-3.7-5.7-22 14.7 3.7 5.6 8.2-5.5 15.4 23.2 5.7-3.7-15.4-23.2m41.2-16.8c-2.2-4.2-5.9-6.6-10.3-6.6-2.4 0-5 .7-7.7 2.1l-11.3 5.9 15.9 30.7 6-3.1-4.5-8.7 5.3-2.7c.4-.2.7-.4 1-.6l11 5.4 7.4-3.8-13.1-6.5c2.3-3.7 2.4-8 .3-12.1zm-5.5 7.6c-.6 1.4-2 2.8-4.2 3.9l-5.3 2.7-5.2-10 5.3-2.7c4.1-2.1 7.2-1.7 8.9 1.6.9 1.7 1 3.2.5 4.5zm10.4-22.9l13.1 32.1 6.2-2.6-13-32m39.9 3.7c.8-2 .8-4.2.1-6.5-1.3-4.4-4.9-7-9.5-7-1.5 0-3 .2-4.6.7l-13.9 4.2 9.5 31.2.6 1.9 13.9-4.2c3.7-1.1 6.5-2.9 8.2-5.2 1.9-2.5 2.4-5.6 1.4-8.8-.9-2.9-2.9-5.2-5.7-6.3zm-19.4-4l7.4-2.2c1-.3 1.8-.4 2.6-.4 1.7 0 2.6.7 3.1 2.2.3 1 .2 1.8-.2 2.5-.6.8-1.8 1.6-3.5 2.1l-7.4 2.2-2-6.4zm13.6 18l-7.4 2.2-2.2-7.4 7.4-2.2c1.4-.4 2.6-.6 3.6-.6 2.7 0 3.4 1.3 3.7 2.4.2.9 1.1 3.7-5.1 5.6zm43.4-37.7l-6.7 1.1 3.3 19.7c.4 2.6.1 4.7-.9 6.2s-2.8 2.4-5.2 2.8c-4.9.8-7.9-1.4-8.8-6.5l-3.3-19.7-6.7 1.2 3.3 19.7c1.3 7.7 6.3 12.3 13.4 12.3 1 0 2.1-.1 3.1-.3 4.3-.7 7.7-2.7 9.7-5.6 2.1-3 2.7-6.7 2-11.2l-3.2-19.7zm24.4 12c-5.4-1.3-6.3-2.2-6.4-4 0-.5.1-.9.4-1.2.8-.9 2.6-1.5 4.7-1.6h.3c2.1 0 4.3.5 5.5 1.2l2.6 1.5 3.3-5.8-2.5-1.5c-2.3-1.3-5.5-2.1-8.5-2.1h-.9c-3.4.2-6.4 1.2-8.4 2.9-2.2 1.8-3.3 4.3-3.2 7 .4 7.5 7 9.1 11.4 10.2 5.2 1.3 6.4 2.1 6.5 4.3 0 .8-.3 1.5-1 2.1-1 .8-2.7 1.3-4.7 1.4h-.3c-2.7 0-5.4-1-7-2.5l-2.2-2.1-4.6 5 2.2 2c2.9 2.7 7.3 4.3 11.4 4.3h.7c3.7-.2 6.7-1.2 8.9-3 2.3-1.9 3.4-4.5 3.3-7.5-.3-7.8-7-9.5-11.5-10.6zm49.2-5.2c.5 0 1 0 1.5.1 2 .2 4.2 1.1 5.4 2.1l2.3 1.9 4.2-5.3-2.2-1.8c-2.2-1.8-5.7-3.3-8.9-3.6-.8-.1-1.6-.1-2.3-.1-6 0-10.3 3.1-10.8 8-.9 7.4 5.4 10.2 9.6 12 4.9 2.2 6 3.1 5.7 5.3-.3 2.3-3.4 2.6-4.7 2.6-.5 0-1 0-1.5-.1-2.6-.3-5.3-1.8-6.7-3.7l-1.8-2.4-5.3 4.2 1.8 2.3c2.6 3.3 7 5.8 11.3 6.3.8.1 1.6.1 2.4.1 6.3 0 10.8-3.3 11.4-8.5 1-7.6-5.4-10.4-9.6-12.2-5.1-2.2-5.8-3.2-5.6-5-.1-2 2.9-2.2 3.8-2.2zm17.6 30.7l6.6 1.4 6.9-33.9-6.7-1.4m12.6 9.3l9.5 2.8-7.6 26.8 6.5 1.8 7.6-26.8 9.5 2.7L458 56l-25.4-7.2"/><path d="M611.5 105.7C544 38.2 454.2 1 358.8 1S173.5 38.2 106 105.7 1.3 263 1.3 358.5 38.5 543.7 106 611.3C173.5 678.8 263.3 716 358.8 716S544 678.7 611.5 611.2s104.7-157.3 104.7-252.8c0-95.4-37.2-185.2-104.7-252.7zm-13.7 491.8c-63.8 63.8-148.7 99-239 99s-175.2-35.2-239-99-99-148.7-99-239c0-90.3 35.2-175.2 99-239 63.8-63.8 148.7-99 239-99s175.2 35.2 239 99c63.8 63.8 99 148.7 99 239s-35.2 175.1-99 239z"/><path d="M629 191.4l-18.2 11.9 9-23.6.5-1.4-3.1-4.8-27.3 17.9-1.6 1.1 3.7 5.6 18.1-11.9-9 23.7-.5 1.4 3.1 4.7 29-18.9m5.3 48.6c8.6-4.1 12.1-14.7 7.9-23.4-3-6.1-9.2-10.1-15.9-10.1-2.6 0-5 .6-7.3 1.7-4.1 2-7.3 5.6-8.8 10-1.5 4.4-1.2 9.2.9 13.4 3 6.1 9.2 10.1 15.9 10.1 2.5 0 5-.6 7.3-1.7zm-17.2-11.3c-2.6-5.4-.5-11.9 4.8-14.4 1.4-.7 2.9-1 4.4-1 4.1 0 8 2.5 9.8 6.3 2.6 5.4.5 11.9-4.7 14.4-1.4.7-2.9 1-4.4 1-4.2-.1-8-2.5-9.9-6.3zm22.7 47.7c3.1-1 5.2-3.1 6.2-5.8 2 .7 4.2.7 6.5 0 3-1 5.1-3 6.1-5.6.9-2.5.8-5.4-.3-8.7l-4.6-13.7-32.8 11 4.6 13.7c2.1 6.3 6 9.7 10.8 9.7 1.1 0 2.3-.2 3.5-.6zm9.6-25.4l2.5 7.3c.5 1.3.6 2.6.5 3.5-.2 1.1-.8 1.8-2 2.2-.4.1-.9.2-1.2.2-1.8 0-2.9-2.1-3.5-3.8l-2.5-7.3 6.2-2.1zm-17.5 14.1l-2.5-7.3 7.3-2.5 2.5 7.3c.9 2.8 1.5 6.4-1.5 7.4-.4.1-.8.2-1.2.2-2.5 0-4-3.2-4.6-5.1zm34.6 20.6l-1.6-6.6-31.7 7.6-1.9.5 1.5 6.6 30.8-7.4m7.2 21.6c-1-6.6-4.8-10.6-9.7-10.6-.5 0-.9 0-1.4.1-7.4 1.2-8.3 7.9-8.9 12.4-.7 5.3-1.4 6.6-3.5 6.9-1.9.3-3.5-1.9-4.1-5.4-.4-2.6.3-5.6 1.7-7.4l1.9-2.4-5.5-4-1.7 2.4c-2.5 3.4-3.7 8.3-3 12.5 1.1 6.8 5 11.1 10.3 11.1.5 0 1 0 1.5-.1 7.6-1.1 8.6-8 9.2-12.6.8-5.5 1.5-6.5 3.3-6.8 1.5-.3 2.9 1.8 3.4 4.9.3 2 .1 4.3-.6 5.8l-1.2 2.8 6.2 2.6 1.2-2.7c1-2.6 1.4-6.3.9-9.5zM45.8 369.1l4.6-4.9-1.7-2c-1.7-2-2.6-4.6-2.5-7.2.1-5.8 4.9-10.5 10.6-10.5 2.7 0 5.3 1.2 7.2 3.3 1.9 2.1 3 4.8 2.9 7.7-.1 2.7-1 5.2-2.8 7.1l-1.9 2.1 4.6 4.8L69 367c2.9-3.1 4.5-7.2 4.6-11.5.2-9.6-7.3-17.5-16.7-17.7h-.3c-9.2 0-16.9 7.6-17 17.1-.1 4.3 1.4 8.4 4.2 11.7l2 2.5zm28.5 12.1l-.4-6.7-31.9 2-2 .1.4 6.7 31.9-2m5.4 28.6l-23.5-6 20.9-12.3-1-7.3-31.7 18.8.7 4.8 35.6 9.3m1.1 3l-33.2 7.3 1.5 6.6 33.2-7.4m1.9 31.6l6.4-1.9-7.5-24.9-6.4 1.9 2.8 9.2-26.2 7.8 1.9 6.4 26.2-7.8m13.3 17.9l-37.3-1.8 2.8 6.9 9.4.4 4.9 12.3-6.5 6.8 2.8 6.9 25.7-27.3-1.8-4.2zm-9.3 6.2l-5.9 6.2-2.7-6.6 8.6.4zm21.2 34.9l6-3-11.8-23.2-6 3.1 4.4 8.6-24.3 12.4 3 6 24.3-12.5m13 9.6l-29 17.6 3.4 5.7 29.1-17.6m10.7 16c-2.7-3.7-6.2-5.9-9.7-5.9-1.7 0-3.3.5-4.7 1.5-6 4.3-3.8 10.7-2.4 14.9 1.8 5.3 1.6 6.4-.1 7.6-1.5 1.1-3.9-.2-5.9-2.9-1.5-2.1-2.2-5-1.8-7.2l.6-3-6.6-1.1-.5 2.9c-.7 4 .4 8.9 2.9 12.3 2.8 4 6.4 6.1 10 6.1 1.9 0 3.6-.6 5.2-1.7 6.2-4.4 4-10.8 2.5-15.1-1.7-5.1-1.6-6.3-.1-7.3.3-.2.6-.3.9-.3 1 0 2.6.8 4.2 3 1.1 1.6 2 3.7 2 5.3l.2 3 6.6-.5-.1-2.9c-.1-2.6-1.3-6.1-3.2-8.7z"/></g><path d="M577 546.4l16.6 33.5 4.7-5.8-4.2-8.4 8.4-10.3 9.1 2.3 4.7-5.8-36.3-9.2-3 3.7zm18.3 7.2l-4.5 5.5-3.8-7.7 8.3 2.2zm23.7-12.8c-1.7-1.2-4.4-.6-5.6 1-1.2 1.8-.8 4.3 1 5.5.7.5 1.5.7 2.3.7 1.3 0 2.6-.6 3.3-1.7.6-.9.8-1.9.6-3-.2-1-.8-1.9-1.6-2.5zm9.3-41.2c-2.5-1.5-5.4-2.2-8.3-2.2-6.2 0-11.9 3.4-15.1 8.8l-7 12.1 29.5 17 7-12.1c2.3-4 2.9-8.6 1.8-13.1-1.2-4.5-4-8.2-7.9-10.5zM607 515.8l3.6-6.3c1.9-3.3 5.5-5.4 9.2-5.4 1.8 0 3.5.5 5 1.3 4.9 2.8 6.5 9.3 3.6 14.4l-3.6 6.3-17.8-10.3zm40-19.1c-.4-1-1.1-1.8-2-2.2-1.9-.9-4.5.1-5.3 1.9-.4 1-.5 2-.1 3.1.4 1 1.1 1.8 2.1 2.3.5.3 1.1.4 1.7.4 1.6 0 3-.9 3.6-2.3.3-1.1.3-2.2 0-3.2zm-21.7-33.5l6.3 2.1 2-5.7 25.8 8.8 2.2-6.3-32.2-11m32.2-26.1c-3.5-1.1-7-.4-9.8 1.8-1.3-2.4-3.5-4.1-6.2-4.9-1.1-.3-2.1-.5-3.2-.5-5.2 0-9.4 4.1-11.2 10.8-1 3.9-1 7.4.1 10.3 1.2 3.2 3.6 5.5 6.9 6.5 2.7.8 5.4.6 7.7-.7 1.3 3.5 3.8 5.9 7.5 7.1 1.1.3 2.2.5 3.3.6h.3c5.9 0 10.4-4.4 12.4-12.2 1.3-5 1.1-9.4-.7-12.8-1.4-3-3.9-5-7.1-6zm-19.1 2.4l.1 1.5c.3 0 .7.1 1 .2 1.2.4 2 1.1 2.4 2.2.5 1.4.5 3.2-.1 5.4-1 3.9-3 5.9-5.5 5.1-3.5-1.1-2.7-5.7-2.2-7.6.9-3.3 2.5-5.3 4.3-5.3v-1.5zm20 14.3c-.6 2.5-2.2 6.6-5.7 6.6-.5 0-1-.1-1.5-.2-1.4-.4-2.3-1.3-2.7-2.7-.6-1.7-.5-4 .2-6.7 1.1-4.2 3.1-6.7 5.4-6.7v-1.5l.1 1.5c.4 0 .7.1 1.1.2 1.6.5 2.6 1.4 3.1 2.9.8 1.6.7 3.9 0 6.6zm4.7-31.5l-5.8-7.1c-3.1-4.1-6.8-6.7-10-7.2-5.7-.8-10 2.9-11 9.3-.6 3.7.5 7.8 2.9 11l1.8 2.3 5.4-4-1.8-2.4c-1.3-1.7-1.9-4-1.6-5.9.2-1.5.9-4.1 3.4-3.7 1.1.2 3.4 1.7 5.7 4.7l11 13.4 5.1.8 3.6-24-6.6-1-2.1 13.8zm4.2-43.8l-.8 13.8-6.5-6.5c-3.5-3.8-7.4-6.1-10.6-6.3-5.7-.4-9.8 3.8-10.2 10.3-.2 3.7 1.3 7.7 3.9 10.6l2 2.1 5-4.4-2-2.2c-1.5-1.6-2.3-3.8-2.2-5.7.2-2.7 1.1-4 2.8-4h.2c1.2.1 3.7 1.5 6.2 4.2l11.7 11.8.5.5 5.2.3 1.4-24.2-6.6-.3zm-542.3 68.8s-1 .7-2.5 1.1c-1.5.5-3.5.8-5.4.9-2 0-4-.3-5.4-.8-1.5-.5-2.5-1.1-2.5-1.1s1-.7 2.5-1.1c1.5-.5 3.5-.8 5.4-.8 2 0 4 .3 5.4.9 1.5.2 2.5.9 2.5.9zm31.2 0s-1.6.7-3.9 1.1c-2.4.5-5.5.8-8.7.9-3.1 0-6.3-.3-8.7-.8-2.4-.5-3.9-1.1-3.9-1.1s1.6-.7 3.9-1.1c2.4-.5 5.5-.8 8.7-.8 3.1 0 6.3.3 8.7.9 2.3.2 3.9.9 3.9.9zm45.2 0s-2.5.7-6.3 1.1c-3.8.5-8.8.8-13.8.9-5 0-10-.3-13.8-.8-3.8-.5-6.3-1.1-6.3-1.1s2.5-.7 6.3-1.1c3.8-.5 8.8-.8 13.8-.8s10 .3 13.8.9c3.8.2 6.3.9 6.3.9zm86.7 0s-1.3.2-3.5.4c-2.3.2-5.5.5-9.3.8-7.7.5-18 .8-28.4.9-10.3 0-20.6-.3-28.4-.8-3.9-.2-7.1-.6-9.3-.8-2.3-.2-3.5-.4-3.5-.4s1.3-.2 3.5-.4c2.3-.2 5.5-.5 9.3-.8 7.7-.5 18-.8 28.4-.8 10.3 0 20.6.3 28.4.9 3.9.2 7.1.6 9.3.8 2.2 0 3.5.2 3.5.2zm57.8 0s-1.8.7-4.4 1.1c-2.7.5-6.2.8-9.8.9-3.6 0-7.1-.3-9.8-.8-2.7-.5-4.4-1.1-4.4-1.1s1.8-.7 4.4-1.1c2.7-.5 6.2-.8 9.8-.8 3.6 0 7.1.3 9.8.9 2.6.2 4.4.9 4.4.9zm40.1 0s-2.1.7-5.2 1.1c-3.1.5-7.2.8-11.4.9-4.1 0-8.3-.3-11.4-.8-3.1-.5-5.2-1.1-5.2-1.1s2.1-.7 5.2-1.1c3.1-.5 7.2-.8 11.4-.8 4.1 0 8.3.3 11.4.9 3.1.2 5.2.9 5.2.9zm30.3 0s-.9.7-2.3 1.1c-1.4.5-3.2.8-5 .9-1.8 0-3.6-.3-5-.8s-2.3-1.1-2.3-1.1.9-.7 2.3-1.1c1.4-.5 3.2-.8 5-.8 1.8 0 3.6.3 5 .9 1.4.2 2.3.9 2.3.9zm20 0s-1 .7-2.5 1.1c-1.5.5-3.6.8-5.6.9-2 0-4.1-.3-5.6-.8s-2.5-1.1-2.5-1.1 1-.7 2.5-1.1c1.5-.5 3.6-.8 5.6-.8 2 0 4.1.3 5.6.9 1.5.2 2.5.9 2.5.9zm90 0l-2.2.3-1.1.1h-.5c.2-.1 0 .1-.2.3l-.2.2-.2-.2c-.3-.2-.5-.3-.3-.2l-.6.1-1.2.1-2.4.2c-1.6.2-3.2.2-4.8.3-3.2.2-6.4.3-9.6.5-6.4.2-12.8.3-19.1.3-12.8-.1-25.5-.5-38.3-2 12.8-1.5 25.5-1.9 38.3-2 6.4 0 12.8.1 19.1.3 3.2.2 6.4.2 9.6.5l4.8.3 2.4.2 1.2.1.6.1c.6.1.7.5.7.4h-.4s.1-.2.6-.3h.6l1.1.1 2.1.3zm59.5 0s-.5.7-1.2 1.1c-.7.5-1.7.8-2.7.9-1 0-1.9-.3-2.7-.8-.7-.5-1.2-1.1-1.2-1.1s.5-.7 1.2-1.1c.7-.5 1.7-.8 2.7-.8 1 0 1.9.3 2.7.9.7.2 1.2.9 1.2.9z" fill="#091F2F"/><path fill="#091F2F" d="M409.8 435.5s-.8.6-2 1.1c-1.2.5-2.9.8-4.5.7-1.6-.1-3.2-.4-4.4-1-1.2-.5-2-1.2-2-1.2s.8-.7 2.1-1.1c1.2-.5 2.9-.8 4.5-.7 1.6.1 3.2.4 4.4 1 1.1.5 1.9 1.2 1.9 1.2zm-99.4-.3s-.7.7-1.8 1.1c-1.1.5-2.5.8-3.9.9-1.4 0-2.9-.3-3.9-.8-1.1-.5-1.8-1.1-1.8-1.1s.7-.7 1.8-1.1c1.1-.5 2.5-.8 3.9-.8s2.9.3 3.9.9c1.1.2 1.8.9 1.8.9zm265.2 0s-2.2.7-5.6 1.1c-3.4.5-7.9.8-12.3.9-4.5 0-9-.3-12.3-.8-3.4-.5-5.6-1.1-5.6-1.1s2.2-.7 5.6-1.1c3.4-.5 7.9-.8 12.3-.8 4.5 0 9 .3 12.3.9 3.4.2 5.6.9 5.6.9zm-183.1 20.5s-1 .7-2.5 1.1c-1.5.5-3.6.8-5.6.9-2 0-4.1-.3-5.6-.8s-2.5-1.1-2.5-1.1 1-.7 2.5-1.1c1.5-.5 3.6-.8 5.6-.8 2 0 4.1.3 5.6.9 1.5.3 2.5.9 2.5.9zm-47.7 0s-1.5.7-3.8 1.1c-2.3.5-5.3.8-8.3.9-3 0-6-.3-8.3-.8-2.3-.5-3.8-1.1-3.8-1.1s1.5-.7 3.8-1.1c2.3-.5 5.3-.8 8.3-.8 3 0 6 .3 8.3.9 2.3.3 3.8.9 3.8.9zm-178 0s-1.2.7-3 1.1c-1.8.5-4.2.8-6.6.9-2.4 0-4.8-.3-6.6-.8-1.8-.5-3-1.1-3-1.1s1.2-.7 3-1.1c1.8-.5 4.2-.8 6.6-.8 2.4 0 4.8.3 6.6.9 1.8.3 3 .9 3 .9zm380.5 0s-1.1.7-2.8 1.1c-1.7.5-3.9.8-6.1.9-2.2 0-4.5-.3-6.1-.8-1.7-.5-2.8-1.1-2.8-1.1s1.1-.7 2.8-1.1c1.7-.5 3.9-.8 6.1-.8 2.2 0 4.5.3 6.1.9 1.7.3 2.8.9 2.8.9zm28.7 0s-1.4.7-3.4 1.1c-2 .5-4.8.8-7.5.9-2.7 0-5.5-.3-7.5-.8s-3.4-1.1-3.4-1.1 1.4-.7 3.4-1.1c2-.5 4.8-.8 7.5-.8s5.5.3 7.5.9c2 .3 3.4.9 3.4.9z"/><path fill="#091F2F" d="M151 455.7s-.6.7-1.5 1.1c-.9.5-2.1.8-3.4.9-1.2 0-2.4-.3-3.4-.8-.9-.5-1.5-1.1-1.5-1.1s.6-.7 1.5-1.1c.9-.5 2.1-.8 3.4-.8 1.2 0 2.4.3 3.4.9.9.3 1.5.9 1.5.9zm33.5 0s-1.1.7-2.8 1.1c-1.7.5-3.9.8-6.1.9-2.2 0-4.4-.3-6.1-.8-1.7-.5-2.8-1.1-2.8-1.1s1.1-.7 2.8-1.1c1.7-.5 3.9-.8 6.1-.8 2.2 0 4.4.3 6.1.9 1.7.3 2.8.9 2.8.9zm97.5 0c-5.4.5-10.8 1-16.2 1.2-5.4.3-10.8.5-16.2.6-5.4.1-10.8.1-16.2.2l-8.1-.1-4-.1h-3.6s-.3.1.5-.1c.6-.3.5-.4.5-.3-.1 0-.2.3-.9.5l-.5.2-.4-.2c-1.1-.5-1-.7-.7-.4.1.1.4.2.7.3h.1-1.4l-1.8-.1-3.5-.1-7.1-.4c-4.7-.3-9.4-.6-14.1-1.1 4.7-.5 9.4-.8 14.1-1.1l7.1-.4 3.5-.1 1.8-.1h1.7c.4 0 .6.2.8.3.5.5.6.3-.3-.1h-.9c-.6.2-.7.4-.7.4s.1-.2.7-.5c.9-.2.6-.1.7-.1h3.6l4-.1 8.1-.1c5.4 0 10.8 0 16.2.2 5.4.1 10.8.3 16.2.6 5.5.1 10.9.5 16.3 1zm30.2 0s-1.7.7-4.2 1.1c-2.5.5-5.8.8-9.1.9-3.3 0-6.6-.3-9.1-.8s-4.2-1.1-4.2-1.1 1.7-.7 4.2-1.1c2.5-.5 5.8-.8 9.1-.8s6.6.3 9.1.9c2.6.3 4.2.9 4.2.9zm52.7 0s-2 .7-5.1 1.1c-3.1.5-7.1.8-11.2.9-4.1 0-8.2-.3-11.2-.8-3.1-.5-5.1-1.1-5.1-1.1s2-.7 5.1-1.1c3.1-.5 7.1-.8 11.2-.8s8.2.3 11.2.9c3.1.3 5.1.9 5.1.9zm70.9 0s-3.1.7-7.6 1.1c-4.6.5-10.7.8-16.8.9-6.1 0-12.2-.3-16.8-.8-4.6-.5-7.6-1.1-7.6-1.1s3.1-.7 7.6-1.1c4.6-.5 10.7-.8 16.8-.8 6.1 0 12.2.3 16.8.9 4.5.3 7.6.9 7.6.9zm58.7 0s-3.4.7-8.6 1.1c-5.2.5-12 .8-18.9.9-6.9 0-13.7-.3-18.9-.8-5.2-.5-8.6-1.1-8.6-1.1s3.4-.7 8.6-1.1c5.2-.5 12-.8 18.9-.8 6.9 0 13.7.3 18.9.9 5.2.3 8.6.9 8.6.9zm31.2 0s-1.7.7-4.4 1.1c-2.6.5-6.1.8-9.6.9-3.5 0-7-.3-9.6-.8-2.6-.5-4.4-1.1-4.4-1.1s1.7-.7 4.4-1.1c2.6-.5 6.1-.8 9.6-.8s7 .3 9.6.9c2.7.3 4.4.9 4.4.9zm21.9 0s-.5.7-1.2 1.1c-.7.5-1.6.8-2.6.9-.9 0-1.9-.3-2.6-.8-.7-.5-1.2-1.1-1.2-1.1s.5-.7 1.2-1.1c.7-.5 1.6-.8 2.6-.8.9 0 1.9.3 2.6.9.8.3 1.2.9 1.2.9zm-404.1-39.5s-1.4.7-3.6 1.1c-2.2.5-5 .8-7.9.9-2.9 0-5.8-.3-7.9-.8-2.2-.5-3.6-1.1-3.6-1.1s1.4-.7 3.6-1.1c2.2-.5 5-.8 7.9-.8 2.9 0 5.8.3 7.9.9 2.2.2 3.6.9 3.6.9zm438.5 0s-.6.7-1.6 1.1c-1 .5-2.2.8-3.5.9-1.3 0-2.6-.3-3.5-.8-1-.5-1.6-1.1-1.6-1.1s.6-.7 1.6-1.1c1-.5 2.2-.8 3.5-.8 1.3 0 2.6.3 3.5.9.9.2 1.6.9 1.6.9zm21.7 0s-.9.7-2.2 1.1c-1.3.5-3.1.8-4.9.9-1.8 0-3.6-.3-4.9-.8-1.3-.5-2.2-1.1-2.2-1.1s.9-.7 2.2-1.1c1.3-.5 3.1-.8 4.9-.8 1.8 0 3.6.3 4.9.9 1.3.2 2.2.9 2.2.9zm-487.7 0s-.7.7-1.8 1.1c-1.1.5-2.6.8-4.1.9-1.5 0-2.9-.3-4.1-.8-1.1-.5-1.8-1.1-1.8-1.1s.7-.7 1.8-1.1c1.1-.5 2.6-.8 4.1-.8 1.5 0 2.9.3 4.1.9 1.1.2 1.8.9 1.8.9z"/><path fill="#091F2F" d="M156.4 416.2s-1.3.7-3.3 1.1c-2 .5-4.7.8-7.3.9-2.7 0-5.3-.3-7.3-.8s-3.3-1.1-3.3-1.1 1.3-.7 3.3-1.1c2-.5 4.7-.8 7.3-.8 2.7 0 5.3.3 7.3.9 2 .2 3.3.9 3.3.9zm153.8 0c-4.8.3-9.5.5-14.3.8-4.8.3-9.5.4-14.3.5l-14.3.4-14.3.1-14.3.1c-4.8.1-9.5-.1-14.3-.1l-14.3-.1-7.1-.1-3.6-.1-1.8-.1h-1.4.2c.2 0 .3-.1.3-.1.1-.1.2-.1.3-.2.1-.2.1.1-.7.4l-.4.1-.3-.1c-.9-.4-.9-.6-.5-.3.1.1.3.1.6.1H194l-2.1-.1-4.3-.1c-2.8-.1-5.7-.1-8.5-.3-5.7-.3-11.3-.5-17-.9 5.7-.4 11.3-.6 17-.9 2.8-.2 5.7-.2 8.5-.3l4.3-.1 2.1-.1h1.8c.3 0 .5.1.7.2.5.4.6.3-.1 0h-.7c-.7.2-.6.4-.4.1.1-.1.2-.1.4-.2.1 0 .2-.1.4-.1h1.7l1.8-.1 3.6-.1 7.1-.1 14.3-.1c4.8 0 9.5-.2 14.3-.1l14.3.1 14.3.1 14.3.4c4.8.1 9.5.2 14.3.5 4.6.4 9.3.6 14.1.9zm63.4 0s-3.3.7-8.3 1.1c-5 .5-11.6.8-18.3.9-6.7 0-13.3-.3-18.3-.8s-8.3-1.1-8.3-1.1 3.3-.7 8.3-1.1c5-.5 11.6-.8 18.3-.8 6.7 0 13.3.3 18.3.9 5 .2 8.3.9 8.3.9zm85.3 0s-1.1.2-3.1.4-4.8.5-8.1.8c-6.7.5-15.7.8-24.6.9-9 0-17.9-.3-24.6-.8-3.4-.2-6.2-.6-8.1-.8-2-.2-3.1-.4-3.1-.4s1.1-.2 3.1-.4 4.8-.5 8.1-.8c6.7-.5 15.7-.8 24.6-.8 9 0 17.9.3 24.6.9 3.4.2 6.2.6 8.1.8 2 0 3.1.2 3.1.2zm70.7 0s-1 .2-2.8.4c-1.8.2-4.4.5-7.5.8-6.2.5-14.5.8-22.8.9-8.3 0-16.6-.3-22.8-.8-3.1-.2-5.7-.6-7.5-.8-1.8-.2-2.8-.4-2.8-.4s1-.2 2.8-.4c1.8-.2 4.4-.5 7.5-.8 6.2-.5 14.5-.8 22.8-.8s16.6.3 22.8.9c3.1.2 5.7.6 7.5.8 1.8 0 2.8.2 2.8.2zm37.6 0s-2.1.7-5.3 1.1c-3.2.5-7.4.8-11.6.9-4.2 0-8.4-.3-11.6-.8-3.2-.5-5.3-1.1-5.3-1.1s2.1-.7 5.3-1.1c3.2-.5 7.4-.8 11.6-.8 4.2 0 8.4.3 11.6.9 3.2.2 5.3.9 5.3.9zm26.4 0s-.6.7-1.4 1.1c-.8.5-2 .8-3.1.9-1.1 0-2.2-.3-3.1-.8-.8-.5-1.4-1.1-1.4-1.1s.6-.7 1.4-1.1c.8-.5 2-.8 3.1-.8s2.2.3 3.1.9c.8.2 1.4.9 1.4.9zM222.9 552c2.4 0 4.6.8 6.3 2.3l2.1 1.9 4.8-4.8-2.4-2.1c-3-2.6-6.8-4.1-10.8-4.1-8.9 0-16.2 7.1-16.2 15.8 0 8.7 7.3 15.9 16.2 15.9 4 0 7.8-1.5 10.8-4.1l2.5-2.2-5-4.6-2.1 1.8c-1.7 1.5-4 2.4-6.3 2.4-5.2 0-9.4-4.1-9.4-9.1.1-5.1 4.3-9.1 9.5-9.1zm33.1-6.8c-8.9 0-16.2 7.1-16.2 15.8 0 8.7 7.3 15.9 16.2 15.9 8.9 0 16.2-7.1 16.2-15.9 0-8.7-7.3-15.8-16.2-15.8zm0 6.8c5.2 0 9.4 4.1 9.4 9 0 5-4.2 9.1-9.4 9.1s-9.4-4.1-9.4-9.1c0-4.9 4.2-9 9.4-9zm28.9 6.3l12.8 17.7.7.9h5.7v-31.7h-6.8v18.6l-13.5-18.6h-5.7v31.7h6.8m41.9-31.7h-13.1v31.7h13.1c8.9 0 16.2-7.1 16.2-15.8-.1-8.8-7.3-15.9-16.2-15.9zm0 24.9h-6.3V552h6.3c5.2 0 9.4 4.1 9.4 9.1-.1 5-4.3 9-9.4 9zm24.3-24.9h6.8v31.7h-6.8zm28.9 31.7V552h8.8v-6.8h-24.3v6.8h8.8v24.9m13.5 0h7.5l3.6-7.8h11.7l3.6 7.8h7.5l-14.1-30.4-.6-1.3h-4.7l-14.5 31.7zm14.1-14.6l2.7-6 2.8 6h-5.5zm67.5 14.6h7.5l-14.1-30.4-.6-1.3h-4.7L442 576.9h7.5l3.6-7.8h11.7l3.6 7.8zm-12.2-14.6l2.7-6 2.8 6h-5.5zm55.4-1.2c0-8.7-7.2-15.9-16.2-15.9h-13.1v31.7h13.1c9 0 16.2-7.1 16.2-15.8zm-22.5-9.1h6.3c5.2 0 9.4 4.1 9.4 9.1s-4.2 9-9.4 9h-6.3V552zm-178.7 79v-35.1h-13v6.2h6.3V631m71-21l7.5-9.4.3-.4v-4.3h-23v6.1h13.7l-7.2 9-.3.4v4.3h5.5c6.1 0 6.1 3.2 6.1 4.2 0 3.1-2.3 5-6 5-2.1 0-4.4-.7-6.1-1.8l-2.1-1.4-3.7 4.9 2.3 1.5c2.7 1.8 6.2 2.8 9.5 2.8 7.1 0 12.1-4.6 12.1-11.2.1-5.1-3.2-8.7-8.6-9.7zm31.8-15.2c-9 0-14.4 6.6-14.4 17.5 0 11 5.4 17.6 14.4 17.6 9.1 0 14.5-6.6 14.5-17.6 0-11-5.4-17.5-14.5-17.5zm8.3 17.5c0 5.2-1.4 11.4-8.3 11.4-6.8 0-8.2-6.2-8.2-11.4 0-7.5 2.8-11.3 8.2-11.3 6.8 0 8.3 6.2 8.3 11.3zm-191.5-98c0-4.6-2-8.4-5.5-10.7 2.2-2.2 3.4-5.3 3.4-8.9 0-8-5.9-13-15.4-13h-19.3v46.5h19.3c10.9 0 17.5-5.2 17.5-13.9zm-17.6-13.7h-12.1v-11.7h12.1c5.4 0 8.2 2 8.2 5.8 0 3.9-2.7 5.9-8.2 5.9zm-12 7.1h12.1c4.7 0 10.4 1.1 10.4 6.5 0 5.5-5.6 6.7-10.4 6.7h-12.1v-13.2zm60.2 20.5c13.1 0 23.8-10.5 23.8-23.3s-10.7-23.2-23.8-23.2c-13.1 0-23.8 10.4-23.8 23.2 0 12.8 10.7 23.3 23.8 23.3zm0-39.4c9.2 0 16.6 7.2 16.6 16 0 8.9-7.5 16.1-16.6 16.1-9.2 0-16.6-7.2-16.6-16.1 0-8.8 7.4-16 16.6-16zm45.7 32.2c-4.1 0-8.3-1.7-10.8-4.4l-2.1-2.3-5.1 5.1 2.1 2.1c3.9 4 10.2 6.6 16 6.6 10 0 16.8-5.2 16.8-12.9.1-10-8.5-12.6-14.7-14.5-6.1-1.8-9.5-3.1-9.5-7.2 0-2.9 3.4-4.8 8.7-4.8 3 0 6.5.9 8.6 2.2l2.6 1.7 3.8-6.1-2.5-1.6c-3.2-2.1-8.1-3.4-12.4-3.4-9.7 0-15.9 4.7-15.9 12 0 9.7 8.4 12.2 14.5 14.1 6.4 1.9 9.7 3.1 9.7 7.6-.3 3.5-4 5.8-9.8 5.8zm35.6 7.2h7.2v-39.4h13.9v-7.2h-35.1v7.2h14m45.4 39.4c13.1 0 23.8-10.5 23.8-23.3s-10.7-23.2-23.8-23.2c-13.1 0-23.8 10.4-23.8 23.2 0 12.8 10.6 23.3 23.8 23.3zm0-39.4c9.2 0 16.6 7.2 16.6 16 0 8.9-7.5 16.1-16.6 16.1-9.2 0-16.6-7.2-16.6-16.1 0-8.8 7.4-16 16.6-16zm41.1 6.3l23.3 32.1.7 1h6.3v-46.6h-7.2v33.1l-23.3-32.1-.7-1h-6.3v46.6h7.2m46.7-46.6h7.2v46.5h-7.2zm30 35.1h21.5l5.3 11.4h8l-21-45.2-.6-1.3h-5.2l-19.8 43.3-1.5 3.2h8l5.3-11.4zm3.3-7.3l7.3-16.1 7.4 16.1h-14.7zm-342.1 58l-8.8-8.8-22.6 22.7-1.4 1.4 4.7 4.7 6.8-6.8 4.1 4.1c.3.3.6.5.9.8l-1.8 11.9 5.9 5.8 2.2-14.1c4 1 8.1-.2 11.3-3.4 5.1-5.4 4.7-12.4-1.3-18.3zm-4.7 4.7c4.9 4.9 2.1 7.8 1.2 8.7-2.6 2.6-5.7 2.2-8.9-1l-4.1-4.1 7.7-7.8 4.1 4.2zm21.1 19.1l13.1 10.5 4.2-5.3-18.4-14.6-21.2 26.6 18.8 15 4.2-5.3-13.6-10.8 4.6-5.7 11.7 9.3 4.2-5.3-11.7-9.3m36.5 26.9l-6 9.6c-2.1 0-4.2-.6-6-1.7-2.4-1.5-4.1-3.9-4.8-6.6-.7-2.7-.2-5.5 1.2-7.8 1.9-3 5.1-4.7 8.8-4.7 2 0 4 .6 5.8 1.7 2.3 1.4 4 3.6 4.7 6l.8 2.6 6.5-1.5-.9-3c-1.2-4.1-3.9-7.6-7.5-9.8-2.8-1.8-6-2.7-9.3-2.7-6 0-11.3 2.9-14.4 7.9-2.4 3.9-3.1 8.4-2.1 12.9 1.1 4.5 3.8 8.3 7.8 10.7 2.8 1.7 6 2.7 9.4 2.7 1 0 1.9-.1 2.8-.2l1.3-.2 7.6-12.2-5.7-3.7zm20.8-4.8l-15.3 30.3 6 3.1 15.3-30.4m32.4 13.7l-16.4 14.8-2.3-22-5.7-2.2-12.2 31.7 6.2 2.4 6.5-16.8 1.6 14.9.4 1.8 3.2 1.3 12.5-11.2-6.5 16.8 6.3 2.4 12.2-31.7m.4 33.1l-.6 1.9 6.5 1.7 8.9-32.8-6.5-1.7m32.4 28.6L303 644.6l-5.6-.9-5.8 33.5 6.6 1.1 3.6-20.9 11.6 23.5 5.6.9 5.7-33.5-6.6-1.1m13.6 35.9l24 1.2.4-6.7-17.3-.9.3-7.3 14.9.7.4-6.7-14.9-.7.3-6.6 16.8.9.3-6.7-23.4-1.2m63.6-1.5c-.8 0-1.5.1-2.3.2l-13.9 1.8 4.3 33.7 13.9-1.8c4.6-.6 8.6-2.9 11.5-6.5 2.9-3.6 4.1-8.1 3.5-12.6-1-8.4-8.4-14.8-17-14.8zm-6.1 28.2l-2.6-20.4 7.2-.9c.5-.1.9-.1 1.4-.1 5.3 0 9.8 3.9 10.5 9 .7 5.6-3.4 10.8-9.2 11.6l-7.3.8zm44.6-35.8c-1.5 0-3.1.2-4.5.6-9.3 2.5-14.8 11.8-12.4 20.9 2 7.4 8.8 12.6 16.7 12.6 1.5 0 3-.2 4.5-.6 9.3-2.5 14.8-11.9 12.4-20.9-2-7.5-8.9-12.6-16.7-12.6zm2.5 27c-.9.2-1.9.4-2.8.4-4.8 0-9-3.1-10.2-7.6-.7-2.6-.3-5.4 1.1-7.8 1.5-2.4 3.8-4.2 6.5-4.9.9-.2 1.9-.4 2.8-.4 4.8 0 9 3.1 10.1 7.6 1.6 5.5-1.8 11.2-7.5 12.7zm61-54.6l3.9 37.2 6.4-3.8-1-9.4 11.4-6.7 7.7 5.4 6.4-3.7-30.8-21.3-4 2.3zm14.6 13.1l-6.1 3.6-.9-8.5 7 4.9zm24.2-31.1L534 589l-21.1 15.2 4 5.4 7.8-5.6 16 22.1 5.4-3.9-16-22.1m17.1-21.1l-1.2-.5-3.5 3.1 10.7 35.8 5.6-4.9-2.7-9 10-8.7 8.6 3.9 5.6-4.9-33.1-14.8zm12.1 12.7l-5.4 4.7-2.5-8.2 7.9 3.5zm-83.6 33.9l7.5 19.7-20.6-13.5-1.3-.8-5.2 2 11.3 29.9.7 1.9 6.3-2.4-7.5-19.8 20.6 13.6 1.2.8 5.3-2-12-31.8m-132.2-4.7c0-6.9-5.1-11.3-13-11.3-4.6 0-8.2 1.4-10.5 4 .2-3.8 1.4-6.9 3.4-9.1 1.9-2 4.4-3 7.4-3 2.8 0 6 .7 8.4 1.9l.8.4 2.7-4.6-.9-.4c-3.3-1.5-7.6-2.4-11.2-2.4-9.8 0-16.6 8-16.6 19.5 0 11.3 6.4 18.8 15.8 18.8 7.7 0 13.7-6 13.7-13.8zm-5.9-.1c0 4.1-3.3 8.5-8.2 8.5-2.3 0-4.3-.8-5.8-2.4-1.8-1.8-2.6-4.3-2.6-5.9 0-1.5.6-2.9 1.7-4 1.6-1.6 4.1-2.5 7-2.5 4.9.1 7.9 2.4 7.9 6.3zm69.3-495.5s1.9-.7 4.8-1.2 6.7-.8 10.5-.9c3.8 0 7.6.3 10.5.9 2.9.5 4.8 1.2 4.8 1.2s-1.9.7-4.8 1.2-6.7.8-10.5.9c-3.8 0-7.6-.4-10.5-.9-2.8-.5-4.8-1.2-4.8-1.2zm-23.7 0s.8-.7 2-1.2 2.8-.8 4.5-.9c1.6 0 3.2.3 4.5.9 1.2.5 2 1.2 2 1.2s-.8.7-2 1.2-2.8.8-4.5.9c-1.6 0-3.2-.4-4.5-.9-1.2-.5-2-1.2-2-1.2zm-153.2 30.7s1.4-.7 3.4-1.2 4.8-.8 7.5-.9c2.7 0 5.4.3 7.5.9 2 .5 3.4 1.2 3.4 1.2s-1.4.7-3.4 1.2-4.8.8-7.5.9c-2.7 0-5.4-.4-7.5-.9-2-.5-3.4-1.2-3.4-1.2zm-28.2.1s1.4-.7 3.4-1.2 4.8-.8 7.5-.9c2.7 0 5.4.3 7.5.9 2 .5 3.4 1.2 3.4 1.2s-1.4.7-3.4 1.2-4.8.8-7.5.9c-2.7 0-5.4-.4-7.5-.9-2-.5-3.4-1.2-3.4-1.2zm7.4 40.7s1.2-.7 3-1.2 4.2-.8 6.5-.9c2.4 0 4.8.3 6.5.9 1.8.5 3 1.2 3 1.2s-1.2.7-3 1.2-4.2.8-6.5.9c-2.4 0-4.8-.4-6.5-.9-1.8-.5-3-1.2-3-1.2zm-23.1 0s.9-.7 2.3-1.2 3.2-.8 5-.9c1.8 0 3.7.3 5 .9 1.4.5 2.3 1.2 2.3 1.2s-.9.7-2.3 1.2-3.2.8-5 .9c-1.8 0-3.7-.4-5-.9-1.4-.5-2.3-1.2-2.3-1.2zm-17 0s.8-.7 2-1.2 2.8-.8 4.3-.9c1.6 0 3.1.3 4.3.9 1.2.5 2 1.2 2 1.2s-.8.7-2 1.2-2.8.8-4.3.9c-1.6 0-3.1-.4-4.3-.9-1.2-.5-2-1.2-2-1.2zM499.2 179s.7-.7 1.6-1.2c1-.5 2.3-.8 3.6-.9 1.3 0 2.6.3 3.6.9 1 .5 1.6 1.2 1.6 1.2s-.7.7-1.6 1.2c-1 .5-2.3.8-3.6.9-1.3 0-2.6-.4-3.6-.9-.9-.5-1.6-1.2-1.6-1.2zm-20.5 0s1-.7 2.6-1.2 3.6-.8 5.7-.9c2.1 0 4.1.3 5.7.9 1.6.5 2.6 1.2 2.6 1.2s-1 .7-2.6 1.2-3.6.8-5.7.9c-2.1 0-4.1-.4-5.7-.9-1.6-.5-2.6-1.2-2.6-1.2zm-288.8 0s1-.7 2.5-1.2 3.5-.8 5.6-.9c2 0 4.1.3 5.6.9 1.5.5 2.5 1.2 2.5 1.2s-1 .7-2.5 1.2-3.5.8-5.6.9c-2 0-4.1-.4-5.6-.9s-2.5-1.2-2.5-1.2zm292.4-15.3s.6-.7 1.6-1.1c.9-.5 2.2-.8 3.5-.9 1.3 0 2.5.3 3.5.9.9.5 1.6 1.2 1.6 1.2s-.6.7-1.6 1.2c-.9.5-2.2.8-3.5.9-1.3 0-2.5-.4-3.5-.9-1-.6-1.6-1.3-1.6-1.3zm-252.5 0s1-.7 2.5-1.1c1.5-.5 3.5-.8 5.5-.9 2 0 4 .3 5.5.9 1.5.5 2.5 1.2 2.5 1.2s-1 .7-2.5 1.2-3.5.8-5.5.9c-2 0-4-.4-5.5-.9-1.5-.6-2.5-1.3-2.5-1.3zm-28.6 0s.6-.7 1.5-1.1c.9-.5 2.1-.8 3.4-.9 1.2 0 2.4.3 3.4.9.9.5 1.5 1.2 1.5 1.2s-.6.7-1.5 1.2-2.1.8-3.4.9c-1.2 0-2.4-.4-3.4-.9-.9-.6-1.5-1.3-1.5-1.3z"/><path fill="#091F2F" d="M197.6 179s2.8-.7 6.9-1.2c4.2-.5 9.7-.8 15.3-.9 5.6 0 11.1.3 15.3.9 4.2.5 6.9 1.2 6.9 1.2s-2.8.7-6.9 1.2c-4.2.5-9.7.8-15.3.9-5.6 0-11.1-.4-15.3-.9-4.1-.5-6.9-1.2-6.9-1.2zm296.5-15.3s1-.7 2.6-1.1c1.6-.5 3.6-.8 5.7-.9 2.1 0 4.2.3 5.7.9 1.6.5 2.6 1.2 2.6 1.2s-1 .7-2.6 1.2-3.6.8-5.7.9c-2.1 0-4.2-.4-5.7-.9-1.6-.6-2.6-1.3-2.6-1.3zm-30.2 0s.7-.7 1.8-1.1c1.1-.5 2.6-.8 4-.9 1.5 0 2.9.3 4 .9 1.1.5 1.8 1.2 1.8 1.2s-.7.7-1.8 1.2-2.6.8-4 .9c-1.5 0-2.9-.4-4-.9-1.1-.6-1.8-1.3-1.8-1.3zm-10.4-10s.7-.7 1.8-1.2 2.5-.9 4-.9 2.9.3 4 .8 1.8 1.1 1.8 1.1-.7.7-1.8 1.2-2.5.9-4 .9-2.9-.3-4-.8c-1.1-.4-1.8-1.1-1.8-1.1zm15.7-.1s2.2-.7 5.6-1.2c3.3-.5 7.8-.8 12.2-.9 4.4 0 8.9.3 12.2.9 3.3.5 5.6 1.2 5.6 1.2s-2.2.7-5.6 1.2c-3.3.5-7.8.8-12.2.9-4.4 0-8.9-.4-12.2-.9-3.4-.5-5.6-1.2-5.6-1.2zm-127.6 10.1s1.3-.7 3.4-1.1c2-.5 4.7-.8 7.4-.9 2.7 0 5.4.3 7.4.9 2 .5 3.4 1.2 3.4 1.2s-1.3.7-3.4 1.2c-2 .5-4.7.8-7.4.9-2.7 0-5.4-.4-7.4-.9-2-.6-3.4-1.3-3.4-1.3zm-122.6 0s.3-.7.8-1.1c.5-.5 1.1-.8 1.7-.9.6 0 1.2.3 1.7.9.5.5.8 1.2.8 1.2s-.3.7-.8 1.2-1.1.8-1.7.9c-.6 0-1.2-.4-1.7-.9-.5-.6-.8-1.3-.8-1.3zm143.4-10.1s.5-.7 1.3-1.2 1.9-.8 3-.9c1.1 0 2.1.3 3 .9.8.5 1.3 1.2 1.3 1.2s-.5.7-1.3 1.2-1.9.8-3 .9c-1.1 0-2.1-.4-3-.9-.8-.5-1.3-1.2-1.3-1.2zm-18.4 0s.9-.7 2.2-1.2c1.3-.5 3-.8 4.7-.9 1.7 0 3.5.3 4.7.9 1.3.5 2.2 1.2 2.2 1.2s-.9.7-2.2 1.2c-1.3.5-3 .8-4.7.9-1.7 0-3.5-.4-4.7-.9-1.4-.5-2.2-1.2-2.2-1.2zm-17.1 0s.6-.7 1.6-1.2 2.2-.8 3.5-.9c1.3 0 2.6.3 3.5.9 1 .5 1.6 1.2 1.6 1.2s-.6.7-1.6 1.2-2.2.8-3.5.9c-1.3 0-2.6-.4-3.5-.9-1-.5-1.6-1.2-1.6-1.2zm128.7-15.3s.6-.7 1.5-1.2 2.1-.8 3.3-.9c1.2 0 2.4.3 3.3.9.9.5 1.5 1.2 1.5 1.2s-.6.7-1.5 1.2-2.1.8-3.3.9c-1.2 0-2.4-.4-3.3-.9-.9-.6-1.5-1.2-1.5-1.2zm-89.7 0s.8-.7 1.9-1.2c1.2-.5 2.7-.8 4.2-.9 1.5 0 3.1.3 4.2.9 1.2.5 1.9 1.2 1.9 1.2s-.8.7-1.9 1.2c-1.2.5-2.7.8-4.2.9-1.5 0-3.1-.4-4.2-.9-1.2-.6-1.9-1.2-1.9-1.2zM326 97.4s2-.7 5.1-1.2c3-.5 7.1-.8 11.1-.9 4.1 0 8.1.3 11.1.9 3 .5 5.1 1.2 5.1 1.2s-2 .7-5.1 1.2c-3 .5-7.1.8-11.1.9-4.1 0-8.1-.4-11.1-.9-3-.6-5.1-1.2-5.1-1.2z"/><path fill="#091F2F" d="M342.2 138.3s1.7-.7 4.4-1.2c2.6-.5 6.1-.8 9.6-.9 3.5 0 7 .3 9.6.9 2.6.5 4.4 1.2 4.4 1.2s-1.7.7-4.4 1.2c-2.6.5-6.1.8-9.6.9-3.5 0-7-.4-9.6-.9-2.6-.6-4.4-1.2-4.4-1.2zm-31.3 0s.6-.7 1.6-1.2c.9-.5 2.2-.8 3.5-.9 1.3 0 2.5.3 3.5.9.9.5 1.6 1.2 1.6 1.2s-.6.7-1.6 1.2c-.9.5-2.2.8-3.5.9-1.3 0-2.5-.4-3.5-.9-.9-.6-1.6-1.2-1.6-1.2zm122.8 0s1.3-.7 3.2-1.2c1.9-.5 4.5-.8 7-.9 2.6 0 5.1.3 7 .9 1.9.5 3.2 1.2 3.2 1.2s-1.3.7-3.2 1.2c-1.9.5-4.5.8-7 .9-2.6 0-5.1-.4-7-.9-1.9-.6-3.2-1.2-3.2-1.2zm80.9 42.2s1.3-.7 3.2-1.1c1.9-.5 4.5-.8 7-.9 2.6 0 5.1.3 7 .9 1.9.5 3.2 1.2 3.2 1.2s-1.3.7-3.2 1.2c-1.9.5-4.5.8-7 .9-2.6 0-5.1-.4-7-.9-1.9-.6-3.2-1.3-3.2-1.3zm-282.7-42.2s1.9-.7 4.8-1.2 6.7-.8 10.5-.9c3.8 0 7.6.3 10.5.9 2.9.5 4.8 1.2 4.8 1.2s-1.9.7-4.8 1.2-6.7.8-10.5.9c-3.8 0-7.6-.4-10.5-.9-2.8-.6-4.8-1.2-4.8-1.2z"/><path fill="#091F2F" d="M328.7 138.3s-.6.7-1.5 1.2-2 .8-3.2.9c-1.2 0-2.3-.3-3.2-.9-.9-.5-1.5-1.2-1.5-1.2s.6-.7 1.5-1.2 2-.8 3.2-.9c1.2 0 2.3.4 3.2.9.9.5 1.5 1.2 1.5 1.2zm-51.1 0s-.6.7-1.5 1.2-2 .8-3.2.9c-1.2 0-2.3-.3-3.2-.9-.9-.5-1.5-1.2-1.5-1.2s.6-.7 1.5-1.2 2-.8 3.2-.9c1.2 0 2.3.4 3.2.9.9.5 1.5 1.2 1.5 1.2zm56.5 0s.4-.7.9-1.2 1.2-.8 1.9-.9c.7 0 1.4.3 1.9.9.5.5.9 1.2.9 1.2s-.4.7-.9 1.2-1.2.8-1.9.9c-.7 0-1.4-.4-1.9-.9-.5-.6-.9-1.2-.9-1.2zm17.4-15.4s1.2-.7 2.9-1.2c1.8-.5 4.1-.8 6.4-.9 2.3 0 4.7.3 6.4.9 1.8.5 2.9 1.2 2.9 1.2s-1.2.7-2.9 1.2c-1.8.5-4.1.8-6.4.9-2.3 0-4.7-.4-6.4-.9-1.8-.5-2.9-1.2-2.9-1.2zm-26.4 0s1.4-.7 3.4-1.2 4.8-.8 7.5-.9c2.7 0 5.4.3 7.5.9 2 .5 3.4 1.2 3.4 1.2s-1.4.7-3.4 1.2-4.8.8-7.5.9c-2.7 0-5.4-.4-7.5-.9-2.1-.5-3.4-1.2-3.4-1.2zm-20 0s.6-.7 1.5-1.2 2.1-.8 3.3-.9c1.2 0 2.4.3 3.3.9.9.5 1.5 1.2 1.5 1.2s-.6.7-1.5 1.2-2.1.8-3.3.9c-1.2 0-2.4-.4-3.3-.9-.9-.5-1.5-1.2-1.5-1.2zm60.3-25.5s.6-.7 1.5-1.2 2.1-.8 3.3-.9c1.2 0 2.4.3 3.3.9.9.5 1.5 1.2 1.5 1.2s-.6.7-1.5 1.2-2.1.8-3.3.9c-1.2 0-2.4-.4-3.3-.9-.9-.6-1.5-1.2-1.5-1.2zm-117 25.5l1.4-.4.7-.1.3-.1h-.1s.1-.1.3-.2h.2c.4.1 1.4-.2 2-.3l2.2-.3c1.4-.2 2.9-.3 4.3-.4 2.9-.2 5.8-.3 8.7-.2 2.9 0 5.8.2 8.7.5 2.9.3 5.8.7 8.7 1.5-2.9.8-5.8 1.2-8.7 1.5-2.9.3-5.8.4-8.7.5-2.9 0-5.8 0-8.7-.2-1.4-.1-2.9-.3-4.3-.4l-2.2-.3c-.8-.2-1.3-.1-2.3-.5h.3c.1 0 .1-.1 0 0 0 0-.4.1-.5.1l-.3-.1-.7-.1-1.3-.5zm71 0s.4-.7.9-1.2 1.2-.8 1.9-.9c.7 0 1.4.3 1.9.9.5.5.9 1.2.9 1.2s-.4.7-.9 1.2-1.2.8-1.9.9c-.7 0-1.4-.4-1.9-.9s-.9-1.2-.9-1.2zm62-25.5s.4-.7.9-1.2 1.2-.8 1.9-.9c.7 0 1.4.3 1.9.9.5.5.9 1.2.9 1.2s-.4.7-.9 1.2-1.2.8-1.9.9c-.7 0-1.4-.4-1.9-.9-.5-.6-.9-1.2-.9-1.2zm-88 25.5s.7-.7 1.8-1.2 2.6-.8 4-.9c1.5 0 2.9.3 4 .9 1.1.5 1.8 1.2 1.8 1.2s-.7.7-1.8 1.2-2.6.8-4 .9c-1.5 0-2.9-.4-4-.9s-1.8-1.2-1.8-1.2zm71.4-15.3s.4-.7 1-1.2 1.3-.8 2.1-.9c.8 0 1.5.3 2.1.9.6.5 1 1.2 1 1.2s-.4.7-1 1.2-1.3.8-2.1.9c-.8 0-1.5-.4-2.1-.9-.6-.6-1-1.2-1-1.2zm36.6 0s1.2-.7 3.1-1.2c1.9-.5 4.3-.8 6.8-.9 2.5 0 4.9.3 6.8.9 1.9.5 3.1 1.2 3.1 1.2s-1.2.7-3.1 1.2c-1.9.5-4.3.8-6.8.9-2.5 0-4.9-.4-6.8-.9-1.9-.6-3.1-1.2-3.1-1.2zm-23.9 15.3s.6-.7 1.4-1.2c.8-.5 2-.8 3.1-.9 1.1 0 2.3.3 3.1.9.8.5 1.4 1.2 1.4 1.2s-.6.7-1.4 1.2c-.8.5-2 .8-3.1.9-1.1 0-2.3-.4-3.1-.9-.8-.5-1.4-1.2-1.4-1.2zm-4-15.3s1.3-.7 3.4-1.2c2-.5 4.7-.8 7.4-.9 2.7 0 5.4.3 7.4.9 2 .5 3.4 1.2 3.4 1.2s-1.3.7-3.4 1.2c-2 .5-4.7.8-7.4.9-2.7 0-5.4-.4-7.4-.9-2.1-.6-3.4-1.2-3.4-1.2zm-46.6 0s2-.7 5-1.2 7-.8 11.1-.9c4 0 8.1.3 11.1.9 3 .5 5 1.2 5 1.2s-2 .7-5 1.2-7 .8-11.1.9c-4 0-8.1-.4-11.1-.9-3-.6-5-1.2-5-1.2zm-41 0s2.3-.7 5.7-1.2c3.4-.5 7.9-.8 12.4-.9 4.5 0 9.1.3 12.4.9 3.4.5 5.7 1.2 5.7 1.2s-2.3.7-5.7 1.2c-3.4.5-7.9.8-12.4.9-4.5 0-9.1-.4-12.4-.9-3.5-.6-5.7-1.2-5.7-1.2z"/><g fill="#091F2F"><path d="M580.3 220.4l-.4-3.2-.8-3.1c-.7-2-1.5-4-2.5-5.9-1-1.9-2.2-3.6-3.6-5.3-2.7-3.3-6.1-6.1-9.8-8.2-.9-.6-1.9-1-2.9-1.5s-2-.9-3-1.2c-2-.8-4.1-1.3-6.2-1.7-2.1-.4-4.3-.6-6.4-.7-2.1 0-4.4.1-6.5.5-3.5.6-6.9 1.8-10.2 3.3-2-4.6-5.5-8.4-9.7-10.9-2.5-1.5-5.1-2.5-7.9-3.1-1.4-.3-2.8-.5-4.2-.5-1.4-.1-2.8 0-4.1.1-2.9.3-5.6.8-8.2 1.7-2.6.9-5.2 2-7.5 3.3-2.4 1.3-4.7 2.9-6.8 4.6l-.8.7-.1.1h-2.5c.1-.5.3-1 .3-1.6.1-.8.2-1.6.2-2.3l-.1-1.1-.1-1.1c-.2-1.5-.6-3-1.2-4.4-.1-.3-.3-.8-.5-1.1l-.5-.9c-.3-.6-.7-1.2-1.1-1.9l-.6-.9h-.3c-2.8-3.3-6.5-5.6-10.6-6.6-3.3-.9-6.9-.9-10.2-.1 0-.4.1-.8.1-1.2 0-1.5 0-3-.1-4.4-.2-3-.8-5.9-1.9-8.8-1.1-2.8-3-5.7-5.9-7.5-2.2-1.4-4.9-2-7.4-2-.3-2-.8-3.9-1.5-5.7v-.2l-1.5-3c-.5-.8-.6-1-1-1.6-.4-.5-.7-1.1-1.1-1.5-1.5-1.9-3.3-3.6-5.2-5-3.9-2.8-8.5-4.6-13.2-5.2h-.2l-4-.1h-3.5c-.1.1-.1.1-.2.1-1.6.2-3.2.5-4.8 1-1.8.6-3.6 1.3-5.3 2.2-3.4 1.8-6.4 4.3-8.7 7.3-1.2 1.5-2.2 3.2-3 4.9-.8 1.8-1.4 3.6-1.8 5.5-.3 1.9-.5 3.8-.4 5.8.1 1.1.3 2.2.5 3.3-4.6.8-8.9 3.4-11.6 7.4h-.3l-.6 1c-.1.2-.2.4-.2.5v.1l-.1.2-.1.3-.2.6-.3 1.3-.6 2.6c-.1.5-.2.9-.3 1.5v.9l.1.8c0 .2.1.4.1.6-.9.2-1.7.4-2.6.8-1.6.6-3.1 1.8-4.2 3.2-1.1 1.4-1.8 3.1-2.2 4.7-.1.5-.2 1-.2 1.5-1.3-.5-2.6-.8-3.9-1-2.4-.3-4.7-.3-7-.2-2.7.2-5.3.6-7.9 1.1 1-1.9 1.6-4.1 1.8-6.3v-1.6c0-.5 0-.9-.1-1.4-.1-1.1-.4-2.2-.7-3.2-.7-2-1.7-3.8-3-5.4-4.7-5.7-12.6-7.9-19.5-6.1 0-.9-.1-1.8-.2-2.8-.3-1.9-.8-3.8-1.6-5.6-1.6-3.6-4.4-6.7-7.8-8.7-3.4-2-7.2-2.9-10.8-3.3-1.9-.2-3.7-.3-5.6-.3-2 .1-3.9.4-5.7.8l-.2.1-.1.1-.1.1-.2.1-.4.1-.9.2c-.6.1-1.2.3-1.9.3v.2c-1.7.7-3.5 1.4-5.1 2.4-1.7 1-3.3 2.2-4.7 3.7-1.4 1.5-2.6 3.2-3.4 5-.4.9-.8 1.9-1 2.9l-.3 1.5c-.1.5-.1.9-.1 1.5v.2c-.3 0-.6-.1-.9-.1h-1.6c-.5 0-1.1.1-1.6.1-2 .2-4.1.7-6 1.4-1.9.7-3.7 1.7-5.4 3-.4.3-.8.6-1.2 1-.4.4-.8.8-1.2 1.1-.7.7-1.3 1.5-1.9 2.2l.1-.1c-.6.7-1.2 1.5-1.7 2.4-.4.8-.8 1.7-1 2.6-.5 1.7-.7 3.5-.7 5.2 0 1.7.1 3.4.4 5 .1.8.3 1.6.5 2.5l.2.7c-3.6 1.8-6.6 4.6-8.7 8-1.9 3.2-2.8 6.9-2.6 10.6-2-.8-4.2-1.4-6.3-1.6-1.5-.2-3.1-.2-4.6-.1-1.5.1-3.1.3-4.6.7-5.7 1.4-10.9 5.1-13.9 10.1-4.5-4.1-10.3-6.5-16.2-7.2-4.7-1.1-9.8-1-14.6.5-5.4 1.7-10.2 5.1-14 9.2-1.9 2-3.6 4.2-5.1 6.6-1.3 2.1-2.4 4.1-3.4 6.4-2.9.4-5.9 1.1-8.7 2.2-3.2 1.3-6.2 3.2-8.4 6-2.1 2.8-3.2 6.4-3 9.7.2 3.4 1.1 6.6 2.8 9.4-1-3.1-1.5-6.3-1.2-9.3.3-3.1 1.4-6 3.4-8.1 2-2.2 4.7-3.5 7.5-4.5 2.9-1 5.9-1.4 9-1.8l1.1-.1.5-1.1c1-2.2 2.3-4.6 3.6-6.7 1.4-2.1 2.9-4.2 4.7-6.1 3.4-3.8 7.5-6.9 12.2-8.7 1.2-.4 2.4-.8 3.6-1.1 1.2-.2 2.5-.5 3.7-.5 1.3-.1 2.5-.1 3.8 0 1.3.2 2.6.2 3.8.5 1.3.2 2.5.6 3.8.9 1.3.3 2.5.8 3.8 1.2 1.8.7 3.6 1.6 5.4 2.4.5.4 1 .9 1.4 1.3l.5.6.4-.7c3.1-4.9 8.2-8.1 13.7-9.2.7-.2 1.4-.2 2.1-.3.7-.1 1.3-.1 2.1-.1 1.4 0 2.8.1 4.2.3 2.7.5 5.4 1.4 7.7 2.9l2.7 1.7-.5-3.2c-.6-3.8.3-7.7 2.4-10.9 1.4-2.1 3.3-3.9 5.5-5.3v1.1c0 .9.3 1.7.5 2.5.6 1.5 1.3 2.8 2.2 3.7 1.6 1.9 3.2 2.5 3.2 2.5s-.6-1.6-1.2-3.6c-.3-1.1-.6-2.2-.7-3.5-.1-1.2-.2-2.5.1-3.7.1-1.2.7-2.3 1.1-3.5.3-.5.6-1.1.9-1.6.3-.5.7-1 1-1.4.6-1 1.3-1.6 1.6-2.2l.6-.9s-.4.1-1.1.3c-.7.2-1.7.5-2.7 1.2-.7.4-1.3.9-2 1.5 0-.2-.1-.5-.1-.7-.2-1.4-.4-2.9-.4-4.3s.1-2.8.5-4.1c.2-.6.4-1.2.7-1.8.3-.6.7-1 1-1.5l.1-.1c.6-.7 1.2-1.4 1.8-2l.8-.8 1-.8c1.4-1 2.9-1.8 4.4-2.5 1.6-.6 3.2-1 4.9-1.2.4 0 .8-.1 1.2-.1h1.3c.8 0 1.7.2 2.6.3l2.1.3.2-2.1c.1-.9.1-1.6.2-2.1v-.6c0-.2 0-.6.1-1 0-.4.1-.8.2-1.1.2-.7.4-1.5.8-2.2.7-1.4 1.6-2.7 2.7-3.9 1.1-1.1 2.4-2.2 3.9-3 1.4-.9 3-1.5 4.6-2.1l.4-.2c.3-.1.6-.1.8-.1l1.2-.3.6-.2.3-.1s.1 0 .2-.1c1.6-.4 3.1-.6 4.6-.7 1.6 0 3.4.1 5 .2 3.3.4 6.5 1.2 9.3 2.8 2.7 1.6 4.9 3.9 6.1 6.8.6 1.4 1.1 3 1.3 4.6.1.8.2 1.6.2 2.4v1.9c-.7 0-1.4-.1-2.1 0-1.6.1-3.1.6-4.3 1.1-2.3 1-3.5 2.4-3.5 2.4s1.7-.1 4-.1c1.1 0 2.4 0 3.8.2 1.3.2 2.7.4 3.9.9 1.3.3 2.4 1.1 3.5 1.7.5.4 1 .8 1.5 1.1.5.4.9.8 1.3 1.2.9.7 1.5 1.5 2 2l.8.8s0-.4-.1-1.1c-.1-.7-.2-1.8-.8-3-.3-.6-.5-1.3-1-1.9-.5-.6-.9-1.3-1.5-1.9-.7-.5-1.2-1.3-2-1.6-.1 0-.2-.1-.2-.1 5.4-1.2 11.6.6 15.1 4.9 1 1.2 1.8 2.6 2.3 4.1.2.8.4 1.5.5 2.2.1.4.1.9.1 1.3v1.1c-.2 3.1-1.7 6.1-4.1 8.3l-6.1 5.7 8.1-2.3c4-1.1 8.3-2 12.5-2.3 4.1-.3 8.6 0 11.5 2l3.7 2.5-.5-4.5c-.1-.5-.1-1.2 0-1.7 0-.6.1-1.2.2-1.8.3-1.2.7-2.2 1.4-3.1.7-.8 1.5-1.5 2.6-1.9 1-.5 2.3-.6 3.5-.8l2.5-.3-.1-.3c.6 0 1.2.3 1.9.4.6.2 1.3.4 1.8.8.6.3 1.2.6 1.8 1 .6.4 1.2.7 1.7 1.3.5.5 1.1.8 1.6 1.3s.9.9 1.4 1.3c.9.8 1.6 1.6 2.1 2.1.6.5.9.8.9.8s-.1-.4-.2-1.2c-.2-.7-.4-1.8-.9-3-.3-.6-.6-1.2-1-1.9-.3-.7-.9-1.3-1.4-2-1-1.3-2.5-2.5-4.2-3.4-1.7-.8-3.7-1.3-5.5-1-.3 0-.6.1-.9.1 0-.3-.1-.5-.1-.8v-.9c0-.2.1-.6.2-1l.6-2.4.3-1.2v-.2l.3-.6c2.2-4 6.7-6.5 11.3-6.7l2.6-.1-.8-2.5c-.5-1.6-.8-3.2-1-4.8-.1-1.5 0-3.2.3-4.8.3-1.6.8-3.1 1.5-4.6.7-1.5 1.5-2.9 2.5-4.1 2-2.6 4.6-4.7 7.4-6.3 1.4-.8 3-1.4 4.5-1.9 1.6-.5 3.2-.8 4.8-1h2.3l3.9.1c4.1.6 8 2.1 11.3 4.5 1.7 1.2 3.1 2.6 4.4 4.2l.9 1.2.8 1.2 1.5 2.9c.8 2 1.3 4.2 1.4 6.4l.1 2.1 2.1-.2c2.5-.2 4.9.1 6.8 1.4 1.9 1.2 3.4 3.3 4.3 5.6.9 2.4 1.4 5 1.6 7.6.1 1.3.1 2.7.1 4 0 .7-.1 1.3-.1 2 0 .5-.2 1.5-.2 1.4l2.6 2.7c3.5-1.4 7.3-1.7 10.9-.8 3.6.9 6.9 3 9.1 5.9l.6.8c.1.2.3.5.4.7l.5.9c.2.3.2.5.4.8.5 1.1.8 2.2.9 3.4l.1.9v.9c0 .6 0 1.1-.1 1.7-.2 1.1-.5 2.3-1 3.4l-.4 1.1c-1.2.3-2.3.8-3.2 1.3-2.8 1.4-4.1 3.1-4.1 3.1s2-.5 4.8-.9c1.4-.2 3-.3 4.7-.4 1.7.1 3.4.1 5 .6 1.7.3 3.2 1.1 4.7 1.9.7.4 1.3.9 2 1.3s1.2 1 1.7 1.4c1.1.9 1.9 1.8 2.6 2.4.6.6 1.1.9 1.1.9s-.1-.5-.4-1.3c-.3-.8-.6-2.1-1.5-3.4-.4-.6-.8-1.5-1.4-2.1-.6-.7-1.2-1.4-2-2-.8-.5-1.6-1.3-2.6-1.7-.3-.1-.6-.3-.9-.4l.6-.5c1.9-1.6 4-3 6.2-4.2 2.2-1.2 4.5-2.3 6.8-3 2.4-.7 4.8-1.2 7.2-1.5 1.3 0 2.6-.2 3.8-.1 1.2 0 2.4.2 3.6.4 2.4.5 4.6 1.4 6.7 2.6 4.1 2.4 7.3 6.4 8.7 10.9l.7 2.3 2.1-1.2c3.4-1.9 7.2-3.2 11-3.8 1.9-.3 3.8-.5 5.8-.5 1.9.1 3.9.1 5.8.4 1.9.3 3.9.7 5.7 1.3.9.3 1.9.6 2.8 1 .9.4 1.8.7 2.7 1.2 3.5 1.8 6.7 4.2 9.4 7.1 1.3 1.5 2.5 3.1 3.6 4.7 1 1.7 1.9 3.5 2.6 5.4l.9 2.9.6 2.9c.2 2.1.4 4.1.2 6.1-.2 4-1.3 8-3.2 11.6-.9 1.8-2 3.5-3.3 5.2-.6.8-1.3 1.6-2 2.3-.8.6-1.3 1.7-2.4 1.7 1.1 0 1.7-1 2.5-1.6.7-.7 1.5-1.5 2.1-2.2 1.4-1.6 2.6-3.3 3.6-5.1 2.1-3.6 3.4-7.6 3.9-11.8.7-2.2.6-4.4.5-6.4zm-382.1-15.7c-1.2-.6-2.4-1.3-3.7-1.8h-.1c2 .8 3.9 1.7 5.7 2.9-.6-.4-1.2-.7-1.9-1.1zM403 122.6c-.3.3-.1.1 0 0zm76.3 66.7h-.2.2z"/><path d="M453.4 176.9c-.3-.6-.5-1.3-1-1.9-.5-.6-.9-1.3-1.5-1.9-.7-.5-1.2-1.3-2-1.6-.8-.5-1.6-.9-2.5-1.2-1.7-.6-3.6-.8-5.2-.6-1.6.1-3.1.6-4.3 1.1-2.3 1-3.5 2.4-3.5 2.4s1.7-.1 4-.1c1.1 0 2.4 0 3.8.2 1.3.2 2.7.4 3.9.9 1.3.3 2.4 1.1 3.5 1.7.5.4 1 .8 1.5 1.1.5.4.9.8 1.3 1.2.9.7 1.5 1.5 2 2l.8.8s0-.4-.1-1.1c0-.8-.1-1.9-.7-3zm115.9 51.8l-.6 2.1c-.3 1.3-.9 2.4-1.1 3.2-.3.8-.4 1.3-.4 1.3s.4-.3 1.1-.8c.6-.6 1.7-1.3 2.5-2.6.4-.6 1-1.2 1.4-2 .4-.8.8-1.7 1.1-2.6.2-1 .5-2 .5-3.1s0-2.2-.3-3.2c-.2-1.1-.6-2.1-1.1-3-.4-1-1.1-1.8-1.7-2.5-1.2-1.5-2.7-2.6-3.9-3.4-2.6-1.6-4.6-1.8-4.6-1.8s1.4 1.5 3.1 3.6c.8 1.1 1.8 2.3 2.5 3.7.7 1.4 1.5 2.9 1.7 4.4.4 1.5.3 3.1.2 4.7-.1.5-.3 1.2-.4 2zm-163-100.3h-2.5c-.9.2-1.8.3-2.8.5-.9.3-1.9.7-2.9 1.1-.9.6-1.8 1.1-2.7 1.8-.8.8-1.6 1.5-2.2 2.4-.7.8-1.1 1.8-1.5 2.7-.7 1.9-1.1 3.7-1.1 5.2-.1 3.1.8 5 .8 5s.4-2 1.4-4.6c.2-.6.5-1.3.9-2 .3-.7.8-1.4 1.1-2.1.9-1.3 1.9-2.6 3.2-3.7.6-.6 1.3-1 2-1.5.8-.3 1.4-.9 2.2-1.2.8-.3 1.5-.6 2.2-.9.7-.2 1.5-.4 2.1-.7 1.3-.5 2.5-.7 3.3-1 .8-.3 1.3-.4 1.3-.4s-.5-.2-1.3-.4c-.7.1-2-.3-3.5-.2z"/></g><g fill="#091F2F"><path d="M598.7 385.7h-6.6v6.1h6.6v-6.1zm-15.9 0v6.1h6.6v-6.1h-6.6zM544.5 358h6.6v-6.1h-6.6v6.1zm-403.6 37.2h7.9v-7.9h-7.9v7.9zm69.8-33.1h7.9v-11.6h-7.9v11.6zm-66.9 12.4h7.9v-11.6h-7.9v11.6zm18.3 0h7.9v-11.6h-7.9v11.6zm18.3 0h7.9v-11.6h-7.9v11.6zm20.8 17.7h6.2v-12.4h-6.2v12.4zm14.6 0h6.2v-12.4h-6.2v12.4zm24.1-6.2h7.2v-10.4h-7.2V386zm14.1 0h7.2v-10.4H254V386zm24.6 7.2h5.7v-16.8h-5.7v16.8zm10.6 0h5.7v-16.8h-5.7v16.8zM352 244.5v15.8h6.6V244c-.1-.5-.2-1.3-.8-1.9-.4-.4-1.2-1-2.4-1s-2 .5-2.4 1c-.4.5-.6 1-.7 1.5 0 .2-.1.3-.1.4-.2.2-.2.3-.2.5zm11.7 0v15.8h6.6V244c-.1-.5-.2-1.3-.8-1.9-.4-.4-1.2-1-2.4-1s-2 .5-2.4 1c-.4.4-.6.8-.7 1.2-.3.5-.3.9-.3 1.2zm-19.1 29h7v7h-7zm13.2 0h7v7h-7zm13.9 0h7v7h-7zM264 306.2h7.3v-7.3H264v7.3zm-19 0h7.3v-7.3H245v7.3zm38.1 0h7.3v-7.3h-7.3v7.3zm7.4 5.2h-7.3v7.3h7.3v-7.3zm19.3 6.6h7.3v-7.3h-7.3v7.3zm22.4 0h7.3v-7.3h-7.3v7.3zm22.3 0h7.3v-7.3h-7.3v7.3zm22.4 0h7.3v-7.3h-7.3v7.3zm29.7-7.3h-7.3v7.3h7.3v-7.3zm22.9 0h-7.3v7.3h7.3v-7.3zm16 21.9h7.3v-9h-7.3v9zm20.2-9h-7.3v8l.1 1h7.2v-9zm12.9 0h-7.3v9h7.3v-9zm-6.1 51h8.5l1-.1v-15.6h-9.5v15.7zm27 0h8.5l1-.1v-15.7h-9.5v15.8zm-76.2 19.6h4.9v-7h-4.9v7zm17.2 0h4.9v-7h-4.9v7zm-33.3 0h4.9v-7h-4.9v7zm-36.5-26.7h-7.1v7.1h7.1v-7.1zm15.5 0h-7.1v7.1h7.1v-7.1zm14 0h-7.1v7.1h7.1v-7.1zm-156.1-21.4v12.2h7.1v-12.2h-7.1zM365 387.7v7.2h7.2v-7.2H365zm18.6 0v7.2h7.2v-7.2h-7.2zm-276 7.5h7.9v-7.9h-7.9v7.9zm16.6 0h7.9v-7.9h-7.9v7.9z"/><path d="M624.2 398l-17.9-.1v-18.1h-20.2v-2.5l-10.8-13.7h-13.2v-14.9l-13.8-14.1-13.8 14.1v8.1H524v-7.1l-4.5-15.1c-.3-1-1.2-1.6-2.2-1.6h-19.6v-10.6l-8.7-27.1-6.6 21.1h-40.3v-12.7h3.2L428.5 287h-4.1v-5.6l-8.7-52.5-8.7 52.5v5.6h-18.9v-26.3h-9.5V240c1.3-.6 2.1-1.9 2.1-3.3 0-1.7-1.2-3.2-2.8-3.6-.9-7.6-6.9-13.7-14.5-14.7v-5.6c2.1.1 6.4.7 9.6 4.3 3.7 4.1 8.6 5 12.1 5 1.9 0 3.1-.3 3.1-.3l1.8-.4v-20.5l-2.5.2h-.8c-.8 0-3.5-.1-4.9-1.5-2-1.9-7.5-6.9-17-6.9-.6 0-1.3 0-2 .1-.4-.5-1-.8-1.7-.8-1.2 0-2.3 1-2.3 2.3v24c-7.6 1-13.5 7-14.5 14.7-1.6.4-2.8 1.9-2.8 3.6 0 1.4.8 2.7 2.1 3.3v20.8h-9.5V287H298l-3.1-7.2h-4.7l-2-24h-1.3v.1-.1l-5.8-50.3-5.8 50.3h-1.1l-1.8 24h-33.9l-5.4 14.1h1v30.6l-.1.1-11.5 11.5h-19.6l-7.7-36.2-7.9 37.2v19.1h-53.9v20.9h-33.2v20H89.7v3.5l534.6.8V398zM364.1 197.3h.8c7.8 0 12.3 4.1 13.9 5.7 2 1.9 4.8 2.4 6.7 2.6v11.8c-2.5.1-6.4-.4-9.2-3.5-4.1-4.6-9.4-5.6-12.3-5.8v-10.8zm122.5 121.2l2.4-9.3 3.5 13.4h-5.9v-4.1zm0 8.6h6.6v6h-6.6v-6zm29 10.5l3.5 11.7h-57.8l3.5-11.7h50.8zm-73.5-16.5h40v12h-18.9c-.3 0-.6.1-1 .2-.6.3-1 .8-1.2 1.5l-1 3.3h-17.9v-17zm8.3 38c-.1-2.7-1.6-4.3-3.8-4.3-1.1 0-2 .4-2.7 1.1-1.3 1.4-1.2 3.5-1.2 3.7v17.8h-6.8v-17.8c0-.2.1-2.4-1.2-3.7-1.3-1.4-4-1.4-5.3 0-1.3 1.4-1.2 3.5-1.2 3.7v17.8h-6.9v-17.8c0-.2.1-2.4-1.2-3.7-1.3-1.4-4-1.4-5.3 0-1.3 1.4-1.2 3.5-1.2 3.7v17.8h-3.5v-15.9l-6.2-14.7h-4.7v-5.1l59.4.1-2.5 8.8-.1 26.8h-5.7v-17.8c.1 0 .1-.2.1-.5zm-44.8 4.6v13.7h-47v-13.7h47zm-46.2-4.5l2.5-7.9h40.3l2.5 7.9h-45.3zm56.3-101.5l3.8 23.7H412l3.7-23.7zm-4.1 28.3h8.3v1.1h-8.3V286zm-50.4-64.4c7 0 12.8 5.4 13.3 12.2h-26.6c.6-6.8 6.3-12.2 13.3-12.2zm-13.9 17.8h27.9v22.3h-27.9v-22.3zm-8.5 25.8h44.9V287h-44.9v-21.8zm-39 28.7h1.2l-1-2.4h126.6l7.8 7.8H299.8v-5.4zm0 11.1h137.7v31.4h-27.3l-11.7-11.7c-.4-.4-1-.7-1.6-.7h-97.2v-19zm-18.7-63.2l1.3 14.1h-2.7l1.4-14.1zm-2.8 19h5.7l1.6 19h-8.7l1.4-19zm-36.9 23.6h50.4l2.2 5h-54.6l2-5zm-2.9 9.9h56.8v29.6h-35.2v-9.6c0-.1.1-1.1-.6-1.9-.7-.8-1.8-1.2-3.4-1.2s-2.7.4-3.4 1.2c-.7.8-.7 1.8-.6 1.8v9.7h-13.6v-29.6zm-2.1 34.2H396l7.8 7.8H228.6l7.8-7.8zm-32.3 12.6H228v9.5h-4.9v11.6h4.9v8.2h-23.9v-29.3zm-8.9-17.5l2.2 10.3H193l2.2-10.3zm-3.1 17.5h7.1v15.3h-7.1v-15.3zm-39.5 56.2l-47.6-.1v.6h-1v-.6h1v-15.1h47.6v15.2zm36.9 0h-5.4v-6.5h-7.9v6.5h-4.9v-6.4h-7.9v6.4h-5.9v-15.4h32v15.4zm.8-20.3l-52 .2v-16h60.9v9.1h-8.9v6.7zm39.7 20.4l-37.6-.1v-24.1H230v24.2zm38.3.1h-6.6v-4h-7.2v4h-7.4v-4h-7.2v4h-7.4v-34.1h35.8v34.1zm33.1 0h-28.6v-39.4h28.6v39.4zm52.6.1h-5.8v-12.9H341v12.9h-3v-12.9h-7.2v12.9h-7v-23.8H354v23.8zm.1-37.8l-.1 9.4h-4.3v-4.5c0-.1.1-1.3-.7-2.2-.4-.4-1-.8-2.1-.8s-1.8.5-2.1.8c-.8.9-.7 2.1-.7 2.1v4.5h-2.5v-4.5c0-.1.1-1.3-.7-2.2-.4-.4-1-.8-2.1-.8s-1.8.5-2.1.8c-.8.9-.7 2.1-.7 2.1v4.5h-2.5v-4.5c0-.1.1-1.3-.7-2.2-.4-.4-1-.8-2.1-.8-.2 0-.3 0-.6.1-1.9.3-2.3 2.1-2.3 2.9v4.5h-2.5v-4.5c0-.1.1-1.3-.7-2.2-.3-.4-1-.8-1.9-.9h-.2c-1.1 0-1.8.5-2.1.8-.8.9-.7 2.1-.7 2.1l-.1 31.9H306V357h49.4l-1.3 2.8zm-3.4-13.7v6.4h-14.2v-6.4h-7.1v6.4h-14.2v-6.4H308v6.4h-14.2v-6.4h-7.1v6.4h-14.2v-6.4h-7.1v12.2h2.9v.6h-35.8v-18h162.2v5.9h-34.5c-.5 0-1 0-2.5 3.5v-4.2h-7zm45.7 51.5l-37.8-.1v-15.7h37.8v15.8zm55.1.1l-50.6-.1v-15.8h50.6v15.9zm23 0H456v-7.6h18.5v7.6zm0-10.1H456V383h18.5v4.6zm45.4 10.2H479V386h40.9v11.8zm0-17.8h-59.4v-25.7h59.4V380zm19-29.4l9.3-9.5 9.3 9.5v13h-18.6v-13zm-14.4 10.8h9.9v14.5h-9.9v-14.5zm51.4 36.5h-27.1v-7.4h27.1v7.4zm0-11.9h-31.7v11.9h-2.6v-9.5H535v9.5h-1.9v-9.5h-6.6v9.5h-2.1v-17.4h51.5v5.5zm-37-10.1v-7.7h34.2l6.1 7.7h-40.3zm62.9 22l-3 .1v-2.8h-6.6v2.8h-2.7v-2.8h-6.6v2.8h-2.4v-13.5h21.3v13.4z"/></g></svg>