<svg id="Layer_1" xmlns="http://www.w3.org/2000/svg" viewBox="170.6 16 382.8 9"><style>.st0{fill:none;stroke:#ECECEC;stroke-width:3;}</style><title>squiggly-line</title><g id="Page-1"><g id="squiggly-line"><path id="Imported-Layers" class="st0" d="M170.6 23.4c8.7 0 8.7-5.8 17.4-5.8s8.7 5.8 17.4 5.8 8.7-5.8 17.4-5.8 8.7 5.8 17.4 5.8 8.7-5.8 17.4-5.8 8.7 5.8 17.4 5.8 8.7-5.8 17.4-5.8 8.7 5.8 17.4 5.8 8.7-5.8 17.4-5.8 8.7 5.8 17.4 5.8 8.7-5.8 17.4-5.8 8.7 5.8 17.4 5.8 8.7-5.8 17.4-5.8 8.7 5.8 17.4 5.8 8.7-5.8 17.4-5.8 8.7 5.8 17.4 5.8 8.7-5.8 17.4-5.8 8.7 5.8 17.4 5.8 8.7-5.8 17.4-5.8 8.7 5.8 17.4 5.8 8.7-5.8 17.4-5.8 8.7 5.8 17.4 5.8"/></g></g></svg>
