<svg xmlns="http://www.w3.org/2000/svg" width="82" height="164">
  <g fill="none" fill-rule="evenodd">
    <circle cx="41" cy="41" r="41" fill="#FCB61A"/>
    <g fill="#FFF">
      <path d="M17 23.2h4.4c.3 0 .7.2 1 .4.3.2.6.4.7.7.3.3.4.6.4 1 0 .6 0 1-.4 1.3-.3.4-.6.6-1 .7l.7.3c.2 0 .4.3.6.5l.4.7.2.8c0 .5-.2.8-.4 1-.2.5-.5.7-.8 1l-1 .3h-4.9v-8.6zm1.8 3.5h1.9l.4-.2c.2 0 .3-.2.4-.3v-.5-.4L21 25h-.4c0-.2-.3-.2-.4-.2h-1.4v2zm0 3.6H21c.2 0 .4 0 .5-.2 0 0 .2 0 .3-.2v-.5-.5l-.4-.3c-.2 0-.4 0-.6-.2h-2v2zM40.3 25.3c-.2 0-.4-.3-.6-.4l-.7-.2h-.4s-.3 0-.4.2c0 0-.2 0-.3.3-.2 0-.2.2-.2.3 0 .3 0 .5.3.6.3 0 .5.2.8.3l1 .3.7.4c.3 0 .6.3.7.6.2.3.3.7.3 1 0 .6 0 1-.2 1.3l-.7 1c-.3 0-.6.3-1 .4l-1.2.2c-.5 0-1 0-1.5-.3-.5 0-1-.4-1.3-.7l1.3-1.4c0 .2.4.4.6.5.3.2.6.2 1 .2h.3l.3-.3c.2 0 .3 0 .3-.2V29v-.5c-.3 0-.6-.2-.8-.3l-1-.3-1-.5-.6-.7c-.2-.2-.3-.6-.3-1s0-.8.2-1c.2-.5.4-.7.7-1 .2-.2.5-.3 1-.4l1-.2c.5 0 1 0 1.3.2.5 0 1 .3 1.2.6l-1.2 1.3M34 27.5c0 2.4-1.8 4.3-4.2 4.3-2.5 0-4.4-2-4.4-4.3 0-2.4 2-4.3 4.4-4.3 2.4 0 4.3 2 4.3 4.3m-1.8 0c0-1.3-1-2.4-2.4-2.4s-2.5 1.2-2.5 2.5c0 1.4 1 2.4 2.5 2.4 1.3 0 2.4-1 2.4-2.5M45 26.2c-1 0-1.5-.6-1.5-1.4 0-.7.6-1.3 1.4-1.3.6 0 1.2.6 1.2 1.3 0 .8-.6 1.4-1.3 1.4m0 5.4c-1 0-1.5-.6-1.5-1.4 0-.7.6-1.3 1.4-1.3.6 0 1.2.5 1.2 1.2 0 .8-.6 1.4-1.3 1.4M34.6 52c0 4.5-4 8-9.2 8-5 0-9.3-3.5-9.3-8h5.2c0 2 1.8 3.3 4.2 3.3 2.3 0 4.2-1.2 4.2-3.3 0-3.7-2-4.3-4.2-4.3H20v-4l6.7-5.3h-10V34h17v4.4L27 43.7c4.7 0 7.6 3.4 7.6 8.3M50 34v25h-6V43H38v-4s5.4-.8 5.7-5h6M66 59h-6V43h-5.7v-4s5.4-.8 5.7-5h6v25z"/>
    </g>
    <circle cx="41" cy="123" r="41" fill="#FFF"/>
    <g fill="#FCB61A">
      <path d="M17 105.2h4.4c.3 0 .7.2 1 .4.3.2.6.4.7.7.3.3.4.6.4 1 0 .6 0 1-.4 1.3-.3.4-.6.6-1 .7l.7.3c.2 0 .4.3.6.5l.4.7.2.8c0 .5-.2.8-.4 1-.2.5-.5.7-.8 1l-1 .3h-4.9v-8.6zm1.8 3.5h1.9l.4-.2c.2 0 .3-.2.4-.3v-.5-.4l-.3-.3h-.4c0-.2-.3-.2-.4-.2h-1.4v2zm0 3.6H21c.2 0 .4 0 .5-.2 0 0 .2 0 .3-.2v-.5-.5l-.4-.3c-.2 0-.4 0-.6-.2h-2v2zM40.3 107.3c-.2 0-.4-.3-.6-.4l-.7-.2h-.4s-.3 0-.4.2c0 0-.2 0-.3.3-.2 0-.2.2-.2.3 0 .3 0 .5.3.6.3 0 .5.2.8.3l1 .3.7.4c.3 0 .6.3.7.6.2.3.3.7.3 1 0 .6 0 1-.2 1.3l-.7 1c-.3 0-.6.3-1 .4l-1.2.2c-.5 0-1 0-1.5-.3-.5 0-1-.4-1.3-.7l1.3-1.4c0 .2.4.4.6.5.3.2.6.2 1 .2h.3l.3-.3c.2 0 .3 0 .3-.2v-.4-.5c-.3 0-.6-.2-.8-.3l-1-.3-1-.5-.6-.7c-.2-.2-.3-.6-.3-1s0-.8.2-1c.2-.5.4-.7.7-1 .2-.2.5-.3 1-.4l1-.2c.5 0 1 0 1.3.2.5 0 1 .3 1.2.6l-1.2 1.3M34 109.5c0 2.4-1.8 4.3-4.2 4.3-2.5 0-4.4-2-4.4-4.3 0-2.4 2-4.3 4.4-4.3 2.4 0 4.3 2 4.3 4.3m-1.8 0c0-1.3-1-2.4-2.4-2.4s-2.5 1.2-2.5 2.5c0 1.4 1 2.4 2.5 2.4 1.3 0 2.4-1 2.4-2.5M45 108.2c-1 0-1.5-.6-1.5-1.4 0-.7.6-1.3 1.4-1.3.6 0 1.2.6 1.2 1.3 0 .8-.6 1.4-1.3 1.4m0 5.4c-1 0-1.5-.6-1.5-1.4 0-.7.6-1.3 1.4-1.3.6 0 1.2.5 1.2 1.2 0 .8-.6 1.4-1.3 1.4M34.6 134c0 4.5-4 8-9.2 8-5 0-9.3-3.5-9.3-8h5.2c0 2 1.8 3.3 4.2 3.3 2.3 0 4.2-1.2 4.2-3.3 0-3.7-2-4.3-4.2-4.3H20v-4l6.7-5.3h-10V116h17v4.4l-6.6 5.3c4.7 0 7.6 3.4 7.6 8.3M50 116v25h-6v-16H38v-4s5.4-.8 5.7-5h6M66 141h-6v-16h-5.7v-4s5.4-.8 5.7-5h6v25z"/>
    </g>
  </g>
</svg>
