<svg width="32" height="42" viewBox="0 0 32 42" fill="none" xmlns="http://www.w3.org/2000/svg">
  <path d="M15.802 0C7.07479 0 0 7.15253 0 15.9756C0 19.7245 1.27725 23.1718 3.4158 25.897C7.34601 30.9053 13.0618 34.9162 15.3586 40.8537L15.802 42L16.2454 40.8537C18.5422 34.9162 24.2579 30.9053 28.1882 25.897C30.3267 23.1718 31.604 19.7245 31.604 15.9756C31.604 7.15253 24.5292 0 15.802 0Z" fill="#45789C"/>
  <ellipse cx="15.8019" cy="15.802" rx="13.3069" ry="13.3069" fill="white"/>
  <path d="M9.61787 19.8394H22.4429V10.0572L9.61787 10.0572L9.61787 19.8394Z" fill="#45789C" stroke="#45789C" stroke-width="0.89" stroke-miterlimit="10"/>
  <path d="M15.8107 17.5571H20.9965V12.65H15.8107V17.5571Z" fill="white"/>
  <path d="M14.3214 19.9035V12.6499H11.1714V19.9035H14.3214Z" fill="white"/>
  <path d="M18.3392 9.07129V12.4356C18.3392 12.7999 18.8321 13.1106 19.4107 13.1106C19.9892 13.1106 20.4821 12.7999 20.4821 12.4356V9.07129H18.3392Z" fill="white" stroke="#45789C" stroke-width="0.89" stroke-miterlimit="10"/>
  <path d="M20.5035 9.07129V12.2856V12.457C20.5035 12.8213 20.9857 13.132 21.575 13.132C22.1643 13.132 22.6464 12.8213 22.6464 12.457V9.07129H20.5035Z" fill="white" stroke="#45789C" stroke-width="0.89" stroke-miterlimit="10"/>
  <path d="M13.8715 9.07129V12.4356C13.8715 12.7999 14.3536 13.1106 14.9429 13.1106C15.5322 13.1106 16.0143 12.7999 16.0143 12.4356V9.07129H13.8715Z" fill="white" stroke="#45789C" stroke-width="0.89" stroke-miterlimit="10"/>
  <path d="M9.40356 9.07129V12.4356C9.40356 12.7999 9.88571 13.1106 10.475 13.1106C11.0643 13.1106 11.5464 12.7999 11.5464 12.4356V9.07129H9.40356Z" fill="white" stroke="#45789C" stroke-width="0.89" stroke-miterlimit="10"/>
  <path d="M16.1 9.07129V12.2856V12.457C16.1 12.8213 16.5821 13.132 17.1714 13.132C17.7607 13.132 18.2428 12.8213 18.2428 12.457V9.07129H16.1Z" fill="white" stroke="#45789C" stroke-width="0.89" stroke-miterlimit="10"/>
  <path d="M11.6321 9.07129V12.2856V12.457C11.6321 12.8213 12.1142 13.132 12.7035 13.132C13.2928 13.132 13.7749 12.8213 13.7749 12.457V9.07129H11.6321Z" fill="white" stroke="#45789C" stroke-width="0.89" stroke-miterlimit="10"/>
  <path d="M8.54646 10.5715L23.525 10.5715V8.72868L8.54646 8.72868V10.5715Z" fill="#45789C" stroke="#45789C" stroke-width="0.89" stroke-miterlimit="10"/>
  <path d="M8.54646 21.7466L23.525 21.7466V19.9037H8.54646V21.7466Z" fill="#45789C" stroke="#45789C" stroke-width="0.89" stroke-miterlimit="10"/>
</svg>
