<svg width="32" height="42" viewBox="0 0 32 42" fill="none" xmlns="http://www.w3.org/2000/svg">
<path d="M15.802 0C7.07479 0 0 7.15253 0 15.9756C0 19.7245 1.27725 23.1718 3.4158 25.897C7.34601 30.9053 13.0618 34.9162 15.3586 40.8537L15.802 42L16.2454 40.8537C18.5422 34.9162 24.2579 30.9053 28.1882 25.897C30.3267 23.1718 31.604 19.7245 31.604 15.9756C31.604 7.15253 24.5292 0 15.802 0Z" fill="#45789C"/>
<ellipse cx="15.802" cy="15.802" rx="13.3069" ry="13.3069" fill="white"/>
<path d="M24.1525 13.3778L16.3045 7.12986C16.2015 7.04587 16.0727 7 15.9398 7C15.8069 7 15.6781 7.04587 15.5752 7.12986L8.20612 13.3778C8.11652 13.4529 8.05188 13.5536 8.02077 13.6663C7.98967 13.7791 7.99357 13.8986 8.03196 14.0091C8.07367 14.1201 8.14797 14.2159 8.2451 14.2838C8.34223 14.3518 8.45765 14.3889 8.57621 14.3901H9.3708V22.4231C9.3708 22.5761 9.43158 22.7228 9.53977 22.831C9.64796 22.9392 9.7947 23 9.9477 23H22.4326C22.5857 23 22.7324 22.9392 22.8406 22.831C22.9488 22.7228 23.0095 22.5761 23.0095 22.4231V14.3465H23.7933C23.9135 14.3461 24.0306 14.3081 24.1282 14.2378C24.2257 14.1675 24.2989 14.0686 24.3375 13.9547C24.3632 13.8508 24.3595 13.7419 24.3268 13.64C24.2941 13.5381 24.2338 13.4473 24.1525 13.3778ZM12.4948 21.8353H11.4716V14.2159H12.5601L12.4948 21.8353ZM15.2269 21.9115H14.1384V14.2921H15.2269V21.9115ZM17.959 21.9115H16.914V14.2921H18.0025L17.959 21.9115ZM20.6911 21.9115H19.6026V14.2921H20.6911V21.9115Z" fill="#45789C"/>
</svg>
