<svg width="32" height="42" viewBox="0 0 32 42" fill="none" xmlns="http://www.w3.org/2000/svg">
<path d="M15.802 0C7.07479 0 0 7.15253 0 15.9756C0 19.7245 1.27725 23.1718 3.4158 25.897C7.34601 30.9053 13.0618 34.9162 15.3586 40.8537L15.802 42L16.2454 40.8537C18.5422 34.9162 24.2579 30.9053 28.1882 25.897C30.3267 23.1718 31.604 19.7245 31.604 15.9756C31.604 7.15253 24.5292 0 15.802 0Z" fill="#091F2F"/>
<ellipse cx="15.802" cy="15.802" rx="13.3069" ry="13.3069" fill="white"/>
<path d="M22.3911 11.4723L21.2841 10.6642V7.66421H19.0701V9.10332L16.1476 7L9.60517 11.5277L8 12.6347L8.631 13.5424L9.38376 13.0221V22H11.9742V16.2546H15.572V21.9889H22.6015V12.9779L23.3542 13.5203L24.0074 12.6236L22.3911 11.4723ZM20.6974 19.4428H17.5203V16.2546H20.6974V19.4428Z" fill="#091F2F"/>
</svg>
