<svg width="32" height="42" viewBox="0 0 32 42" fill="none" xmlns="http://www.w3.org/2000/svg">
<path d="M15.802 0C7.07479 0 0 7.15253 0 15.9756C0 19.7245 1.27725 23.1718 3.4158 25.897C7.34601 30.9053 13.0618 34.9162 15.3586 40.8537L15.802 42L16.2454 40.8537C18.5422 34.9162 24.2579 30.9053 28.1882 25.897C30.3267 23.1718 31.604 19.7245 31.604 15.9756C31.604 7.15253 24.5292 0 15.802 0Z" fill="#478033"/>
<ellipse cx="15.802" cy="15.802" rx="13.3069" ry="13.3069" fill="white"/>
<path d="M14.9878 23.9998L15.3536 17.4512H16.7459V21.7816L16.8757 23.9998H14.9878Z" fill="#091F2F" stroke="#0C1F2E" stroke-width="1.03" stroke-miterlimit="10"/>
<path d="M16.8757 23.9998H14.9878L15.3536 17.4512H16.7459L16.8757 23.9998Z" fill="#478033" stroke="#478033" stroke-width="1.03" stroke-miterlimit="10"/>
<path d="M21.7488 14.8437C21.7668 14.6829 21.7668 14.5206 21.7488 14.3599C21.747 13.9262 21.6078 13.5042 21.3513 13.1544C21.0949 12.8046 20.7342 12.5451 20.3211 12.413C20.4587 12.153 20.5429 11.8682 20.5689 11.5752C20.5704 11.2938 20.5163 11.0148 20.4097 10.7543C20.3031 10.4938 20.146 10.257 19.9475 10.0574C19.749 9.85787 19.5131 9.6995 19.2532 9.59143C18.9933 9.48337 18.7146 9.42774 18.4332 9.42774C18.3273 9.41605 18.2205 9.41605 18.1146 9.42774C18.014 9.01913 17.779 8.65619 17.4473 8.39725C17.1156 8.13831 16.7065 7.99841 16.2857 8.00001C15.867 7.99852 15.4596 8.13537 15.1267 8.38929C14.7939 8.64321 14.5542 8.99998 14.445 9.40414C13.9564 9.40225 13.4756 9.52573 13.0484 9.76277C12.6212 9.99981 12.262 10.3425 12.0051 10.758C11.7482 11.1736 11.6022 11.6481 11.5811 12.1361C11.56 12.6242 11.6645 13.1096 11.8845 13.5457C11.5264 13.6491 11.1947 13.828 10.9116 14.0704C10.6285 14.3128 10.4007 14.613 10.2435 14.9509C10.0862 15.2888 10.0032 15.6565 10.0001 16.0291C9.99695 16.4018 10.0737 16.7708 10.2252 17.1113C10.3768 17.4518 10.5995 17.7558 10.8785 18.003C11.1574 18.2501 11.4861 18.4346 11.8424 18.544C12.1986 18.6533 12.5742 18.6851 12.9438 18.637C13.3133 18.589 13.6683 18.4623 13.9848 18.2655C14.3213 18.4213 14.6877 18.5019 15.0585 18.5015C15.6345 18.4989 16.1938 18.3084 16.6515 17.9587C17.1091 18.3084 17.6685 18.4989 18.2444 18.5015C18.901 18.4959 19.5304 18.2382 20.0025 17.7817C20.2946 18.0128 20.6566 18.1377 21.029 18.1357C21.4828 18.1357 21.918 17.9554 22.2388 17.6346C22.5597 17.3137 22.7399 16.8785 22.7399 16.4248C22.7486 16.093 22.6591 15.766 22.4828 15.4847C22.3065 15.2035 22.0512 14.9805 21.7488 14.8437Z" fill="#478033" stroke="#478033" stroke-width="1.03" stroke-miterlimit="10"/>
</svg>
