<svg width="32" height="42" viewBox="0 0 32 42" fill="none" xmlns="http://www.w3.org/2000/svg">
  <path d="M15.802 0C7.07479 0 0 7.15253 0 15.9756C0 19.7245 1.27725 23.1718 3.4158 25.897C7.34601 30.9053 13.0618 34.9162 15.3586 40.8537L15.802 42L16.2454 40.8537C18.5422 34.9162 24.2579 30.9053 28.1882 25.897C30.3267 23.1718 31.604 19.7245 31.604 15.9756C31.604 7.15253 24.5292 0 15.802 0Z" fill="#58585B"/>
  <ellipse cx="15.802" cy="15.802" rx="13.3069" ry="13.3069" fill="white"/>
  <path d="M8.33707 18.6746L9.39071 18.8251C9.46196 19.0466 9.55104 19.2619 9.65707 19.469L9.01907 20.3199C8.96235 20.3956 8.93482 20.4892 8.94153 20.5835C8.94824 20.6778 8.98874 20.7665 9.05561 20.8334L10.1666 21.9444C10.2335 22.0113 10.3222 22.0518 10.4165 22.0585C10.5108 22.0652 10.6044 22.0377 10.6801 21.9809L11.531 21.3429C11.7381 21.449 11.9534 21.538 12.1749 21.6093L12.3254 22.6629C12.3388 22.7565 12.3855 22.8421 12.4569 22.904C12.5284 22.9659 12.6197 23 12.7143 23H14.2857C14.3803 23 14.4716 22.9659 14.5431 22.904C14.6145 22.8421 14.6612 22.7565 14.6746 22.6629L14.8251 21.6093C15.0466 21.538 15.2619 21.449 15.469 21.3429L16.3199 21.9809C16.3956 22.0377 16.4892 22.0652 16.5835 22.0585C16.6778 22.0518 16.7665 22.0113 16.8334 21.9444L17.9444 20.8334C18.0113 20.7665 18.0518 20.6778 18.0585 20.5835C18.0652 20.4892 18.0377 20.3956 17.9809 20.3199L17.3429 19.469C17.449 19.2619 17.538 19.0466 17.6093 18.8251L18.6629 18.6746C18.7565 18.6612 18.8421 18.6145 18.904 18.5431C18.9659 18.4716 19 18.3803 19 18.2857V16.7143C19 16.6197 18.9659 16.5284 18.904 16.4569C18.8421 16.3855 18.7565 16.3388 18.6629 16.3254L17.6093 16.1749C17.538 15.9534 17.449 15.7381 17.3429 15.531L17.9809 14.6801C18.0377 14.6044 18.0652 14.5108 18.0585 14.4165C18.0518 14.3222 18.0113 14.2335 17.9444 14.1666L16.8334 13.0556C16.7665 12.9887 16.6778 12.9482 16.5835 12.9415C16.4892 12.9348 16.3956 12.9623 16.3199 13.0191L15.469 13.6571C15.2619 13.551 15.0466 13.462 14.8251 13.3907L14.6746 12.3371C14.6612 12.2435 14.6145 12.1579 14.5431 12.096C14.4716 12.0341 14.3803 12 14.2857 12H12.7143C12.6197 12 12.5284 12.0341 12.4569 12.096C12.3855 12.1579 12.3388 12.2435 12.3254 12.3371L12.1749 13.3907C11.9534 13.462 11.7381 13.551 11.531 13.6571L10.6801 13.0191C10.6044 12.9623 10.5108 12.9348 10.4165 12.9415C10.3222 12.9482 10.2335 12.9887 10.1666 13.0556L9.05561 14.1666C8.98874 14.2335 8.94824 14.3222 8.94153 14.4165C8.93482 14.5108 8.96235 14.6044 9.01907 14.6801L9.65707 15.531C9.55104 15.7381 9.46196 15.9534 9.39071 16.1749L8.33707 16.3254C8.24349 16.3388 8.15789 16.3855 8.09598 16.4569C8.03406 16.5284 7.99999 16.6197 8 16.7143V18.2857C7.99999 18.3803 8.03406 18.4716 8.09598 18.5431C8.15789 18.6145 8.24349 18.6612 8.33707 18.6746ZM8.78571 17.0549L9.75332 16.9166C9.83035 16.9056 9.90239 16.872 9.9603 16.8201C10.0182 16.7681 10.0594 16.7001 10.0786 16.6247C10.1612 16.2994 10.2902 15.9877 10.4616 15.6991C10.5014 15.6322 10.5204 15.555 10.5162 15.4773C10.512 15.3996 10.4848 15.3249 10.4381 15.2627L9.85193 14.4809L10.4805 13.8523L11.2623 14.4385C11.3245 14.4852 11.3992 14.5124 11.4769 14.5166C11.5546 14.5208 11.6318 14.5018 11.6988 14.462C11.9873 14.2906 12.299 14.1616 12.6243 14.079C12.6997 14.0598 12.7677 14.0186 12.8197 13.9607C12.8716 13.9028 12.9052 13.8307 12.9162 13.7537L13.0549 12.7857H13.9451L14.0834 13.7533C14.0944 13.8304 14.128 13.9024 14.1799 13.9603C14.2319 14.0182 14.2999 14.0594 14.3753 14.0786C14.7006 14.1612 15.0123 14.2902 15.3009 14.4616C15.3678 14.5014 15.445 14.5204 15.5227 14.5162C15.6004 14.512 15.6751 14.4848 15.7373 14.4381L16.5191 13.8519L17.1477 14.4805L16.5615 15.2623C16.5148 15.3245 16.4876 15.3992 16.4834 15.4769C16.4792 15.5546 16.4982 15.6318 16.538 15.6988C16.7094 15.9873 16.8384 16.299 16.921 16.6243C16.9402 16.6997 16.9814 16.7677 17.0393 16.8197C17.0972 16.8716 17.1693 16.9052 17.2463 16.9162L18.2143 17.0549V17.9451L17.2467 18.0834C17.1696 18.0944 17.0976 18.128 17.0397 18.1799C16.9818 18.2319 16.9406 18.2999 16.9214 18.3753C16.8388 18.7006 16.7098 19.0123 16.5384 19.3009C16.4986 19.3678 16.4796 19.445 16.4838 19.5227C16.488 19.6004 16.5152 19.6751 16.5619 19.7373L17.1481 20.5191L16.5195 21.1477L15.7393 20.5619C15.677 20.5152 15.6023 20.488 15.5246 20.4838C15.4469 20.4796 15.3697 20.4986 15.3028 20.5384C15.0143 20.7098 14.7026 20.8388 14.3773 20.9214C14.3019 20.9406 14.2339 20.9818 14.1819 21.0397C14.1299 21.0976 14.0963 21.1696 14.0854 21.2467L13.9451 22.2143H13.0549L12.9166 21.2467C12.9056 21.1696 12.872 21.0976 12.8201 21.0397C12.7681 20.9818 12.7001 20.9406 12.6247 20.9214C12.2994 20.8388 11.9877 20.7098 11.6991 20.5384C11.6322 20.4986 11.555 20.4796 11.4773 20.4838C11.3996 20.488 11.3249 20.5152 11.2627 20.5619L10.4809 21.1481L9.85232 20.5195L10.4385 19.7377C10.4852 19.6755 10.5124 19.6008 10.5166 19.5231C10.5208 19.4454 10.5018 19.3682 10.462 19.3012C10.2906 19.0127 10.1616 18.701 10.079 18.3757C10.0598 18.3003 10.0186 18.2323 9.96069 18.1803C9.90278 18.1284 9.83075 18.0948 9.75371 18.0838L8.78571 17.9451V17.0549Z" fill="#58585B"/>
  <path d="M13.5 20C13.9945 20 14.4778 19.8534 14.8889 19.5787C15.3 19.304 15.6205 18.9135 15.8097 18.4567C15.9989 17.9999 16.0484 17.4972 15.952 17.0123C15.8555 16.5273 15.6174 16.0819 15.2678 15.7322C14.9181 15.3826 14.4727 15.1445 13.9877 15.048C13.5028 14.9516 13.0001 15.0011 12.5433 15.1903C12.0865 15.3795 11.696 15.7 11.4213 16.1111C11.1466 16.5222 11 17.0055 11 17.5C11.0007 18.1628 11.2643 18.7983 11.733 19.267C12.2017 19.7357 12.8372 19.9993 13.5 20V20ZM13.5 15.8333C13.8296 15.8333 14.1519 15.9311 14.426 16.1142C14.7 16.2974 14.9137 16.5577 15.0398 16.8622C15.1659 17.1667 15.1989 17.5018 15.1346 17.8252C15.0703 18.1485 14.9116 18.4454 14.6785 18.6785C14.4454 18.9116 14.1485 19.0703 13.8251 19.1346C13.5018 19.199 13.1667 19.1659 12.8622 19.0398C12.5577 18.9137 12.2974 18.7 12.1142 18.426C11.9311 18.1519 11.8333 17.8296 11.8333 17.5C11.8333 17.058 12.0089 16.6341 12.3215 16.3215C12.634 16.0089 13.058 15.8333 13.5 15.8333Z" fill="#58585B"/>
  <path d="M12.4342 9.23859L20.1792 16.637C20.2193 16.6753 20.267 16.7048 20.3193 16.7235L23.997 18.0423C24.0692 18.0682 24.1475 18.0726 24.2222 18.055C24.2969 18.0374 24.3649 17.9984 24.4179 17.9429C24.4709 17.8874 24.5067 17.8177 24.5209 17.7423C24.5351 17.6668 24.5271 17.5889 24.4979 17.5179L23.0123 13.9044C22.9911 13.8531 22.9595 13.8068 22.9194 13.7684L15.1744 6.37007C14.794 6.0067 14.2848 5.80933 13.7589 5.82137C13.233 5.83341 12.7334 6.05387 12.37 6.43426C12.0067 6.81465 11.8093 7.3238 11.8213 7.84972C11.8334 8.37563 12.0538 8.87522 12.4342 9.23859V9.23859ZM15.2514 9.73526L20.9884 15.2155L20.4404 15.7892L14.7034 10.309L15.2514 9.73526ZM22.5105 14.7708L22.8406 15.5738L21.9791 16.4757L21.1618 16.1827L22.5105 14.7708ZM21.5365 14.6418L15.7994 9.16156L16.3475 8.58786L22.0845 14.0681L21.5365 14.6418ZM14.1297 9.76094L13.8428 9.48693L15.4869 7.76581L15.7738 8.03983L14.1297 9.76094ZM22.7964 16.7687L23.1707 16.3769L23.4247 16.9942L22.7964 16.7687ZM14.6263 6.94377L14.9132 7.21779L13.2691 8.9389L12.9823 8.66488C12.754 8.44686 12.6217 8.14711 12.6145 7.83156C12.6073 7.51601 12.7257 7.21052 12.9437 6.98229C13.1618 6.75405 13.4615 6.62178 13.7771 6.61455C14.0926 6.60733 14.3981 6.72575 14.6263 6.94377Z" fill="#58585B"/>
</svg>
