<svg width="32" height="42" viewBox="0 0 32 42" fill="none" xmlns="http://www.w3.org/2000/svg">
  <path d="M15.802 0C7.07479 0 0 7.15253 0 15.9756C0 19.7245 1.27725 23.1718 3.4158 25.897C7.34601 30.9053 13.0618 34.9162 15.3586 40.8537L15.802 42L16.2454 40.8537C18.5422 34.9162 24.2579 30.9053 28.1882 25.897C30.3267 23.1718 31.604 19.7245 31.604 15.9756C31.604 7.15253 24.5292 0 15.802 0Z" fill="#58585B"/>
  <ellipse cx="15.802" cy="15.802" rx="13.3069" ry="13.3069" fill="white"/>
  <path d="M11.6979 21.112C11.3152 21.112 10.9932 20.9813 10.7319 20.72C10.4706 20.4587 10.3399 20.132 10.3399 19.74C10.3399 19.3387 10.4706 19.0167 10.7319 18.774C10.9932 18.522 11.3152 18.396 11.6979 18.396C12.0806 18.396 12.4026 18.522 12.6639 18.774C12.9252 19.0167 13.0559 19.3387 13.0559 19.74C13.0559 20.132 12.9252 20.4587 12.6639 20.72C12.4026 20.9813 12.0806 21.112 11.6979 21.112ZM15.502 21.112C15.1193 21.112 14.7973 20.9813 14.536 20.72C14.2746 20.4587 14.144 20.132 14.144 19.74C14.144 19.3387 14.2746 19.0167 14.536 18.774C14.7973 18.522 15.1193 18.396 15.502 18.396C15.8846 18.396 16.2066 18.522 16.468 18.774C16.7293 19.0167 16.86 19.3387 16.86 19.74C16.86 20.132 16.7293 20.4587 16.468 20.72C16.2066 20.9813 15.8846 21.112 15.502 21.112ZM19.306 21.112C18.9234 21.112 18.6014 20.9813 18.34 20.72C18.0787 20.4587 17.948 20.132 17.948 19.74C17.948 19.3387 18.0787 19.0167 18.34 18.774C18.6014 18.522 18.9234 18.396 19.306 18.396C19.6887 18.396 20.0107 18.522 20.272 18.774C20.5334 19.0167 20.664 19.3387 20.664 19.74C20.664 20.132 20.5334 20.4587 20.272 20.72C20.0107 20.9813 19.6887 21.112 19.306 21.112Z" fill="#58585B"/>
</svg>
