<svg width="32" height="42" viewBox="0 0 32 42" fill="none" xmlns="http://www.w3.org/2000/svg">
  <path d="M15.802 0C7.07479 0 0 7.15253 0 15.9756C0 19.7245 1.27725 23.1718 3.4158 25.897C7.34601 30.9053 13.0618 34.9162 15.3586 40.8537L15.802 42L16.2454 40.8537C18.5422 34.9162 24.2579 30.9053 28.1882 25.897C30.3267 23.1718 31.604 19.7245 31.604 15.9756C31.604 7.15253 24.5292 0 15.802 0Z" fill="#58585B"/>
  <ellipse cx="15.802" cy="15.802" rx="13.3069" ry="13.3069" fill="white"/>
  <path d="M8.98806 13.456H7.19606V12.4H12.0761V13.456H10.2841V18H8.98806V13.456ZM16.8854 15.088C17.2054 15.1893 17.456 15.36 17.6374 15.6C17.8187 15.8347 17.9094 16.1253 17.9094 16.472C17.9094 16.9627 17.7174 17.3413 17.3334 17.608C16.9547 17.8693 16.4 18 15.6694 18H12.7734V12.4H15.5094C16.192 12.4 16.7147 12.5307 17.0774 12.792C17.4454 13.0533 17.6294 13.408 17.6294 13.856C17.6294 14.128 17.5627 14.3707 17.4294 14.584C17.3014 14.7973 17.12 14.9653 16.8854 15.088ZM14.0614 13.376V14.696H15.3494C15.6694 14.696 15.912 14.64 16.0774 14.528C16.2427 14.416 16.3254 14.2507 16.3254 14.032C16.3254 13.8133 16.2427 13.6507 16.0774 13.544C15.912 13.432 15.6694 13.376 15.3494 13.376H14.0614ZM15.5734 17.024C15.9147 17.024 16.1707 16.968 16.3414 16.856C16.5174 16.744 16.6054 16.5707 16.6054 16.336C16.6054 15.872 16.2614 15.64 15.5734 15.64H14.0614V17.024H15.5734ZM18.8906 12.4H21.4346C22.0426 12.4 22.5786 12.5173 23.0426 12.752C23.5119 12.9813 23.8746 13.3067 24.1306 13.728C24.3919 14.1493 24.5226 14.64 24.5226 15.2C24.5226 15.76 24.3919 16.2507 24.1306 16.672C23.8746 17.0933 23.5119 17.4213 23.0426 17.656C22.5786 17.8853 22.0426 18 21.4346 18H18.8906V12.4ZM21.3706 16.936C21.9306 16.936 22.3759 16.7813 22.7066 16.472C23.0426 16.1573 23.2106 15.7333 23.2106 15.2C23.2106 14.6667 23.0426 14.2453 22.7066 13.936C22.3759 13.6213 21.9306 13.464 21.3706 13.464H20.1866V16.936H21.3706Z" fill="#58585B"/>
</svg>
