<svg width="32" height="42" viewBox="0 0 32 42" fill="none" xmlns="http://www.w3.org/2000/svg">
  <path d="M15.802 0C7.07479 0 0 7.15253 0 15.9756C0 19.7245 1.27725 23.1718 3.4158 25.897C7.34601 30.9053 13.0618 34.9162 15.3586 40.8537L15.802 42L16.2454 40.8537C18.5422 34.9162 24.2579 30.9053 28.1882 25.897C30.3267 23.1718 31.604 19.7245 31.604 15.9756C31.604 7.15253 24.5292 0 15.802 0Z" fill="#58585B"/>
  <ellipse cx="15.802" cy="15.802" rx="13.3069" ry="13.3069" fill="white"/>
  <path d="M16 9C13.7977 9 12.0056 10.8433 12.0056 13.1085C12.0056 13.7559 12.5175 14.2824 13.1469 14.2824C13.7764 14.2824 14.2883 13.7559 14.2883 13.1085C14.2883 12.1376 15.0561 11.3479 16 11.3479C16.9444 11.3479 17.7117 12.1376 17.7117 13.1085C17.7117 13.9011 17.1944 14.5997 16.4517 14.8078C15.5138 15.0711 14.8587 15.9008 14.8587 16.8261V18.1958C14.8587 18.8432 15.3705 19.3703 16 19.3703C16.6289 19.3703 17.1413 18.8432 17.1413 18.1958V17.0477C18.8262 16.5313 19.9949 14.9265 19.9949 13.1096C19.9949 10.8433 18.2023 9 16 9Z" fill="#58585B"/>
  <path d="M16 22.5C16.6303 22.5 17.1413 21.9744 17.1413 21.326C17.1413 20.6777 16.6303 20.1521 16 20.1521C15.3696 20.1521 14.8586 20.6777 14.8586 21.326C14.8586 21.9744 15.3696 22.5 16 22.5Z" fill="#58585B"/>
</svg>
