<svg width="32" height="42" viewBox="0 0 32 42" fill="none" xmlns="http://www.w3.org/2000/svg">
  <path d="M15.802 0C7.07479 0 0 7.15253 0 15.9756C0 19.7245 1.27725 23.1718 3.4158 25.897C7.34601 30.9053 13.0618 34.9162 15.3586 40.8537L15.802 42L16.2454 40.8537C18.5422 34.9162 24.2579 30.9053 28.1882 25.897C30.3267 23.1718 31.604 19.7245 31.604 15.9756C31.604 7.15253 24.5292 0 15.802 0Z" fill="#58585B"/>
  <ellipse cx="15.802" cy="15.802" rx="13.3069" ry="13.3069" fill="white"/>
  <path d="M19.4673 9.07763L23.1032 20.2315C23.1979 20.5156 23.0275 20.8186 22.7813 20.9133L13.3317 23.9811C13.2749 24 13.2181 24 13.1613 24C12.9341 24 12.7258 23.8674 12.65 23.6402L9.03303 12.4674C8.97622 12.3159 8.99516 12.1644 9.07091 12.0318L12.4038 6.27495C12.5553 6.02877 12.8394 5.93408 13.0856 6.0477L19.1833 8.7557C19.3158 8.81251 19.4295 8.92613 19.4673 9.07763Z" fill="#58585B"/>
  <path d="M14.1627 10.4875C14.6401 10.3323 14.9013 9.81947 14.7462 9.34206C14.591 8.86464 14.0782 8.60341 13.6008 8.75859C13.1233 8.91376 12.8621 9.42657 13.0173 9.90399C13.1725 10.3814 13.6853 10.6426 14.1627 10.4875Z" fill="white"/>
  <path d="M16.2669 15.3073L15.6988 13.584C16.1722 13.4515 16.6646 13.6976 16.8161 14.1711C16.9108 14.4551 17.2138 14.6066 17.4789 14.5119C17.763 14.4172 17.9144 14.1143 17.8198 13.8491C17.4789 12.8265 16.3806 12.2584 15.358 12.5804L15.1307 11.8607C15.036 11.5767 14.733 11.4252 14.4679 11.5199C14.1839 11.6146 14.0324 11.9176 14.127 12.1827L14.3543 12.9023C13.8619 13.0727 13.4642 13.4136 13.237 13.8681C12.9908 14.3415 12.9529 14.8717 13.1234 15.3641C13.2938 15.8565 13.6347 16.2731 14.1081 16.5193C14.5626 16.7465 15.0928 16.8033 15.5852 16.6518L16.1533 18.3751C15.6799 18.5076 15.1875 18.2615 15.036 17.788C14.9413 17.504 14.6383 17.3525 14.3732 17.4472C14.0892 17.5419 13.9377 17.8448 14.0324 18.11C14.2975 18.9432 15.0739 19.4734 15.9071 19.4734C16.0965 19.4734 16.3048 19.4356 16.4942 19.3787L16.7214 20.0984C16.7972 20.3256 17.0055 20.4582 17.2327 20.4582C17.2895 20.4582 17.3463 20.4582 17.4031 20.4392C17.6872 20.3445 17.8387 20.0415 17.744 19.7764L17.5168 19.0568C18.5394 18.7159 19.0885 17.5987 18.7666 16.5761C18.4068 15.5345 17.3085 14.9854 16.2669 15.3073ZM14.6005 15.5535C14.3922 15.4398 14.2217 15.2505 14.146 15.0232C14.0702 14.796 14.0892 14.5498 14.2028 14.3226C14.3164 14.1143 14.4868 13.9628 14.7141 13.887L15.2822 15.6103C15.036 15.686 14.8088 15.6671 14.6005 15.5535ZM17.157 18.0342L16.5889 16.3109C17.0623 16.1784 17.5546 16.4246 17.7061 16.898C17.8766 17.3714 17.6304 17.8638 17.157 18.0342Z" fill="white"/>
</svg>
