<svg  data-name="Layer 1" xmlns="http://www.w3.org/2000/svg" viewBox="0 0 144 144"><title>calender</title><rect x="28.4" y="36.55" width="87.2" height="81.92" fill="none" stroke="#0c1f2e" stroke-linecap="round" stroke-miterlimit="10" stroke-width="2.87"/><line x1="28.4" y1="50.44" x2="115.6" y2="50.44" fill="none" stroke="#0c1f2e" stroke-linecap="round" stroke-miterlimit="10" stroke-width="2.87"/><rect x="34.65" y="57.23" width="13.68" height="13.68" fill="none" stroke="#0c1f2e" stroke-linecap="round" stroke-miterlimit="10" stroke-width="2.87"/><rect x="54.99" y="57.23" width="13.68" height="13.68" fill="none" stroke="#0c1f2e" stroke-linecap="round" stroke-miterlimit="10" stroke-width="2.87"/><rect x="75.33" y="57.23" width="13.68" height="13.68" fill="none" stroke="#0c1f2e" stroke-linecap="round" stroke-miterlimit="10" stroke-width="2.87"/><rect x="95.68" y="57.23" width="13.68" height="13.68" fill="none" stroke="#0c1f2e" stroke-linecap="round" stroke-miterlimit="10" stroke-width="2.87"/><rect x="34.65" y="76.88" width="13.68" height="13.68" fill="#0c1f2e" stroke="#0c1f2e" stroke-linecap="round" stroke-miterlimit="10" stroke-width="2.87"/><rect x="54.99" y="76.88" width="13.68" height="13.68" fill="#0c1f2e" stroke="#0c1f2e" stroke-linecap="round" stroke-miterlimit="10" stroke-width="2.87"/><rect x="75.33" y="76.88" width="13.68" height="13.68" fill="none" stroke="#0c1f2e" stroke-linecap="round" stroke-miterlimit="10" stroke-width="2.87"/><rect x="95.68" y="76.88" width="13.68" height="13.68" fill="none" stroke="#0c1f2e" stroke-linecap="round" stroke-miterlimit="10" stroke-width="2.87"/><rect x="34.65" y="96.53" width="13.68" height="13.68" fill="none" stroke="#0c1f2e" stroke-linecap="round" stroke-miterlimit="10" stroke-width="2.87"/><rect x="54.99" y="96.53" width="13.68" height="13.68" fill="none" stroke="#0c1f2e" stroke-linecap="round" stroke-miterlimit="10" stroke-width="2.87"/><rect x="75.33" y="96.53" width="13.68" height="13.68" fill="none" stroke="#0c1f2e" stroke-linecap="round" stroke-miterlimit="10" stroke-width="2.87"/><rect x="53.83" y="25.53" width="5.68" height="17.98" fill="none" stroke="#0c1f2e" stroke-linecap="round" stroke-miterlimit="10" stroke-width="2.87"/><rect x="84.5" y="25.53" width="5.68" height="17.98" fill="none" stroke="#0c1f2e" stroke-linecap="round" stroke-miterlimit="10" stroke-width="2.87"/></svg>
