<svg id="Layer_1" data-name="Layer 1" xmlns="http://www.w3.org/2000/svg" viewBox="0 0 144 144"><path d="M22.17,26.59v76.05H10.68v1.5a13.33,13.33,0,0,0,13,13.27l96.25,0a13.08,13.08,0,0,0,13.23-12.87l.17-77.9Zm1.52,87.82a10.3,10.3,0,0,1-9.9-8.77l93,0a13,13,0,0,0,4.56,8.69Zm106.46-9.93a10.07,10.07,0,0,1-10.23,9.88,9.88,9.88,0,0,1-10.24-10.19v-1.5l-84.51,0v-73H130.31Z" fill="#0d202e"/><path d="M130.31,29.59l-.16,74.89a10.07,10.07,0,0,1-10.23,9.88,9.88,9.88,0,0,1-10.24-10.19v-1.5l-84.51,0v-73Z" fill="#fff"/><path d="M111.31,114.36l-87.62,0a10.3,10.3,0,0,1-9.9-8.77l93,0A13,13,0,0,0,111.31,114.36Z" fill="#fff"/><rect x="72.15" y="40.53" width="47" height="3" fill="#0d202e"/><rect x="72.15" y="52.53" width="47" height="3" fill="#0d202e"/><rect x="72.15" y="64.53" width="47" height="3" fill="#0d202e"/><rect x="72.15" y="76.53" width="47" height="3" fill="#0d202e"/><rect x="72.15" y="88.53" width="47" height="3" fill="#0d202e"/><circle cx="49.36" cy="55.53" r="14.48" fill="#fff" stroke="#0f1f2d" stroke-miterlimit="10" stroke-width="3"/><rect x="44.93" y="50.6" width="2.16" height="15.47" transform="translate(54.72 -15.45) rotate(45)" fill="#0d202e"/><rect x="50" y="46.88" width="5.11" height="8.56" transform="translate(-20.78 52.15) rotate(-45)" fill="#0d202e"/><rect x="46.32" y="46.8" width="5.11" height="1.22" transform="translate(-19.21 48.45) rotate(-45)" fill="#0d202e"/><rect x="53.7" y="54.26" width="5.11" height="1.22" transform="translate(-22.32 55.85) rotate(-45)" fill="#0d202e"/></svg>