<svg  data-name="Layer 1" xmlns="http://www.w3.org/2000/svg" viewBox="0 0 144 144"><title>city council question</title><circle cx="66.52" cy="70.55" r="46.57" fill="#fff"/><path d="M66.47,118.62a48.07,48.07,0,1,1,48.11-48A48.13,48.13,0,0,1,66.47,118.62Zm.09-93.14a45.07,45.07,0,1,0,45,45.11A45.12,45.12,0,0,0,66.56,25.48Z" fill="#111f2d"/><circle cx="66.58" cy="70.45" r="40.8" fill="#fff" stroke="#0f1f2d" stroke-miterlimit="10" stroke-width="3"/><rect x="54.07" y="56.53" width="6.09" height="43.59" transform="translate(72.2 -17.43) rotate(45.05)" fill="#0d202e"/><rect x="68.4" y="46.07" width="14.41" height="24.12" transform="translate(-18.97 70.4) rotate(-44.95)" fill="#0d202e"/><rect x="58.02" y="45.85" width="14.41" height="3.43" transform="translate(-14.54 59.98) rotate(-44.95)" fill="#0d202e"/><rect x="78.81" y="66.89" width="14.41" height="3.43" transform="translate(-23.33 80.82) rotate(-44.95)" fill="#0d202e"/><circle cx="105.57" cy="101.53" r="18.48" fill="#fff"/><path d="M105.55,121.52a20,20,0,1,1,14.13-5.84A19.85,19.85,0,0,1,105.55,121.52Zm0-37a17,17,0,1,0,12,5A16.88,16.88,0,0,0,105.58,84.55Z" fill="#111f2d"/><path d="M98.87,98.54c.07-4.29,2.62-6.81,6.85-6.8,4,0,6.45,1.86,6.45,5.22,0,4.56-4.6,5.1-4.6,8.7H103.7c0-4.65,3.69-4.89,3.69-7.86,0-1.35-.8-2-2.15-2s-2.35.87-2.38,2.73Zm9.2,12a2.51,2.51,0,1,1-5,0,2.37,2.37,0,0,1,2.49-2.48A2.4,2.4,0,0,1,108.07,110.55Z" fill="#0f1f2d"/></svg>
