<svg id="Layer_1" data-name="Layer 1" xmlns="http://www.w3.org/2000/svg" viewBox="0 0 144 144"><title>half lemon</title><path d="M72,38.15A33.85,33.85,0,1,0,105.85,72,33.84,33.84,0,0,0,72,38.15Z" fill="#fff"/><path d="M49,66.82c3.21-.1,22.08,5.08,22.08,5.08s-18.48,6.44-21.69,6.55A5.82,5.82,0,0,1,49,66.82Z" fill="#0f1f2d" stroke="#fff" stroke-miterlimit="10" stroke-width="3"/><path d="M95,66.82c-3.21-.1-22.08,5.08-22.08,5.08s18.48,6.44,21.69,6.55A5.82,5.82,0,0,0,95,66.82Z" fill="#0f1f2d" stroke="#fff" stroke-miterlimit="10" stroke-width="3"/><path d="M66.19,94.89C66.19,91.67,72,73,72,73s5.81,18.68,5.81,21.9a5.81,5.81,0,0,1-11.62,0Z" fill="#0f1f2d" stroke="#fff" stroke-miterlimit="10" stroke-width="3"/><path d="M88.71,89c-1.62-2.77-16-16-16-16s4.37,19.07,6,21.84a5.81,5.81,0,1,0,10-5.85Z" fill="#0f1f2d" stroke="#fff" stroke-miterlimit="10" stroke-width="3"/><path d="M94.74,78.13c-2.81-1.55-22-5.5-22-5.5S86.3,86.76,89.11,88.31a5.82,5.82,0,0,0,5.63-10.18Z" fill="#0f1f2d" stroke="#fff" stroke-miterlimit="10" stroke-width="3"/><path d="M55.29,89c1.62-2.77,16-16,16-16S67,92.1,65.34,94.87A5.81,5.81,0,0,1,55.29,89Z" fill="#0f1f2d" stroke="#fff" stroke-miterlimit="10" stroke-width="3"/><path d="M49.26,78.13c2.81-1.55,22-5.5,22-5.5S57.7,86.76,54.89,88.31a5.82,5.82,0,0,1-5.63-10.18Z" fill="#0f1f2d" stroke="#fff" stroke-miterlimit="10" stroke-width="3"/><path d="M77.81,49.11C77.81,52.33,72,71,72,71s-5.81-18.68-5.81-21.9a5.81,5.81,0,0,1,11.62,0Z" fill="#0f1f2d" stroke="#fff" stroke-miterlimit="10" stroke-width="3"/><path d="M55.29,55c1.62,2.77,16,16,16,16S67,51.9,65.34,49.13A5.81,5.81,0,1,0,55.29,55Z" fill="#0f1f2d" stroke="#fff" stroke-miterlimit="10" stroke-width="3"/><path d="M49.26,65.87c2.81,1.55,22,5.5,22,5.5S57.7,57.24,54.89,55.69a5.82,5.82,0,0,0-5.63,10.18Z" fill="#0f1f2d" stroke="#fff" stroke-miterlimit="10" stroke-width="3"/><path d="M88.71,55c-1.62,2.77-16,16-16,16s4.37-19.07,6-21.84a5.81,5.81,0,1,1,10,5.85Z" fill="#0f1f2d" stroke="#fff" stroke-miterlimit="10" stroke-width="3"/><path d="M94.74,65.87c-2.81,1.55-22,5.5-22,5.5S86.3,57.24,89.11,55.69a5.82,5.82,0,0,1,5.63,10.18Z" fill="#0f1f2d" stroke="#fff" stroke-miterlimit="10" stroke-width="3"/><circle cx="72" cy="72.64" r="3.95" fill="#0f1f2d"/><path d="M72,110.5C51.79,110.5,33.5,92.2,33.5,72S51.79,33.5,72,33.5,110.5,51.79,110.5,72,92.2,110.5,72,110.5Zm0-69.57A31.07,31.07,0,1,0,103.07,72,31.1,31.1,0,0,0,72,40.93Z" fill="#fff" stroke="#0f1f2d" stroke-miterlimit="10" stroke-width="3"/></svg>