<?xml version="1.0" encoding="UTF-8" standalone="no"?>
<svg xmlns:dc="http://purl.org/dc/elements/1.1/" xmlns:cc="http://creativecommons.org/ns#" xmlns:rdf="http://www.w3.org/1999/02/22-rdf-syntax-ns#" xmlns:svg="http://www.w3.org/2000/svg" xmlns="http://www.w3.org/2000/svg" id="svg4" version="1.1" viewBox="0 0 24 24" height="24" width="24">
  <metadata id="metadata10">
    <rdf:RDF>
      <cc:Work rdf:about="">
        <dc:format>image/svg+xml</dc:format>
        <dc:type rdf:resource="http://purl.org/dc/dcmitype/StillImage" />
        <dc:title></dc:title>
      </cc:Work>
    </rdf:RDF>
  </metadata>
  <defs id="defs8" />
  <path style="fill:#ffffff;fill-opacity:1" id="path2" d="M22 2v20h-20v-20h20zm2-2h-24v24h24v-24zm-4 7h-8v1h8v-1zm0 5h-8v1h8v-1zm0 5h-8v1h8v-1zm-10.516-11.304l-.71-.696-2.553 2.607-1.539-1.452-.698.71 2.25 2.135 3.25-3.304zm0 5l-.71-.696-2.552 2.607-1.539-1.452-.698.709 2.249 2.136 3.25-3.304zm0 5l-.71-.696-2.552 2.607-1.539-1.452-.698.709 2.249 2.136 3.25-3.304z" fill="#787878" />
</svg>
