<?xml version="1.0" encoding="utf-8"?>
<!-- Generator: Adobe Illustrator 18.1.1, SVG Export Plug-In . SVG Version: 6.00 Build 0)  -->
<svg version="1.1" id="Layer_1" xmlns="http://www.w3.org/2000/svg" xmlns:xlink="http://www.w3.org/1999/xlink" x="0px" y="0px"
	 viewBox="0 0 1280 800" enable-background="new 0 0 1280 800" xml:space="preserve">
<line fill="none" stroke="#000000" stroke-width="4" stroke-miterlimit="10" x1="382" y1="508.3" x2="590" y2="659.4"/>
<rect x="407" y="665.2" fill="#FFFFFF" stroke="#000000" stroke-width="4" stroke-miterlimit="10" width="22.7" height="64"/>
<rect x="877.7" y="665.2" fill="#FFFFFF" stroke="#000000" stroke-width="4" stroke-miterlimit="10" width="22.7" height="64"/>
<rect x="-136.9" y="659.4" fill="#FFFFFF" stroke="#000000" stroke-width="4" stroke-miterlimit="10" width="1453.7" height="8.8"/>
<line fill="none" stroke="#000000" stroke-width="4" stroke-miterlimit="10" x1="382" y1="545.4" x2="501" y2="659.4"/>
<line fill="none" stroke="#000000" stroke-width="4" stroke-miterlimit="10" x1="825.9" y1="466.1" x2="535.3" y2="659.4"/>
<rect x="309.1" y="662.4" fill="#FFFFFF" stroke="#000000" stroke-width="4" stroke-miterlimit="10" width="13.5" height="43.2"/>
<polygon fill="#FFFFFF" stroke="#000000" stroke-width="4" stroke-miterlimit="10" points="381,556.6 381,455.2 368,439.3 
	355,455.2 355,558.6 308,647.9 308,723 331,723 331,653.5 369.1,581.3 403.6,658.9 429.8,658.7 "/>
<polygon fill="#FFFFFF" stroke="#000000" stroke-width="4" stroke-miterlimit="10" points="852,556.6 852,455.2 839,439.3 
	826,455.2 826,558.6 779,647.9 779,723 801,723 801,653.5 839.5,581.3 874.2,658.9 900.6,658.7 "/>
<path fill="#FFFFFF" stroke="#000000" stroke-width="4" stroke-linecap="round" stroke-miterlimit="10" d="M300.3,675.8
	c0.5,9,11.1,8.5,26.5,8.2c42.3-0.9,39.3-13,56.8-43.3c16.2-28,48.5-33.3,78.4-27.8c32.5,5.9,55.9,23.4,62.4,55.9
	c2.8,14,4.6,27.2,1.2,41.4c-3.5,14.7-22.9,41.1-20,53.9c0.5,2.1-45.9,11-52.2,12.3c-5.9-29.7,14.6-50.1,23.6-76.2
	c3.1-8.8,4.6-27.6,0.6-34.1c-8-16.5-36.8-29-52.2-21.8c-18.3,8.6-29.2,33.4-43.7,46.7c-9.9,9.1-32.4,13.1-45.6,14.6
	c-22.7,2.7-57.1-13-47.6-46.2"/>
<line fill="none" stroke="#000000" stroke-width="4" stroke-miterlimit="10" x1="825.9" y1="545.4" x2="706.9" y2="659.4"/>
<line fill="none" stroke="#000000" stroke-width="4" stroke-miterlimit="10" x1="852.7" y1="545.4" x2="971.7" y2="659.4"/>
<path fill="#FFFFFF" stroke="#000000" stroke-width="4" stroke-linecap="round" stroke-miterlimit="10" d="M306.2,610.1
	c2.5,13.6-0.1,26.5-4.4,39.3c-5.8,17.4,4.7,29,23.8,28.6c42.3-0.9,40.5-25.2,58.1-55.5c16.2-28,48.5-33.3,78.4-27.8
	c32.5,5.9,55.9,23.4,62.4,55.9c2.8,14,4.6,27.2,1.2,41.4c-3.5,14.7-22.9,41.1-20,53.9c0.5,2.1-45.9,11-52.2,12.3
	c-5.9-29.7,14.6-50.1,23.6-76.2c3.1-8.8,4.6-27.6,0.6-34.1c-8-16.5-45.1-25.4-60.4-18.2c-18.3,8.6-22.2,35.7-36.7,49
	c-9.9,9.1-22.9,13.4-36.1,14.9c-22.7,2.7-64-5.8-54.5-39c3.6-12.6,10.5-19.6,11.4-33.9c0.2-3.9-4.6-18.1-3.6-20
	C301.1,594.7,306.1,609.5,306.2,610.1z"/>
<line fill="none" stroke="#000000" stroke-width="4" stroke-miterlimit="10" x1="355.2" y1="466.1" x2="64.6" y2="659.4"/>
<line fill="none" stroke="#000000" stroke-width="4" stroke-miterlimit="10" x1="355.2" y1="508.3" x2="147.1" y2="659.4"/>
<line fill="none" stroke="#000000" stroke-width="4" stroke-miterlimit="10" x1="355.2" y1="545.4" x2="236.1" y2="659.4"/>
<line fill="none" stroke="#000000" stroke-width="4" stroke-miterlimit="10" x1="382" y1="466.1" x2="672.6" y2="659.4"/>
<line fill="none" stroke="#000000" stroke-width="4" stroke-miterlimit="10" x1="825.9" y1="508.3" x2="617.9" y2="659.4"/>
<line fill="none" stroke="#000000" stroke-width="4" stroke-miterlimit="10" x1="852.7" y1="466.1" x2="1056" y2="601.3"/>
<path fill="none" stroke="#000000" stroke-width="4" stroke-miterlimit="10" d="M1056,601.3c84.7,56.4,87.3,58.1,87.3,58.1"/>
<line fill="none" stroke="#000000" stroke-width="4" stroke-miterlimit="10" x1="852.7" y1="508.3" x2="1060.7" y2="659.4"/>
<path fill="#FFFFFF" stroke="#000000" stroke-width="4" stroke-linecap="round" stroke-miterlimit="10" d="M764.8,296.3
	c-8.9,1.8-17.4,4.4-25,7.9c-48.8,22-61.1,78.6-46.3,126.6c14.1,45.7,47,81.2,71.2,121.4c15.7,26.1,48.4,78.9,27.6,109.2
	c0.1-0.1,0.1-0.2,0.2-0.3c-19.2,25.7-61.4,18.2-89.1,26.1c-33.5,9.5-63.6,41.3-58.4,77.9c17.7-2.7,35.3-5.4,53-8.1
	c-2.6-10.2,13.4-19.6,21.3-22.4c23.5-8.5,48.9-7.9,71.9-18.7c46.5-21.8,55.9-67.1,38.5-113.2c-21.7-57.6-75.4-112.5-107.7-163.2
	c-23.9-37.6-39.3-76.4,0-110.3c15.1-13,42.3-23.4,69.1-24.1"/>
<path fill="#FFFFFF" stroke="#000000" stroke-width="4" stroke-linecap="round" stroke-miterlimit="10" d="M934.7,488.3
	C953,534.9,1072.7,481,1105,573c8.5,24.3-4,56.7-12.9,80c-8.6,22.7-19,45.2-31.4,66.2c-8.8,14.9-4.4,19.7-11.6,33.4
	c-15-9.5-45-27.8-60-37.4c13-17.9,33-29.3,48.1-45.2c13.9-14.6,25.5-31.4,34.2-49.4c6.6-13.7,15.7-34.7,10-48.3
	c-7.3-22.3-29.3-40.8-48.7-46c-20.4-5.5-67.2-10.9-86.5-18.1L934.7,488.3z"/>
<path fill="#FFFFFF" stroke="#000000" stroke-width="4" stroke-linecap="round" stroke-miterlimit="10" d="M843.2,332.1
	c-21.9-43-83.4-45.7-122.7-28c-48.8,22-61.1,78.6-46.3,126.6c14.1,45.7,47,81.2,71.2,121.4C761,578.2,793.7,631,773,661.3
	c0.1-0.1,0.1-0.2,0.2-0.3c-19.2,25.7-61.4,18.2-89.1,26.1c-33.5,9.5-63.6,41.3-58.4,77.9c17.7-2.7,35.3-5.4,53-8.1
	c-2.6-10.2,13.4-19.6,21.3-22.4c23.5-8.5,48.9-7.9,71.9-18.7c46.5-21.8,55.9-67.1,38.5-113.2c-21.7-57.6-65-97.2-97.3-147.9
	c-23.9-37.6-39.3-94-0.1-127.9c24.9-21.5,68.4-28.2,98.6-15.3c6.2,2.6,11.8,6.4,16.6,11c3.1,2.9,8.1,13.7,11.7,15.1
	C844.4,339.3,847.2,337.2,843.2,332.1z"/>
<path fill="#FFFFFF" stroke="#000000" stroke-width="4" stroke-linecap="round" stroke-miterlimit="10" d="M928.2,463
	c0.5,0.3,1,0.7,1.3,1.1c7.9,11.2,4.4,25.1,15.7,34.8c7.7,6.6,18,9,28.1,10.4c18.6,2.5,36.8,6.4,54.9,11.5
	c24.9,7,51.9,18.8,60.6,45.4c8.1,24.8,0,53.3-8.9,77c-8.6,23-21,44.7-36.3,63.9c-9.7,12.2-23.7,22.8-30.9,36.7
	c-15-9.7-47.7-9.1-62.7-18.8c19.2-15.1,50.6-39.9,65.8-56.1c13.9-14.8,25.5-31.8,34.2-50.2c6.6-13.9,15.7-35.2,10-49
	c-5.4-16.8-19.8-30-35.5-34.7c-23-6.9-53.4-6.7-74.3-18.9c-17-9.9-31.6-30.2-26-50.6c0.3-1,0.6-2,1.5-2.6
	C926.4,462.5,927.4,462.5,928.2,463z"/>
<g>
	<path fill="#FFFFFF" d="M1301.2,723.9c-10.7-0.8-10.4-6.7-21.1-6.7c-10.7,0-10.7,6.6-21.4,6.6c-10.7,0-10.7-6.7-21.4-6.7
		c-10.7,0-10.7,6.6-21.4,6.6c-10.7,0-10.7-6.7-21.4-6.7c-10.7,0-10.7,6.6-21.4,6.6c-10.7,0-10.7-6.7-21.4-6.7
		c-10.7,0-10.7,6.6-21.4,6.6c-10.7,0-10.7-6.7-21.4-6.7c-10.7,0-10.7,6.6-21.4,6.6c-10.7,0-10.7-6.7-21.4-6.7
		c-10.7,0-10.7,6.6-21.4,6.6c-10.7,0-10.7-6.7-21.4-6.7c-10.7,0-10.7,6.6-21.4,6.6c-10.7,0-10.7-6.7-21.4-6.7
		c-10.7,0-10.7,6.6-21.4,6.6c-10.7,0-10.7-6.7-21.4-6.7c-10.7,0-10.7,6.6-21.4,6.6c-10.7,0-10.7-6.7-21.4-6.7
		c-10.7,0-10.7,6.6-21.4,6.6c-10.7,0-10.7-6.7-21.4-6.7c-10.7,0-10.7,6.6-21.4,6.6c-10.7,0-10.7-6.7-21.4-6.7
		c-10.7,0-10.7,6.6-21.4,6.6c-10.7,0-10.7-6.7-21.4-6.7c-10.7,0-10.7,6.6-21.4,6.6c-10.7,0-10.7-6.7-21.4-6.7
		c-10.7,0-10.7,6.6-21.4,6.6c-10.7,0-10.7-6.7-21.4-6.7c-10.7,0-10.7,6.6-21.4,6.6c-10.7,0-10.7-6.7-21.4-6.7
		c-10.7,0-10.7,6.6-21.4,6.6c-10.7,0-10.7-6.7-21.4-6.7c-10.7,0-10.7,6.6-21.4,6.6c-10.7,0-10.7-6.7-21.4-6.7
		c-10.7,0-10.7,6.6-21.4,6.6c-10.7,0-10.7-6.7-21.4-6.7c-10.7,0-10.7,6.6-21.4,6.6c-10.7,0-10.7-6.7-21.4-6.7
		c-10.7,0-10.7,6.6-21.4,6.6c-10.7,0-10.7-6.7-21.4-6.7c-10.7,0-10.7,6.6-21.4,6.6c-10.7,0-10.7-6.7-21.4-6.7
		c-10.7,0-10.7,6.6-21.4,6.6c-10.7,0-10.7-6.7-21.4-6.7c-10.7,0-10.7,6.6-21.4,6.6c-10.7,0-10.7-6.7-21.4-6.7
		c-10.7,0-10.7,6.6-21.4,6.6c-10.7,0-10.7-6.7-21.4-6.7c-10.7,0-10.7,6.6-21.4,6.6c-10.7,0-10.7-6.7-21.4-6.7
		c-10.7,0-10.7,6.6-21.4,6.6c-10.7,0-10.7-6.7-21.4-6.7c-10.7,0-10.7,6.6-21.4,6.6c-10.7,0-10.7-6.7-21.4-6.7
		c-10.7,0-10.7,6.6-21.4,6.6c-10.7,0-10.7-6.7-21.4-6.7c-10.7,0-10.7,6.6-21.4,6.6c-10.7,0-10.7-6.7-21.4-6.7
		c-10.7,0-10.7,6.6-21.4,6.6c-10.7,0-10.7-6.7-21.4-6.7s-10.5,5.8-21.2,6.6c-0.8,0.1-3.6-2.5-3.6-1.7c0,0.8,6.7,0.8,6.7,1.6
		c0,0.8-6.7,0.8-6.7,1.6c0,0.8,6.7,0.8,6.7,1.6c0,0.8-6.7,0.8-6.7,1.6c0,0.8,6.7,0.8,6.7,1.6c0,0.8-6.7,0.8-6.7,1.6
		c0,0.8,6.7,0.8,6.7,1.6c0,0.8-6.7,0.8-6.7,1.6c0,0.8,6.7,0.8,6.7,1.6s-6.7,0.8-6.7,1.6c0,0.8,6.7,0.8,6.7,1.6
		c0,0.8-6.7,0.8-6.7,1.6c0,0.8,6.7,0.8,6.7,1.6c0,0.8-6.7,0.8-6.7,1.6c0,0.8,6.7,0.8,6.7,1.6c0,0.8-6.7,0.8-6.7,1.6
		c0,0.8,6.7,0.8,6.7,1.6c0,0.8-6.7,0.8-6.7,1.6c0,0.8,6.7,0.8,6.7,1.6c0,0.8-6.7,0.8-6.7,1.6c0,0.8,6.7,0.8,6.7,1.6
		c0,0.8-6.7,0.8-6.7,1.6c0,0.8,6.7,0.8,6.7,1.6c0,0.8-6.7,0.8-6.7,1.6c0,0.8,6.7,0.8,6.7,1.6c0,0.8-6.7,0.8-6.7,1.6
		c0,0.8,6.7,0.8,6.7,1.6c0,0.8-6.7,0.8-6.7,1.6c0,0.8,6.7,0.8,6.7,1.6c0,0.8-6.7,0.8-6.7,1.6c0,0.8,6.7,0.8,6.7,1.6
		c0,0.8-6.7,0.8-6.7,1.6c0,0.8,6.7,0.8,6.7,1.6c0,0.8-6.7,0.8-6.7,1.6c0,0.8,6.7,0.8,6.7,1.6c0,0.8-6.7,0.8-6.7,1.6
		c0,0.8,6.7,0.8,6.7,1.6c0,0.8-6.7,0.8-6.7,1.6c0,0.8,6.7,0.8,6.7,1.6c0,0.8-6.7,0.8-6.7,1.6c0,0.8,6.7,0.8,6.7,1.6
		c0,0.8-6.7,0.8-6.7,1.6c0,0.8,6.7,0.8,6.7,1.6c0,0.8-6.7,0.8-6.7,1.6c0,0.8,6.7,0.8,6.7,1.6c0,0.8-6.7,0.8-6.7,1.6
		c0,0.8,6.7,0.8,6.7,1.6c0,0.8-6.7,0.8-6.7,1.6c0,0.8,6.7,0.8,6.7,1.6c0,0.8-6.7,0.8-6.7,1.6c0,0.8,6.7,0.8,6.7,1.6
		c0,0.8-6.7,0.8-6.7,1.6s6.7,0.8,6.7,1.6c0,0.8-6.7,0.8-6.7,1.6c0,0.8,6.7,0.8,6.7,1.6c0,0.8-6.7,0.8-6.7,1.6c0,0.8,6.7,0.8,6.7,1.6
		c0,0.8-6.7,0.8-6.7,1.6c0,0.8,6.7,0.8,6.7,1.6c0,0.8-6.7,0.8-6.7,1.6s2.8-1.8,3.6-1.7c10.7,0.8,10.5,6.6,21.2,6.6
		c10.7,0,10.7-6.7,21.5-6.7c10.7,0,10.7,6.7,21.5,6.7c10.7,0,10.7-6.7,21.5-6.7c10.7,0,10.7,6.7,21.5,6.7c10.7,0,10.7-6.7,21.5-6.7
		c10.7,0,10.7,6.7,21.5,6.7c10.7,0,10.7-6.7,21.5-6.7c10.7,0,10.7,6.7,21.5,6.7c10.7,0,10.7-6.7,21.5-6.7c10.7,0,10.7,6.7,21.5,6.7
		c10.7,0,10.7-6.7,21.5-6.7c10.7,0,10.7,6.7,21.5,6.7c10.7,0,10.7-6.7,21.5-6.7c10.7,0,10.7,6.7,21.5,6.7c10.7,0,10.7-6.7,21.5-6.7
		c10.7,0,10.7,6.7,21.5,6.7c10.7,0,10.7-6.7,21.5-6.7c10.7,0,10.7,6.7,21.5,6.7c10.7,0,10.7-6.7,21.5-6.7c10.7,0,10.7,6.7,21.5,6.7
		c10.7,0,10.7-6.7,21.5-6.7c10.7,0,10.7,6.7,21.5,6.7c10.7,0,10.7-6.7,21.5-6.7c10.7,0,10.7,6.7,21.5,6.7c10.7,0,10.7-6.7,21.5-6.7
		c10.7,0,10.7,6.7,21.5,6.7c10.7,0,10.7-6.7,21.5-6.7c10.7,0,10.7,6.7,21.5,6.7c10.7,0,10.7-6.7,21.5-6.7c10.7,0,10.7,6.7,21.5,6.7
		c10.7,0,10.7-6.7,21.5-6.7c10.7,0,10.7,6.7,21.5,6.7c10.7,0,10.7-6.7,21.5-6.7c10.7,0,10.7,6.7,21.5,6.7c10.7,0,10.7-6.7,21.5-6.7
		c10.7,0,10.7,6.7,21.5,6.7c10.7,0,10.7-6.7,21.5-6.7c10.7,0,10.7,6.7,21.5,6.7c10.7,0,10.7-6.7,21.5-6.7c10.7,0,10.7,6.7,21.5,6.7
		c10.7,0,10.7-6.7,21.5-6.7c10.7,0,10.7,6.7,21.5,6.7c10.7,0,10.7-6.7,21.5-6.7c10.7,0,10.7,6.7,21.5,6.7c10.7,0,10.7-6.7,21.5-6.7
		c10.7,0,10.7,6.7,21.5,6.7c10.7,0,10.7-6.7,21.5-6.7c10.7,0,10.7,6.7,21.5,6.7c10.7,0,10.7-6.7,21.5-6.7c10.7,0,10.7,6.7,21.5,6.7
		c10.7,0,10.7-6.7,21.5-6.7c10.7,0,10.7,6.7,21.5,6.7c10.7,0,10.7-6.7,21.5-6.7c10.7,0,10.7,6.7,21.5,6.7c10.7,0,10.7-6.7,21.5-6.7
		c10.7,0,10.7,6.7,21.5,6.7s10.7-6.7,21.5-6.7c10.7,0,10.7,6.7,21.5,6.7c10.7,0,10.7-6.7,21.5-6.7c10.7,0,10.7,6.7,21.5,6.7
		c10.7,0,10.5-5.9,21.2-6.7c0.8-0.1,3.5,2.3,3.5,1.6c0-0.8-6.7-0.4-6.7-1.2c0-0.8,6.6-1.2,6.6-2c0-0.8-6.7-0.4-6.7-1.2
		c0-0.8,6.6-1.2,6.6-2c0-0.8-6.7-0.4-6.7-1.2c0-0.8,6.6-1.2,6.6-2c0-0.8-6.7-0.4-6.7-1.2c0-0.8,6.6-1.2,6.6-2c0-0.8-6.7-0.4-6.7-1.2
		c0-0.8,6.6-1.2,6.6-2c0-0.8-6.7-0.4-6.7-1.2c0-0.8,6.6-1.2,6.6-2c0-0.8-6.7-0.4-6.7-1.2c0-0.8,6.6-1.2,6.6-2c0-0.8-6.7-0.4-6.7-1.2
		c0-0.8,6.6-1.2,6.6-2c0-0.8-6.7-0.4-6.7-1.2c0-0.8,6.6-1.2,6.6-2c0-0.8-6.7-0.4-6.7-1.2c0-0.8,6.6-1.2,6.6-2c0-0.8-6.7-0.4-6.7-1.2
		c0-0.8,6.6-1.2,6.6-2c0-0.8-6.7-0.4-6.7-1.2c0-0.8,6.6-1.2,6.6-2s-6.7-0.4-6.7-1.2c0-0.8,6.6-1.2,6.6-2c0-0.8-6.7-0.4-6.7-1.2
		c0-0.8,6.6-1.2,6.6-2c0-0.8-6.7-0.4-6.7-1.2c0-0.8,6.6-1.2,6.6-2c0-0.8-6.7-0.4-6.7-1.2c0-0.8,6.6-1.2,6.6-2c0-0.8-6.7-0.4-6.7-1.2
		c0-0.8,6.6-1.2,6.6-2c0-0.8-6.7-0.4-6.7-1.2c0-0.8,6.6-1.2,6.6-2c0-0.8-6.7-0.4-6.7-1.2c0-0.8,6.6-1.2,6.6-2c0-0.8-6.7-0.4-6.7-1.2
		c0-0.8,6.6-1.2,6.6-2c0-0.8-6.7-0.4-6.7-1.2c0-0.8,6.6-1.2,6.6-2c0-0.8-6.7-0.4-6.7-1.2c0-0.8,6.6-1.2,6.6-2c0-0.8-6.7-0.4-6.7-1.2
		c0-0.8,6.6-1.2,6.6-2c0-0.8-6.7-0.4-6.7-1.2c0-0.8,6.6-1.2,6.6-2c0-0.8-6.7-0.4-6.7-1.2c0-0.8,6.6-1.2,6.6-2c0-0.8-6.7-0.4-6.7-1.2
		c0-0.8,6.6-1.2,6.6-2c0-0.8-6.7-0.4-6.7-1.2c0-0.8,6.6-1.2,6.6-2c0-0.8-6.7-0.4-6.7-1.2c0-0.8,6.6-1.2,6.6-2c0-0.8-6.7-0.4-6.7-1.2
		c0-0.8,6.6-1.2,6.6-2c0-0.8-6.7-0.4-6.7-1.2c0-0.8,1,0.8,1.7,1.2C1300.8,725.6,1302,724,1301.2,723.9z"/>
</g>
<g>
	<path fill="none" stroke="#000000" stroke-width="4" stroke-miterlimit="10" d="M-4.9,716.9c10.7,0,10.7,6.6,21.4,6.7
		c10.7,0,10.7-6.6,21.4-6.6c10.7,0,10.7,6.6,21.4,6.7c10.7,0,10.7-6.6,21.4-6.6c10.7,0,10.7,6.6,21.4,6.7c10.7,0,10.7-6.6,21.4-6.6
		c10.7,0,10.7,6.6,21.4,6.7c10.7,0,10.7-6.6,21.4-6.6c10.7,0,10.7,6.6,21.4,6.7c10.7,0,10.7-6.6,21.4-6.6c10.7,0,10.7,6.6,21.4,6.7
		c10.7,0,10.7-6.6,21.4-6.6c10.7,0,10.7,6.6,21.4,6.7c10.7,0,10.7-6.6,21.4-6.6c10.7,0,10.7,6.6,21.4,6.7c10.7,0,10.7-6.6,21.4-6.6
		c10.7,0,10.7,6.6,21.4,6.7c10.7,0,10.7-6.6,21.4-6.6c10.7,0,10.7,6.6,21.4,6.7c10.7,0,10.7-6.6,21.4-6.6c10.7,0,10.7,6.6,21.4,6.7
		c10.7,0,10.7-6.6,21.4-6.6c10.7,0,10.7,6.6,21.4,6.7c10.7,0,10.7-6.6,21.4-6.6c10.7,0,10.7,6.6,21.4,6.7c10.7,0,10.7-6.6,21.4-6.6
		c10.7,0,10.7,6.6,21.4,6.7c10.7,0,10.7-6.6,21.4-6.6c10.7,0,10.7,6.6,21.4,6.7c10.7,0,10.7-6.6,21.4-6.6c10.7,0,10.7,6.6,21.4,6.7
		c10.7,0,10.7-6.6,21.4-6.6c10.7,0,10.7,6.6,21.4,6.7c10.7,0,10.7-6.6,21.4-6.6c10.7,0,10.7,6.6,21.4,6.7c10.7,0,10.7-6.6,21.4-6.6
		c10.7,0,10.7,6.6,21.4,6.7c10.7,0,10.7-6.6,21.4-6.6c10.7,0,10.7,6.6,21.4,6.7c10.7,0,10.7-6.6,21.4-6.6c10.7,0,10.7,6.6,21.4,6.7
		c10.7,0,10.7-6.6,21.4-6.6c10.7,0,10.7,6.6,21.4,6.7c10.7,0,10.7-6.6,21.4-6.6c10.7,0,10.7,6.6,21.4,6.7c10.7,0,10.7-6.6,21.4-6.6
		c10.7,0,10.7,6.6,21.4,6.7c10.7,0,10.7-6.6,21.4-6.6c10.7,0,10.7,6.6,21.4,6.7c10.7,0,10.7-6.6,21.4-6.6c10.7,0,10.7,6.6,21.4,6.7
		c10.7,0,10.7-6.6,21.4-6.6c10.7,0,10.7,6.6,21.4,6.7c10.7,0,10.7-6.6,21.4-6.6c10.7,0,10.7,6.6,21.4,6.7c10.7,0,10.7-6.6,21.4-6.6
		c10.7,0,10.7,6.6,21.4,6.7c10.7,0,10.7-6.6,21.4-6.6c10.7,0,10.7,6.6,21.4,6.7c10.7,0,10.7-6.6,21.4-6.6c10.7,0,10.7,6.6,21.4,6.7
		c10.7,0,10.7-6.6,21.4-6.6"/>
</g>
<g>
	<path fill="none" stroke="#000000" stroke-width="4" stroke-miterlimit="10" d="M-4.9,733.9c10.7,0,10.7,6.6,21.4,6.7
		c10.7,0,10.7-6.6,21.4-6.6c10.7,0,10.7,6.6,21.4,6.7c10.7,0,10.7-6.6,21.4-6.6c10.7,0,10.7,6.6,21.4,6.7c10.7,0,10.7-6.6,21.4-6.6
		c10.7,0,10.7,6.6,21.4,6.7c10.7,0,10.7-6.6,21.4-6.6c10.7,0,10.7,6.6,21.4,6.7c10.7,0,10.7-6.6,21.4-6.6c10.7,0,10.7,6.6,21.4,6.7
		c10.7,0,10.7-6.6,21.4-6.6c10.7,0,10.7,6.6,21.4,6.7c10.7,0,10.7-6.6,21.4-6.6c10.7,0,10.7,6.6,21.4,6.7c10.7,0,10.7-6.6,21.4-6.6
		c10.7,0,10.7,6.6,21.4,6.7c10.7,0,10.7-6.6,21.4-6.6c10.7,0,10.7,6.6,21.4,6.7c10.7,0,10.7-6.6,21.4-6.6c10.7,0,10.7,6.6,21.4,6.7
		c10.7,0,10.7-6.6,21.4-6.6c10.7,0,10.7,6.6,21.4,6.7c10.7,0,10.7-6.6,21.4-6.6c10.7,0,10.7,6.6,21.4,6.7c10.7,0,10.7-6.6,21.4-6.6
		c10.7,0,10.7,6.6,21.4,6.7c10.7,0,10.7-6.6,21.4-6.6c10.7,0,10.7,6.6,21.4,6.7c10.7,0,10.7-6.6,21.4-6.6c10.7,0,10.7,6.6,21.4,6.7
		c10.7,0,10.7-6.6,21.4-6.6c10.7,0,10.7,6.6,21.4,6.7c10.7,0,10.7-6.6,21.4-6.6c10.7,0,10.7,6.6,21.4,6.7c10.7,0,10.7-6.6,21.4-6.6
		c10.7,0,10.7,6.6,21.4,6.7c10.7,0,10.7-6.6,21.4-6.6c10.7,0,10.7,6.6,21.4,6.7c10.7,0,10.7-6.6,21.4-6.6c10.7,0,10.7,6.6,21.4,6.7
		c10.7,0,10.7-6.6,21.4-6.6c10.7,0,10.7,6.6,21.4,6.7c10.7,0,10.7-6.6,21.4-6.6c10.7,0,10.7,6.6,21.4,6.7c10.7,0,10.7-6.6,21.4-6.6
		c10.7,0,10.7,6.6,21.4,6.7c10.7,0,10.7-6.6,21.4-6.6c10.7,0,10.7,6.6,21.4,6.7c10.7,0,10.7-6.6,21.4-6.6c10.7,0,10.7,6.6,21.4,6.7
		c10.7,0,10.7-6.6,21.4-6.6c10.7,0,10.7,6.6,21.4,6.7c10.7,0,10.7-6.6,21.4-6.6c10.7,0,10.7,6.6,21.4,6.7c10.7,0,10.7-6.6,21.4-6.6
		c10.7,0,10.7,6.6,21.4,6.7c10.7,0,10.7-6.6,21.4-6.6c10.7,0,10.7,6.6,21.4,6.7c10.7,0,10.7-6.6,21.4-6.6c10.7,0,10.7,6.6,21.4,6.7
		c10.7,0,10.7-6.6,21.4-6.6"/>
</g>
<path fill="#FFFFFF" stroke="#000000" stroke-width="4" stroke-linecap="round" stroke-miterlimit="10" d="M592.6,481.1
	c0.6,0.3,49.8,53.6,47.3,84.6c-0.9,40.1-50.1,77-76.2,102.3c-13.7,13.3-31.4,26.5-39.3,44.5c-5.2,11.8-10.9,45.2,0.5,64.9l69.3-4.3
	c-9.6-6.3-33-25.9-24.2-42.6c10-19,31.8-39.1,46-55.9c15.7-18.5,31.7-37.2,42.2-59.2c14.5-30.1,16.4-61.9,2.2-92.3
	c-17.7-37.6-54.7-73.1-97.6-68.4c-15.7,1.7-29.5,12.1-43.8,20.9c0,0,21.6-17.7,58-9.6S592.6,481.1,592.6,481.1"/>
<path fill="#FFFFFF" stroke="#000000" stroke-width="4" stroke-linecap="round" stroke-miterlimit="10" d="M566.8,767.8
	c-9.6-6.3-19.6-26-10.8-42.7c10-19,31.8-39.1,46-55.9c15.7-18.5,31.7-37.2,42.2-59.2c14.5-30.1,16.4-61.9,2.2-92.3
	c-17.7-37.6-50.9-67.3-93.7-62.5c-25.3,2.8-55.5,12.7-68.7,36.4c-5.8,10.4-7.5,22.9-6.1,34.6c0.2,1.6,4.9,22.7,10.7,19.8
	c1.7-0.9-0.9-5.7-1.5-6.6c-12.3-20.8,4.4-48.7,23.1-58.3c19.7-10.1,49.7-14.4,70.2-4.8c28.4,13.3,48,52.8,45.4,83.8
	c-0.9,40.1-50.1,77-76.2,102.3c-13.7,13.3-31.4,26.5-39.3,44.5c-5.2,11.8-10.9,45.2,0.5,64.9"/>
<g>
	<path fill="#FFFFFF" d="M1301.2,758.9c-10.7-0.8-10.4-6.7-21.1-6.7c-10.7,0-10.7,6.6-21.4,6.6c-10.7,0-10.7-6.7-21.4-6.7
		c-10.7,0-10.7,6.6-21.4,6.6c-10.7,0-10.7-6.7-21.4-6.7c-10.7,0-10.7,6.6-21.4,6.6c-10.7,0-10.7-6.7-21.4-6.7
		c-10.7,0-10.7,6.6-21.4,6.6c-10.7,0-10.7-6.7-21.4-6.7c-10.7,0-10.7,6.6-21.4,6.6c-10.7,0-10.7-6.7-21.4-6.7
		c-10.7,0-10.7,6.6-21.4,6.6c-10.7,0-10.7-6.7-21.4-6.7c-10.7,0-10.7,6.6-21.4,6.6c-10.7,0-10.7-6.7-21.4-6.7
		c-10.7,0-10.7,6.6-21.4,6.6c-10.7,0-10.7-6.7-21.4-6.7c-10.7,0-10.7,6.6-21.4,6.6c-10.7,0-10.7-6.7-21.4-6.7
		c-10.7,0-10.7,6.6-21.4,6.6c-10.7,0-10.7-6.7-21.4-6.7c-10.7,0-10.7,6.6-21.4,6.6c-10.7,0-10.7-6.7-21.4-6.7
		c-10.7,0-10.7,6.6-21.4,6.6c-10.7,0-10.7-6.7-21.4-6.7c-10.7,0-10.7,6.6-21.4,6.6c-10.7,0-10.7-6.7-21.4-6.7
		c-10.7,0-10.7,6.6-21.4,6.6c-10.7,0-10.7-6.7-21.4-6.7c-10.7,0-10.7,6.6-21.4,6.6c-10.7,0-10.7-6.7-21.4-6.7
		c-10.7,0-10.7,6.6-21.4,6.6c-10.7,0-10.7-6.7-21.4-6.7c-10.7,0-10.7,6.6-21.4,6.6c-10.7,0-10.7-6.7-21.4-6.7
		c-10.7,0-10.7,6.6-21.4,6.6c-10.7,0-10.7-6.7-21.4-6.7c-10.7,0-10.7,6.6-21.4,6.6c-10.7,0-10.7-6.7-21.4-6.7
		c-10.7,0-10.7,6.6-21.4,6.6c-10.7,0-10.7-6.7-21.4-6.7c-10.7,0-10.7,6.6-21.4,6.6c-10.7,0-10.7-6.7-21.4-6.7
		c-10.7,0-10.7,6.6-21.4,6.6c-10.7,0-10.7-6.7-21.4-6.7c-10.7,0-10.7,6.6-21.4,6.6c-10.7,0-10.7-6.7-21.4-6.7
		c-10.7,0-10.7,6.6-21.4,6.6c-10.7,0-10.7-6.7-21.4-6.7c-10.7,0-10.7,6.6-21.4,6.6c-10.7,0-10.7-6.7-21.4-6.7
		c-10.7,0-10.7,6.6-21.4,6.6c-10.7,0-10.7-6.7-21.4-6.7c-10.7,0-10.7,6.6-21.4,6.6c-10.7,0-10.7-6.7-21.4-6.7
		c-10.7,0-10.7,6.6-21.4,6.6c-10.7,0-10.7-6.7-21.4-6.7c-10.7,0-10.7,6.6-21.4,6.6c-10.7,0-10.7-6.7-21.4-6.7
		c-10.7,0-10.7,6.6-21.4,6.6c-10.7,0-10.7-6.7-21.4-6.7s-10.5,5.8-21.2,6.6c-0.8,0.1-3.6-2.5-3.6-1.7c0,0.8,6.7,0.8,6.7,1.6
		c0,0.8-6.7,0.8-6.7,1.6c0,0.8,6.7,0.8,6.7,1.6c0,0.8-6.7,0.8-6.7,1.6c0,0.8,6.7,0.8,6.7,1.6c0,0.8-6.7,0.8-6.7,1.6
		c0,0.8,6.7,0.8,6.7,1.6c0,0.8-6.7,0.8-6.7,1.6c0,0.8,6.7,0.8,6.7,1.6s-6.7,0.8-6.7,1.6c0,0.8,6.7,0.8,6.7,1.6
		c0,0.8-6.7,0.8-6.7,1.6c0,0.8,6.7,0.8,6.7,1.6c0,0.8-6.7,0.8-6.7,1.6c0,0.8,6.7,0.8,6.7,1.6c0,0.8-6.7,0.8-6.7,1.6
		c0,0.8,6.7,0.8,6.7,1.6c0,0.8-6.7,0.8-6.7,1.6c0,0.8,6.7,0.8,6.7,1.6c0,0.8-6.7,0.8-6.7,1.6c0,0.8,6.7,0.8,6.7,1.6
		c0,0.8-6.7,0.8-6.7,1.6c0,0.8,6.7,0.8,6.7,1.6c0,0.8-6.7,0.8-6.7,1.6c0,0.8,6.7,0.8,6.7,1.6c0,0.8-6.7,0.8-6.7,1.6
		c0,0.8,6.7,0.8,6.7,1.6c0,0.8-6.7,0.8-6.7,1.6c0,0.8,6.7,0.8,6.7,1.6c0,0.8-6.7,0.8-6.7,1.6c0,0.8,6.7,0.8,6.7,1.6
		c0,0.8-6.7,0.8-6.7,1.6c0,0.8,6.7,0.8,6.7,1.6c0,0.8-6.7,0.8-6.7,1.6c0,0.8,6.7,0.8,6.7,1.6c0,0.8-6.7,0.8-6.7,1.6
		c0,0.8,6.7,0.8,6.7,1.6c0,0.8-6.7,0.8-6.7,1.6c0,0.8,6.7,0.8,6.7,1.6c0,0.8-6.7,0.8-6.7,1.6c0,0.8,6.7,0.8,6.7,1.6
		c0,0.8-6.7,0.8-6.7,1.6c0,0.8,6.7,0.8,6.7,1.6c0,0.8-6.7,0.8-6.7,1.6c0,0.8,6.7,0.8,6.7,1.6c0,0.8-6.7,0.8-6.7,1.6
		c0,0.8,6.7,0.8,6.7,1.6c0,0.8-6.7,0.8-6.7,1.6c0,0.8,6.7,0.8,6.7,1.6c0,0.8-6.7,0.8-6.7,1.6c0,0.8,6.7,0.8,6.7,1.6
		c0,0.8-6.7,0.8-6.7,1.6s6.7,0.8,6.7,1.6c0,0.8-6.7,0.8-6.7,1.6c0,0.8,6.7,0.8,6.7,1.6c0,0.8-6.7,0.8-6.7,1.6c0,0.8,6.7,0.8,6.7,1.6
		c0,0.8-6.7,0.8-6.7,1.6c0,0.8,6.7,0.8,6.7,1.6c0,0.8-6.7,0.8-6.7,1.6s2.8-1.8,3.6-1.7c10.7,0.8,10.5,6.6,21.2,6.6
		c10.7,0,10.7-6.7,21.5-6.7c10.7,0,10.7,6.7,21.5,6.7c10.7,0,10.7-6.7,21.5-6.7c10.7,0,10.7,6.7,21.5,6.7c10.7,0,10.7-6.7,21.5-6.7
		c10.7,0,10.7,6.7,21.5,6.7c10.7,0,10.7-6.7,21.5-6.7c10.7,0,10.7,6.7,21.5,6.7c10.7,0,10.7-6.7,21.5-6.7c10.7,0,10.7,6.7,21.5,6.7
		c10.7,0,10.7-6.7,21.5-6.7c10.7,0,10.7,6.7,21.5,6.7c10.7,0,10.7-6.7,21.5-6.7c10.7,0,10.7,6.7,21.5,6.7c10.7,0,10.7-6.7,21.5-6.7
		c10.7,0,10.7,6.7,21.5,6.7c10.7,0,10.7-6.7,21.5-6.7c10.7,0,10.7,6.7,21.5,6.7c10.7,0,10.7-6.7,21.5-6.7c10.7,0,10.7,6.7,21.5,6.7
		c10.7,0,10.7-6.7,21.5-6.7c10.7,0,10.7,6.7,21.5,6.7c10.7,0,10.7-6.7,21.5-6.7c10.7,0,10.7,6.7,21.5,6.7c10.7,0,10.7-6.7,21.5-6.7
		c10.7,0,10.7,6.7,21.5,6.7c10.7,0,10.7-6.7,21.5-6.7c10.7,0,10.7,6.7,21.5,6.7c10.7,0,10.7-6.7,21.5-6.7c10.7,0,10.7,6.7,21.5,6.7
		c10.7,0,10.7-6.7,21.5-6.7c10.7,0,10.7,6.7,21.5,6.7c10.7,0,10.7-6.7,21.5-6.7c10.7,0,10.7,6.7,21.5,6.7c10.7,0,10.7-6.7,21.5-6.7
		c10.7,0,10.7,6.7,21.5,6.7c10.7,0,10.7-6.7,21.5-6.7c10.7,0,10.7,6.7,21.5,6.7c10.7,0,10.7-6.7,21.5-6.7c10.7,0,10.7,6.7,21.5,6.7
		c10.7,0,10.7-6.7,21.5-6.7c10.7,0,10.7,6.7,21.5,6.7c10.7,0,10.7-6.7,21.5-6.7c10.7,0,10.7,6.7,21.5,6.7c10.7,0,10.7-6.7,21.5-6.7
		c10.7,0,10.7,6.7,21.5,6.7c10.7,0,10.7-6.7,21.5-6.7c10.7,0,10.7,6.7,21.5,6.7c10.7,0,10.7-6.7,21.5-6.7c10.7,0,10.7,6.7,21.5,6.7
		c10.7,0,10.7-6.7,21.5-6.7c10.7,0,10.7,6.7,21.5,6.7c10.7,0,10.7-6.7,21.5-6.7c10.7,0,10.7,6.7,21.5,6.7c10.7,0,10.7-6.7,21.5-6.7
		c10.7,0,10.7,6.7,21.5,6.7s10.7-6.7,21.5-6.7c10.7,0,10.7,6.7,21.5,6.7c10.7,0,10.7-6.7,21.5-6.7c10.7,0,10.7,6.7,21.5,6.7
		c10.7,0,10.5-5.9,21.2-6.7c0.8-0.1,3.5,2.3,3.5,1.6c0-0.8-6.7-0.4-6.7-1.2c0-0.8,6.6-1.2,6.6-2c0-0.8-6.7-0.4-6.7-1.2
		c0-0.8,6.6-1.2,6.6-2c0-0.8-6.7-0.4-6.7-1.2c0-0.8,6.6-1.2,6.6-2c0-0.8-6.7-0.4-6.7-1.2c0-0.8,6.6-1.2,6.6-2c0-0.8-6.7-0.4-6.7-1.2
		c0-0.8,6.6-1.2,6.6-2c0-0.8-6.7-0.4-6.7-1.2c0-0.8,6.6-1.2,6.6-2c0-0.8-6.7-0.4-6.7-1.2c0-0.8,6.6-1.2,6.6-2c0-0.8-6.7-0.4-6.7-1.2
		c0-0.8,6.6-1.2,6.6-2c0-0.8-6.7-0.4-6.7-1.2c0-0.8,6.6-1.2,6.6-2c0-0.8-6.7-0.4-6.7-1.2c0-0.8,6.6-1.2,6.6-2c0-0.8-6.7-0.4-6.7-1.2
		c0-0.8,6.6-1.2,6.6-2c0-0.8-6.7-0.4-6.7-1.2c0-0.8,6.6-1.2,6.6-2s-6.7-0.4-6.7-1.2c0-0.8,6.6-1.2,6.6-2c0-0.8-6.7-0.4-6.7-1.2
		c0-0.8,6.6-1.2,6.6-2c0-0.8-6.7-0.4-6.7-1.2c0-0.8,6.6-1.2,6.6-2c0-0.8-6.7-0.4-6.7-1.2c0-0.8,6.6-1.2,6.6-2c0-0.8-6.7-0.4-6.7-1.2
		c0-0.8,6.6-1.2,6.6-2c0-0.8-6.7-0.4-6.7-1.2c0-0.8,6.6-1.2,6.6-2c0-0.8-6.7-0.4-6.7-1.2c0-0.8,6.6-1.2,6.6-2c0-0.8-6.7-0.4-6.7-1.2
		c0-0.8,6.6-1.2,6.6-2c0-0.8-6.7-0.4-6.7-1.2c0-0.8,6.6-1.2,6.6-2c0-0.8-6.7-0.4-6.7-1.2c0-0.8,6.6-1.2,6.6-2c0-0.8-6.7-0.4-6.7-1.2
		c0-0.8,6.6-1.2,6.6-2c0-0.8-6.7-0.4-6.7-1.2c0-0.8,6.6-1.2,6.6-2c0-0.8-6.7-0.4-6.7-1.2c0-0.8,6.6-1.2,6.6-2c0-0.8-6.7-0.4-6.7-1.2
		c0-0.8,6.6-1.2,6.6-2c0-0.8-6.7-0.4-6.7-1.2c0-0.8,6.6-1.2,6.6-2c0-0.8-6.7-0.4-6.7-1.2c0-0.8,6.6-1.2,6.6-2c0-0.8-6.7-0.4-6.7-1.2
		c0-0.8,6.6-1.2,6.6-2c0-0.8-6.7-0.4-6.7-1.2c0-0.8,1,0.8,1.7,1.2C1300.8,760.6,1302,759,1301.2,758.9z"/>
</g>
<g>
	<path fill="none" stroke="#000000" stroke-width="4" stroke-miterlimit="10" d="M-4.9,750.9c10.7,0,10.7,6.6,21.4,6.7
		c10.7,0,10.7-6.6,21.4-6.6c10.7,0,10.7,6.6,21.4,6.7c10.7,0,10.7-6.6,21.4-6.6c10.7,0,10.7,6.6,21.4,6.7c10.7,0,10.7-6.6,21.4-6.6
		c10.7,0,10.7,6.6,21.4,6.7c10.7,0,10.7-6.6,21.4-6.6c10.7,0,10.7,6.6,21.4,6.7c10.7,0,10.7-6.6,21.4-6.6c10.7,0,10.7,6.6,21.4,6.7
		c10.7,0,10.7-6.6,21.4-6.6c10.7,0,10.7,6.6,21.4,6.7c10.7,0,10.7-6.6,21.4-6.6c10.7,0,10.7,6.6,21.4,6.7c10.7,0,10.7-6.6,21.4-6.6
		c10.7,0,10.7,6.6,21.4,6.7c10.7,0,10.7-6.6,21.4-6.6c10.7,0,10.7,6.6,21.4,6.7c10.7,0,10.7-6.6,21.4-6.6c10.7,0,10.7,6.6,21.4,6.7
		c10.7,0,10.7-6.6,21.4-6.6c10.7,0,10.7,6.6,21.4,6.7c10.7,0,10.7-6.6,21.4-6.6c10.7,0,10.7,6.6,21.4,6.7c10.7,0,10.7-6.6,21.4-6.6
		c10.7,0,10.7,6.6,21.4,6.7c10.7,0,10.7-6.6,21.4-6.6c10.7,0,10.7,6.6,21.4,6.7c10.7,0,10.7-6.6,21.4-6.6c10.7,0,10.7,6.6,21.4,6.7
		c10.7,0,10.7-6.6,21.4-6.6c10.7,0,10.7,6.6,21.4,6.7c10.7,0,10.7-6.6,21.4-6.6c10.7,0,10.7,6.6,21.4,6.7c10.7,0,10.7-6.6,21.4-6.6
		c10.7,0,10.7,6.6,21.4,6.7c10.7,0,10.7-6.6,21.4-6.6c10.7,0,10.7,6.6,21.4,6.7c10.7,0,10.7-6.6,21.4-6.6c10.7,0,10.7,6.6,21.4,6.7
		c10.7,0,10.7-6.6,21.4-6.6c10.7,0,10.7,6.6,21.4,6.7c10.7,0,10.7-6.6,21.4-6.6c10.7,0,10.7,6.6,21.4,6.7c10.7,0,10.7-6.6,21.4-6.6
		c10.7,0,10.7,6.6,21.4,6.7c10.7,0,10.7-6.6,21.4-6.6c10.7,0,10.7,6.6,21.4,6.7c10.7,0,10.7-6.6,21.4-6.6c10.7,0,10.7,6.6,21.4,6.7
		c10.7,0,10.7-6.6,21.4-6.6c10.7,0,10.7,6.6,21.4,6.7c10.7,0,10.7-6.6,21.4-6.6c10.7,0,10.7,6.6,21.4,6.7c10.7,0,10.7-6.6,21.4-6.6
		c10.7,0,10.7,6.6,21.4,6.7c10.7,0,10.7-6.6,21.4-6.6c10.7,0,10.7,6.6,21.4,6.7c10.7,0,10.7-6.6,21.4-6.6c10.7,0,10.7,6.6,21.4,6.7
		c10.7,0,10.7-6.6,21.4-6.6"/>
</g>
<g>
	<path fill="none" stroke="#000000" stroke-width="4" stroke-miterlimit="10" d="M-4.9,767.9c10.7,0,10.7,6.6,21.4,6.7
		c10.7,0,10.7-6.6,21.4-6.6c10.7,0,10.7,6.6,21.4,6.7c10.7,0,10.7-6.6,21.4-6.6c10.7,0,10.7,6.6,21.4,6.7c10.7,0,10.7-6.6,21.4-6.6
		c10.7,0,10.7,6.6,21.4,6.7c10.7,0,10.7-6.6,21.4-6.6c10.7,0,10.7,6.6,21.4,6.7c10.7,0,10.7-6.6,21.4-6.6c10.7,0,10.7,6.6,21.4,6.7
		c10.7,0,10.7-6.6,21.4-6.6c10.7,0,10.7,6.6,21.4,6.7c10.7,0,10.7-6.6,21.4-6.6c10.7,0,10.7,6.6,21.4,6.7c10.7,0,10.7-6.6,21.4-6.6
		c10.7,0,10.7,6.6,21.4,6.7c10.7,0,10.7-6.6,21.4-6.6c10.7,0,10.7,6.6,21.4,6.7c10.7,0,10.7-6.6,21.4-6.6c10.7,0,10.7,6.6,21.4,6.7
		c10.7,0,10.7-6.6,21.4-6.6c10.7,0,10.7,6.6,21.4,6.7c10.7,0,10.7-6.6,21.4-6.6c10.7,0,10.7,6.6,21.4,6.7c10.7,0,10.7-6.6,21.4-6.6
		c10.7,0,10.7,6.6,21.4,6.7c10.7,0,10.7-6.6,21.4-6.6c10.7,0,10.7,6.6,21.4,6.7c10.7,0,10.7-6.6,21.4-6.6c10.7,0,10.7,6.6,21.4,6.7
		c10.7,0,10.7-6.6,21.4-6.6c10.7,0,10.7,6.6,21.4,6.7c10.7,0,10.7-6.6,21.4-6.6c10.7,0,10.7,6.6,21.4,6.7c10.7,0,10.7-6.6,21.4-6.6
		c10.7,0,10.7,6.6,21.4,6.7c10.7,0,10.7-6.6,21.4-6.6c10.7,0,10.7,6.6,21.4,6.7c10.7,0,10.7-6.6,21.4-6.6c10.7,0,10.7,6.6,21.4,6.7
		c10.7,0,10.7-6.6,21.4-6.6c10.7,0,10.7,6.6,21.4,6.7c10.7,0,10.7-6.6,21.4-6.6c10.7,0,10.7,6.6,21.4,6.7c10.7,0,10.7-6.6,21.4-6.6
		c10.7,0,10.7,6.6,21.4,6.7c10.7,0,10.7-6.6,21.4-6.6c10.7,0,10.7,6.6,21.4,6.7c10.7,0,10.7-6.6,21.4-6.6c10.7,0,10.7,6.6,21.4,6.7
		c10.7,0,10.7-6.6,21.4-6.6c10.7,0,10.7,6.6,21.4,6.7c10.7,0,10.7-6.6,21.4-6.6c10.7,0,10.7,6.6,21.4,6.7c10.7,0,10.7-6.6,21.4-6.6
		c10.7,0,10.7,6.6,21.4,6.7c10.7,0,10.7-6.6,21.4-6.6c10.7,0,10.7,6.6,21.4,6.7c10.7,0,10.7-6.6,21.4-6.6c10.7,0,10.7,6.6,21.4,6.7
		c10.7,0,10.7-6.6,21.4-6.6"/>
</g>
</svg>
