<svg  data-name="Layer 1" xmlns="http://www.w3.org/2000/svg" viewBox="0 0 144 144"><title>archive</title><path d="M72,28.5A43.5,43.5,0,1,0,115.5,72,43.51,43.51,0,0,0,72,28.5ZM98.63,77.76,75.76,100.63a2.61,2.61,0,0,1-.27.31,4.43,4.43,0,0,1-.72.59,2.11,2.11,0,0,1-.27.18L74,102l-.31.11-.07,0-.22.07-.08,0h0a1.57,1.57,0,0,1-.29.08l-.22,0-.22,0h0a4.24,4.24,0,0,1-.51,0,3.55,3.55,0,0,1-.46,0l-.44-.06h0s0,0,0,0l-.23-.06-.09,0-.15,0a2.69,2.69,0,0,1-.34-.12h0l0,0-.06,0-.34-.17a3,3,0,0,1-.34-.2h0a4.66,4.66,0,0,1-.88-.67c-.12-.13-.23-.25-.33-.38L45.37,77.76a4.91,4.91,0,1,1,7-6.94L67.11,85.61V49.35a4.92,4.92,0,0,1,9.83,0V85.57L91.68,70.82a4.91,4.91,0,1,1,6.95,6.94Z" fill="#fff" fill-rule="evenodd" opacity="0.5"/><circle cx="72" cy="72" r="43.5" fill="none" stroke="#fff" stroke-miterlimit="10" stroke-width="3"/></svg>
