<svg  data-name="Layer 1" xmlns="http://www.w3.org/2000/svg" viewBox="0 0 144 144"><title>delete</title><path d="M72,28.5A43.5,43.5,0,1,0,115.5,72,43.51,43.51,0,0,0,72,28.5ZM93.67,86.64a5.7,5.7,0,0,1-4,9.72,5.78,5.78,0,0,1-4-1.67L72,81.06,58.37,94.69a5.69,5.69,0,0,1-8,0,5.66,5.66,0,0,1,0-8L64,73,50.32,59.35a5.66,5.66,0,0,1,0-8.05,5.73,5.73,0,0,1,8,0L72,64.93,85.63,51.3a5.72,5.72,0,0,1,8,0,5.66,5.66,0,0,1,0,8.05L80.05,73Z" fill="#fff" fill-rule="evenodd" opacity="0.5"/><circle cx="72" cy="72" r="43.5" fill="none" stroke="#fff" stroke-miterlimit="10" stroke-width="3"/></svg>
