<svg  data-name="Layer 1" xmlns="http://www.w3.org/2000/svg" viewBox="0 0 144 144"><title>new draft</title><circle cx="72" cy="72" r="43.5" fill="none" stroke="#fff" stroke-miterlimit="10" stroke-width="3"/><path d="M72,28.5A43.5,43.5,0,1,0,115.5,72,43.51,43.51,0,0,0,72,28.5ZM92.29,78.12l-15.09,0,0,15.12a5.17,5.17,0,0,1-10.33,0l0-15.12-15.12,0h0a5.17,5.17,0,0,1,0-10.33l15.09,0,0-15.12a5.17,5.17,0,0,1,10.34,0l0,15.12,15.12,0h0a5.15,5.15,0,0,1,5.17,5.13A5.21,5.21,0,0,1,92.29,78.12Z" fill="#fff" fill-rule="evenodd" opacity="0.5"/></svg>
