<svg  data-name="Layer 1" xmlns="http://www.w3.org/2000/svg" viewBox="0 0 144 144"><title>pdf</title><polygon points="108.7 122.95 35.3 122.95 35.3 26.98 84.46 26.98 108.7 48.9 108.7 122.95" fill="#fff" stroke="#121f2c" stroke-linecap="round" stroke-miterlimit="10" stroke-width="3"/><polyline points="84.46 26.98 84.46 48.9 108.7 48.9" fill="none" stroke="#121f2c" stroke-linecap="round" stroke-miterlimit="10" stroke-width="3"/><path d="M63.12,73c0,3.19-2.4,5.18-6.23,5.18H54V82.1H50.69V67.76h6.2C60.72,67.76,63.12,69.75,63.12,73Zm-3.36,0c0-1.58-1-2.5-3-2.5H54v5h2.71C58.74,75.44,59.76,74.52,59.76,73Z" fill="#231f20"/><path d="M65.49,67.76H72c4.69,0,7.91,2.83,7.91,7.17S76.69,82.1,72,82.1H65.49Zm6.35,11.62c2.84,0,4.71-1.7,4.71-4.45s-1.87-4.44-4.71-4.44h-3v8.89Z" fill="#231f20"/><path d="M85.74,70.43v3.79h6.63v2.66H85.74V82.1H82.42V67.76H93.25v2.67Z" fill="#231f20"/><line x1="48.97" y1="94.04" x2="94.97" y2="94.04" fill="#fff" stroke="#121f2c" stroke-linecap="round" stroke-miterlimit="10" stroke-width="3"/><line x1="48.97" y1="104.04" x2="94.97" y2="104.04" fill="#fff" stroke="#121f2c" stroke-linecap="round" stroke-miterlimit="10" stroke-width="3"/></svg>
