<svg  data-name="Layer 1" xmlns="http://www.w3.org/2000/svg" viewBox="0 0 144 144"><title>xls</title><polygon points="104.14 118.65 30.73 118.65 30.73 22.68 79.9 22.68 104.14 44.59 104.14 118.65" fill="#fff" stroke="#121f2c" stroke-linecap="round" stroke-miterlimit="10" stroke-width="3"/><polyline points="79.9 22.68 79.9 44.59 104.14 44.59" fill="none" stroke="#121f2c" stroke-linecap="round" stroke-miterlimit="10" stroke-width="3"/><line x1="43.96" y1="89.74" x2="89.97" y2="89.74" fill="#fff" stroke="#121f2c" stroke-linecap="round" stroke-miterlimit="10" stroke-width="3"/><line x1="43.96" y1="99.74" x2="89.97" y2="99.74" fill="#fff" stroke="#121f2c" stroke-linecap="round" stroke-miterlimit="10" stroke-width="3"/><path d="M58.54,81.2l-3.32-4.77L52,81.2H48.3l5.09-7-4.83-6.76h3.61l3.17,4.46,3.1-4.46h3.44l-4.79,6.64,5.13,7.11Z" fill="#231f20"/><path d="M63.48,67.45h3.18V78.61h6.9V81.2H63.48Z" fill="#231f20"/><path d="M74.2,79.85l1.08-2.4a8,8,0,0,0,4.54,1.44c1.88,0,2.65-.63,2.65-1.48,0-2.57-8-.8-8-5.91,0-2.34,1.89-4.28,5.8-4.28A9.24,9.24,0,0,1,85,68.43l-1,2.42a7.73,7.73,0,0,0-3.81-1.08c-1.89,0-2.62.71-2.62,1.57,0,2.54,8,.79,8,5.84,0,2.3-1.9,4.26-5.83,4.26A9.81,9.81,0,0,1,74.2,79.85Z" fill="#231f20"/></svg>
