<svg  data-name="Layer 1" xmlns="http://www.w3.org/2000/svg" viewBox="0 0 144 144"><title>txt</title><polygon points="109.87 118 36.47 118 36.47 22.04 85.63 22.04 109.87 43.95 109.87 118" fill="#fff" stroke="#121f2c" stroke-linecap="round" stroke-miterlimit="10" stroke-width="3"/><polyline points="85.63 22.04 85.63 43.95 109.87 43.95" fill="none" stroke="#121f2c" stroke-linecap="round" stroke-miterlimit="10" stroke-width="3"/><line x1="50.14" y1="89.09" x2="96.15" y2="89.09" fill="#fff" stroke="#121f2c" stroke-linecap="round" stroke-miterlimit="10" stroke-width="3"/><line x1="50.14" y1="99.09" x2="96.15" y2="99.09" fill="#fff" stroke="#121f2c" stroke-linecap="round" stroke-miterlimit="10" stroke-width="3"/><path d="M58.15,70.36h-4.4v-2.6h12v2.6H61.33V81.52H58.15Z" fill="#231f20"/><path d="M75.53,81.52l-3.32-4.78L69,81.52H65.29l5.09-7-4.83-6.76h3.61l3.16,4.46,3.11-4.46h3.44l-4.8,6.64,5.13,7.12Z" fill="#231f20"/><path d="M83.16,70.36h-4.4v-2.6h12v2.6h-4.4V81.52H83.16Z" fill="#231f20"/></svg>
