<svg  data-name="Layer 1" xmlns="http://www.w3.org/2000/svg" viewBox="0 0 144 144"><title>doc</title><polygon points="108.44 119.41 35.03 119.41 35.03 23.44 84.19 23.44 108.44 45.36 108.44 119.41" fill="#fff" stroke="#121f2c" stroke-linecap="round" stroke-miterlimit="10" stroke-width="3"/><polyline points="84.19 23.44 84.19 45.36 108.44 45.36" fill="none" stroke="#121f2c" stroke-linecap="round" stroke-miterlimit="10" stroke-width="3"/><line x1="48.7" y1="90.5" x2="94.71" y2="90.5" fill="#fff" stroke="#121f2c" stroke-linecap="round" stroke-miterlimit="10" stroke-width="3"/><line x1="48.7" y1="100.5" x2="94.71" y2="100.5" fill="#fff" stroke="#121f2c" stroke-linecap="round" stroke-miterlimit="10" stroke-width="3"/><path d="M49.13,68h6.25c4.5,0,7.59,2.71,7.59,6.88s-3.09,6.87-7.59,6.87H49.13Zm6.09,11.14c2.73,0,4.52-1.63,4.52-4.26S58,70.61,55.22,70.61h-2.9v8.53Z" fill="#231f20"/><path d="M64.51,74.88c0-4.09,3.18-7.12,7.52-7.12s7.53,3,7.53,7.12S76.36,82,72,82,64.51,79,64.51,74.88Zm11.83,0A4.31,4.31,0,1,0,72,79.28,4.2,4.2,0,0,0,76.34,74.88Z" fill="#231f20"/><path d="M81.1,74.88c0-4.15,3.18-7.12,7.47-7.12a7.13,7.13,0,0,1,5.66,2.44l-2,1.89a4.4,4.4,0,0,0-3.46-1.62,4.41,4.41,0,0,0,0,8.81,4.38,4.38,0,0,0,3.46-1.63l2,1.88A7.09,7.09,0,0,1,88.55,82C84.28,82,81.1,79,81.1,74.88Z" fill="#231f20"/></svg>
