<svg id="Layer_1" data-name="Layer 1" xmlns="http://www.w3.org/2000/svg" viewBox="0 0 144 144"><title>Hydrography </title><path d="M32.63,82.68c3.44,0,3.44,2.88,6.88,2.88s3.44-2.88,6.88-2.88,3.43,2.88,6.87,2.88,3.44-2.88,6.88-2.88,3.44,2.88,6.88,2.88,3.44-2.88,6.88-2.88,3.44,2.88,6.88,2.88,3.44-2.88,6.89-2.88,3.44,2.88,6.89,2.88" fill="none" stroke="#111f2d" stroke-linecap="round" stroke-miterlimit="10" stroke-width="3"/><path d="M32.63,92.72c3.44,0,3.44,2.88,6.88,2.88s3.44-2.88,6.88-2.88,3.43,2.88,6.87,2.88,3.44-2.88,6.88-2.88S63.58,95.6,67,95.6s3.44-2.88,6.88-2.88,3.44,2.88,6.88,2.88,3.44-2.88,6.89-2.88,3.44,2.88,6.89,2.88" fill="none" stroke="#111f2d" stroke-linecap="round" stroke-miterlimit="10" stroke-width="3"/><path d="M32.63,52.55c3.44,0,3.44,2.88,6.88,2.88s3.44-2.88,6.88-2.88,3.43,2.88,6.87,2.88,3.44-2.88,6.88-2.88,3.44,2.88,6.88,2.88,3.44-2.88,6.88-2.88,3.44,2.88,6.88,2.88,3.44-2.88,6.89-2.88,3.44,2.88,6.89,2.88" fill="none" stroke="#111f2d" stroke-linecap="round" stroke-miterlimit="10" stroke-width="3"/><path d="M32.63,42.51c3.44,0,3.44,2.88,6.88,2.88s3.44-2.88,6.88-2.88,3.43,2.88,6.87,2.88,3.44-2.88,6.88-2.88,3.44,2.88,6.88,2.88,3.44-2.88,6.88-2.88,3.44,2.88,6.88,2.88,3.44-2.88,6.89-2.88,3.44,2.88,6.89,2.88" fill="none" stroke="#111f2d" stroke-linecap="round" stroke-miterlimit="10" stroke-width="3"/><path d="M32.63,62.59c3.44,0,3.44,2.88,6.88,2.88s3.44-2.88,6.88-2.88,3.43,2.88,6.87,2.88,3.44-2.88,6.88-2.88,3.44,2.88,6.88,2.88,3.44-2.88,6.88-2.88,3.44,2.88,6.88,2.88,3.44-2.88,6.89-2.88,3.44,2.88,6.89,2.88" fill="none" stroke="#111f2d" stroke-linecap="round" stroke-miterlimit="10" stroke-width="3"/><path d="M32.63,72.64c3.44,0,3.44,2.88,6.88,2.88s3.44-2.88,6.88-2.88,3.43,2.88,6.87,2.88,3.44-2.88,6.88-2.88,3.44,2.88,6.88,2.88,3.44-2.88,6.88-2.88,3.44,2.88,6.88,2.88,3.44-2.88,6.89-2.88,3.44,2.88,6.89,2.88" fill="none" stroke="#111f2d" stroke-linecap="round" stroke-miterlimit="10" stroke-width="3"/><rect x="102.22" y="37.3" width="11" height="65" fill="#fff" stroke="#111f2d" stroke-linecap="round" stroke-miterlimit="10" stroke-width="3"/><line x1="102.22" y1="43.57" x2="105.72" y2="43.57" fill="none" stroke="#111f2d" stroke-linecap="round" stroke-miterlimit="10" stroke-width="3"/><line x1="102.22" y1="49.53" x2="107.72" y2="49.53" fill="none" stroke="#111f2d" stroke-linecap="round" stroke-miterlimit="10" stroke-width="3"/><line x1="102.22" y1="55.48" x2="105.72" y2="55.48" fill="none" stroke="#111f2d" stroke-linecap="round" stroke-miterlimit="10" stroke-width="3"/><line x1="102.22" y1="61.43" x2="107.72" y2="61.43" fill="none" stroke="#111f2d" stroke-linecap="round" stroke-miterlimit="10" stroke-width="3"/><line x1="102.22" y1="67.38" x2="105.72" y2="67.38" fill="none" stroke="#111f2d" stroke-linecap="round" stroke-miterlimit="10" stroke-width="3"/><line x1="102.22" y1="73.34" x2="107.72" y2="73.34" fill="none" stroke="#111f2d" stroke-linecap="round" stroke-miterlimit="10" stroke-width="3"/><line x1="102.22" y1="79.29" x2="105.72" y2="79.29" fill="none" stroke="#111f2d" stroke-linecap="round" stroke-miterlimit="10" stroke-width="3"/><line x1="102.22" y1="85.24" x2="107.72" y2="85.24" fill="none" stroke="#111f2d" stroke-linecap="round" stroke-miterlimit="10" stroke-width="3"/><line x1="102.22" y1="91.19" x2="105.72" y2="91.19" fill="none" stroke="#111f2d" stroke-linecap="round" stroke-miterlimit="10" stroke-width="3"/><line x1="102.22" y1="97.15" x2="107.72" y2="97.15" fill="none" stroke="#111f2d" stroke-linecap="round" stroke-miterlimit="10" stroke-width="3"/></svg>