<svg  data-name="Layer 1" xmlns="http://www.w3.org/2000/svg" viewBox="0 0 144 144"><title>archive</title><path d="M65.54,27.15A43.5,43.5,0,1,0,109,70.65,43.5,43.5,0,0,0,65.54,27.15Zm17,28.25-9.5,0,0-8.59ZM46,95.67l-.16-50.1L70,45.49h0l0,12.94,14.15,0,.06,17.54a13.1,13.1,0,0,0-2.82-.3h0a13.71,13.71,0,0,0-12.17,20Zm46.16-6.32a10.74,10.74,0,0,1-10.69,10.72h0a10.72,10.72,0,0,1,0-21.44h0a10.56,10.56,0,0,1,2.83.38,10.73,10.73,0,0,1,7.89,10.3Zm-5-.79L82.5,92.79l0-10.29a1.5,1.5,0,1,0-3,0l0,9.95-3.68-3.8a1.5,1.5,0,1,0-2.15,2.09L81,98.28l8.2-7.51a1.5,1.5,0,0,0-2-2.21Z" fill="#fff" fill-rule="evenodd" opacity="0.5"/><circle cx="65.53" cy="70.65" r="43.5" fill="none" stroke="#0c1f2e" stroke-miterlimit="10" stroke-width="3"/></svg>
