<svg  data-name="Layer 1" xmlns="http://www.w3.org/2000/svg" viewBox="0 0 144 144"><title>delete</title><path d="M66.41,28.5A43.5,43.5,0,1,0,109.91,72,43.5,43.5,0,0,0,66.41,28.5Zm17.1,26.82-9.5,0,0-8.58ZM47,95.59,46.81,45.5,71,45.42l0,12.94,14.15,0,0,18.06a13.32,13.32,0,0,0-2.46-.23h0A13.73,13.73,0,0,0,69,89.92a13.8,13.8,0,0,0,1.22,5.6Zm43.39,1.84a10.63,10.63,0,0,1-7.57,3.16h0a10.72,10.72,0,0,1,0-21.44h0a10.57,10.57,0,0,1,2.47.29,10.72,10.72,0,0,1,5.13,18ZM88.47,84.16a1.51,1.51,0,0,0-2.12,0l-3.59,3.59-3.59-3.59a1.51,1.51,0,0,0-2.12,0,1.49,1.49,0,0,0,0,2.12l3.59,3.6-3.59,3.59a1.49,1.49,0,0,0,0,2.12,1.5,1.5,0,0,0,2.12,0L82.76,92l3.59,3.59a1.53,1.53,0,0,0,1.06.44,1.5,1.5,0,0,0,1.06-2.56l-3.59-3.59,3.59-3.6A1.49,1.49,0,0,0,88.47,84.16Z" fill="#fff" fill-rule="evenodd" opacity="0.5"/><circle cx="66.41" cy="72" r="43.5" fill="none" stroke="#0c1f2e" stroke-miterlimit="10" stroke-width="3"/><text transform="translate(-28.63 180.54)" font-size="60" fill="#231f20" font-family="Montserrat-Bold, Montserrat" font-weight="700">1</text></svg>
