<svg  data-name="Layer 1" xmlns="http://www.w3.org/2000/svg" viewBox="0 0 144 144"><title>edit</title><path d="M67,28.5A43.5,43.5,0,1,0,110.52,72,43.51,43.51,0,0,0,67,28.5ZM84.34,54.73l-10.18,0,0-9.2ZM45.74,97.09l-.16-52.8,25.55-.08,0,13.56L86,57.72l.06,18.64a14.53,14.53,0,0,0-3-.31h0A14.39,14.39,0,0,0,70.31,97Zm48.73-6.66A11.39,11.39,0,0,1,83.13,101.8h0A11.4,11.4,0,0,1,73.81,97a11.37,11.37,0,0,1,9.25-18h0A11.39,11.39,0,0,1,94.47,90.39Zm-6.19-6.75a.46.46,0,0,0-.63.09L86.4,85l2.06,2.06,1.26-1.26a.48.48,0,0,0,.09-.63ZM77.8,93.62l2.06,2.06,7.89-7.88-2.06-2.06Zm-1.51,3.64,2.8-1L77.26,94.4Z" fill="#fff" fill-rule="evenodd" opacity="0.5"/><circle cx="67.02" cy="72" r="43.5" fill="none" stroke="#0c1f2e" stroke-miterlimit="10" stroke-width="3"/></svg>
