<svg  data-name="Layer 1" xmlns="http://www.w3.org/2000/svg" viewBox="0 0 144 144"><title>new draft</title><path d="M67,28.5A43.5,43.5,0,1,0,110.52,72,43.51,43.51,0,0,0,67,28.5ZM82.4,54.32l-9.5,0,0-8.59ZM45.86,94.59l-.16-50.1,24.17-.08h0l0,12.94,14.15,0,.06,18.07a12.82,12.82,0,0,0-2.49-.23h0A13.73,13.73,0,0,0,69.12,94.52Zm43.37,1.84a10.64,10.64,0,0,1-7.57,3.16h0a10.68,10.68,0,0,1-7.56-3.12,10.61,10.61,0,0,1-3.16-7.57A10.73,10.73,0,0,1,81.6,78.15h0a9.13,9.13,0,0,1,1.48.11,10.71,10.71,0,0,1,6.12,18.17Zm-1.39-8.9h-4.4V83.15a1.5,1.5,0,0,0-3,0v4.39H76.06a1.5,1.5,0,1,0,0,3h4.4v4.39a1.5,1.5,0,0,0,3,0V90.54h4.38A1.51,1.51,0,0,0,89.34,89,1.5,1.5,0,0,0,87.84,87.53Z" fill="#fff" fill-rule="evenodd" opacity="0.5"/><circle cx="67.02" cy="72" r="43.5" fill="none" stroke="#0c1f2e" stroke-miterlimit="10" stroke-width="3"/></svg>
