<svg  data-name="Layer 1" xmlns="http://www.w3.org/2000/svg" viewBox="0 0 144 144"><title>publish</title><path d="M70.8,32.57a43.5,43.5,0,1,0,43.5,43.5A43.49,43.49,0,0,0,70.8,32.57ZM88.23,60.63l-9.5,0,0-8.58ZM51.69,100.9l-.15-50.1,24.16-.07,0,12.94,14.15-.05L90,81.75a15.28,15.28,0,0,0-2.8-.29,13.73,13.73,0,0,0-12.47,19.37Zm43.1,1.84a10.59,10.59,0,0,1-7.57,3.16,10.55,10.55,0,0,1-7.58-3.12,10.81,10.81,0,0,1-1.57-2,10.62,10.62,0,0,1-1.6-5.61A10.73,10.73,0,0,1,87.16,84.46h0a10.63,10.63,0,0,1,2.77.36,10.72,10.72,0,0,1,4.83,17.92Zm-3-12.59L84.9,97.09,82.49,94.9a1.5,1.5,0,1,0-2,2.22L85,101.23l9-9a1.5,1.5,0,0,0-2.12-2.12Z" fill="#fff" fill-rule="evenodd" opacity="0.5"/><circle cx="70.8" cy="76.07" r="43.5" fill="none" stroke="#0c1f2e" stroke-miterlimit="10" stroke-width="3"/></svg>
