<svg  data-name="Layer 1" xmlns="http://www.w3.org/2000/svg" viewBox="0 0 144 144"><title>review</title><path d="M82,99.54a4.78,4.78,0,1,0-1.85,1.91l4.25,4.25,1.88-1.88Zm-4.23-.12a2.12,2.12,0,1,1,2.12-2.12A2.12,2.12,0,0,1,77.74,99.42ZM65.05,37.55a43.5,43.5,0,1,0,43.5,43.5A43.51,43.51,0,0,0,65.05,37.55ZM80.5,64.66l-9.5,0,0-8.58ZM44,104.93l-.15-50.09L68,54.76h0L68,67.7l14.15,0,.06,17.49a13.3,13.3,0,0,0-2.62-.26h0A13.74,13.74,0,0,0,65.89,98.66a13.57,13.57,0,0,0,1.5,6.2Zm43.25,1.24a10.64,10.64,0,0,1-7.57,3.16h0a10.63,10.63,0,0,1-7.55-3.11,11.61,11.61,0,0,1-1.17-1.37,10.6,10.6,0,0,1-2-6.2A10.73,10.73,0,0,1,79.57,87.89h0a10.36,10.36,0,0,1,2.63.33,10.73,10.73,0,0,1,5,18Z" fill="#fff" fill-rule="evenodd" opacity="0.5"/><circle cx="65.05" cy="81.05" r="43.5" fill="none" stroke="#0c1f2e" stroke-miterlimit="10" stroke-width="3"/><text transform="translate(107.8 180.54)" font-size="60" fill="#231f20" font-family="Montserrat-Bold, Montserrat" font-weight="700">2</text></svg>
