<svg width="16" height="22" viewBox="0 0 16 22" fill="none" xmlns="http://www.w3.org/2000/svg">
  <path id="Vector" d="M8 15.125C9.19309 15.1238 10.337 14.6493 11.1806 13.8056C12.0243 12.962 12.4988 11.8181 12.5 10.625V4.625C12.5 3.43153 12.0259 2.28693 11.182 1.44302C10.3381 0.599106 9.19347 0.125 8 0.125C6.80653 0.125 5.66193 0.599106 4.81802 1.44302C3.97411 2.28693 3.5 3.43153 3.5 4.625V10.625C3.50124 11.8181 3.97575 12.962 4.81939 13.8056C5.66303 14.6493 6.80691 15.1238 8 15.125ZM5 4.625C5 3.82935 5.31607 3.06629 5.87868 2.50368C6.44129 1.94107 7.20435 1.625 8 1.625C8.79565 1.625 9.55871 1.94107 10.1213 2.50368C10.6839 3.06629 11 3.82935 11 4.625V10.625C11 11.4206 10.6839 12.1837 10.1213 12.7463C9.55871 13.3089 8.79565 13.625 8 13.625C7.20435 13.625 6.44129 13.3089 5.87868 12.7463C5.31607 12.1837 5 11.4206 5 10.625V4.625ZM8.75 18.0875V21.125C8.75 21.3239 8.67098 21.5147 8.53033 21.6553C8.38968 21.796 8.19891 21.875 8 21.875C7.80109 21.875 7.61032 21.796 7.46967 21.6553C7.32902 21.5147 7.25 21.3239 7.25 21.125V18.0875C5.40091 17.8993 3.68728 17.0322 2.44048 15.6538C1.19368 14.2754 0.502284 12.4836 0.5 10.625C0.5 10.4261 0.579018 10.2353 0.71967 10.0947C0.860322 9.95402 1.05109 9.875 1.25 9.875C1.44891 9.875 1.63968 9.95402 1.78033 10.0947C1.92098 10.2353 2 10.4261 2 10.625C2 12.2163 2.63214 13.7424 3.75736 14.8676C4.88258 15.9929 6.4087 16.625 8 16.625C9.5913 16.625 11.1174 15.9929 12.2426 14.8676C13.3679 13.7424 14 12.2163 14 10.625C14 10.4261 14.079 10.2353 14.2197 10.0947C14.3603 9.95402 14.5511 9.875 14.75 9.875C14.9489 9.875 15.1397 9.95402 15.2803 10.0947C15.421 10.2353 15.5 10.4261 15.5 10.625C15.4977 12.4836 14.8063 14.2754 13.5595 15.6538C12.3127 17.0322 10.5991 17.8993 8.75 18.0875Z" fill="#58585B"/>
</svg>
