<svg xmlns="http://www.w3.org/2000/svg" width="18" height="18" viewBox="0 0 18 18" fill="none">
  <path d="M17.6208 15.8023C17.8622 16.0437 17.9979 16.3712 17.9979 16.7126C17.9979 17.054 17.8622 17.3815 17.6208 17.6229C17.3793 17.8644 17.0518 18 16.7104 18C16.3689 18 16.0415 17.8644 15.8 17.6229L9 10.8212L2.19785 17.6208C1.9564 17.8622 1.62893 17.9979 1.28747 17.9979C0.946013 17.9979 0.61854 17.8622 0.377092 17.6208C0.135644 17.3794 5.08813e-09 17.0519 0 16.7105C-5.08813e-09 16.369 0.135644 16.0416 0.377092 15.8001L7.17924 9.00054L0.379234 2.19879C0.137786 1.95736 0.00214212 1.6299 0.00214212 1.28847C0.00214212 0.947028 0.137786 0.619574 0.379234 0.37814C0.620682 0.136707 0.948155 0.0010708 1.28961 0.00107079C1.63107 0.00107079 1.95855 0.136707 2.19999 0.37814L9 7.17988L15.8021 0.377069C16.0436 0.135636 16.3711 -5.68837e-09 16.7125 0C17.054 5.68837e-09 17.3815 0.135636 17.6229 0.377069C17.8644 0.618503 18 0.945957 18 1.2874C18 1.62883 17.8644 1.95629 17.6229 2.19772L10.8208 9.00054L17.6208 15.8023Z" fill="#58585B"/>
</svg>
