<svg xmlns="http://www.w3.org/2000/svg" width="24" height="24" viewBox="0 0 24 24" fill="none">
  <path d="M14.5791 2.32591C14.4529 2.26445 14.3121 2.2396 14.1726 2.25419C14.033 2.26877 13.9004 2.3222 13.7897 2.40841L7.24219 7.49997H3C2.60218 7.49997 2.22064 7.65801 1.93934 7.93931C1.65804 8.22061 1.5 8.60215 1.5 8.99997V15C1.5 15.3978 1.65804 15.7793 1.93934 16.0606C2.22064 16.3419 2.60218 16.5 3 16.5H7.24219L13.7897 21.5915C13.9005 21.6777 14.0332 21.731 14.1728 21.7454C14.3124 21.7599 14.4533 21.7349 14.5793 21.6732C14.7054 21.6116 14.8117 21.5158 14.8861 21.3968C14.9604 21.2778 14.9999 21.1403 15 21V2.99997C15 2.85947 14.9606 2.72178 14.8861 2.6026C14.8117 2.48343 14.7053 2.38755 14.5791 2.32591ZM3 8.99997H6.75V15H3V8.99997ZM13.5 19.4662L8.25 15.3834V8.61653L13.5 4.53372V19.4662ZM18.5625 9.52122C19.1657 10.206 19.4986 11.0873 19.4986 12C19.4986 12.9126 19.1657 13.7939 18.5625 14.4787C18.43 14.6243 18.2456 14.712 18.049 14.7228C17.8524 14.7336 17.6595 14.6667 17.5118 14.5365C17.3642 14.4063 17.2736 14.2233 17.2597 14.0269C17.2458 13.8305 17.3097 13.6365 17.4375 13.4868C17.7992 13.076 17.9988 12.5474 17.9988 12C17.9988 11.4526 17.7992 10.9239 17.4375 10.5131C17.3097 10.3634 17.2458 10.1694 17.2597 9.97305C17.2736 9.77668 17.3642 9.59365 17.5118 9.46346C17.6595 9.33326 17.8524 9.26635 18.049 9.27716C18.2456 9.28796 18.43 9.37562 18.5625 9.52122ZM23.25 12C23.2511 13.8452 22.5711 15.6258 21.3403 17.0006C21.2067 17.1452 21.0216 17.2314 20.825 17.2407C20.6284 17.25 20.436 17.1817 20.2893 17.0504C20.1426 16.9191 20.0535 16.7354 20.041 16.5389C20.0286 16.3425 20.0939 16.149 20.2228 16.0003C21.2066 14.9003 21.7505 13.4762 21.7505 12.0004C21.7505 10.5246 21.2066 9.10062 20.2228 8.0006C20.1553 7.92753 20.103 7.84175 20.0689 7.74827C20.0349 7.65478 20.0197 7.55546 20.0245 7.45607C20.0292 7.35669 20.0536 7.25923 20.0963 7.16939C20.1391 7.07954 20.1993 6.99909 20.2734 6.93273C20.3475 6.86638 20.4341 6.81543 20.5281 6.78287C20.6222 6.7503 20.7217 6.73677 20.821 6.74305C20.9203 6.74934 21.0173 6.77532 21.1065 6.81948C21.1957 6.86364 21.2751 6.9251 21.3403 7.00028C22.5714 8.37449 23.2515 10.155 23.25 12Z" fill="#555555"/>
</svg>
