<svg xmlns="http://www.w3.org/2000/svg" width="22" height="20" viewBox="0 0 22 20" fill="none">
  <path d="M20.9371 6.63625C20.7259 6.39693 20.4662 6.20528 20.1753 6.07403C19.8844 5.94278 19.5688 5.87494 19.2496 5.875H13.9996V4.375C13.9996 3.38044 13.6045 2.42661 12.9013 1.72335C12.198 1.02009 11.2442 0.625 10.2496 0.625C10.1103 0.6249 9.97369 0.663617 9.85513 0.736808C9.73657 0.809999 9.64074 0.914771 9.57838 1.03938L6.03651 8.125H1.99963C1.60181 8.125 1.22028 8.28304 0.938974 8.56434C0.657669 8.84564 0.499634 9.22718 0.499634 9.625V17.875C0.499634 18.2728 0.657669 18.6544 0.938974 18.9357C1.22028 19.217 1.60181 19.375 1.99963 19.375H18.1246C18.6728 19.3752 19.2022 19.1753 19.6134 18.8128C20.0245 18.4503 20.2892 17.9501 20.3578 17.4062L21.4828 8.40625C21.5226 8.0894 21.4946 7.76768 21.4005 7.4625C21.3064 7.15732 21.1485 6.87566 20.9371 6.63625ZM1.99963 9.625H5.74963V17.875H1.99963V9.625ZM19.994 8.21875L18.869 17.2188C18.8462 17.4 18.7579 17.5668 18.6209 17.6876C18.4838 17.8084 18.3074 17.8751 18.1246 17.875H7.24963V9.05219L10.6912 2.16813C11.2013 2.27021 11.6602 2.5459 11.99 2.94826C12.3197 3.35062 12.4998 3.8548 12.4996 4.375V6.625C12.4996 6.82391 12.5787 7.01468 12.7193 7.15533C12.86 7.29598 13.0507 7.375 13.2496 7.375H19.2496C19.3561 7.37496 19.4613 7.39758 19.5583 7.44134C19.6553 7.48511 19.7419 7.54902 19.8123 7.62883C19.8827 7.70863 19.9353 7.80252 19.9667 7.90423C19.998 8.00594 20.0073 8.11316 19.994 8.21875Z" fill="#288BE4"/>
</svg>
