<svg xmlns="http://www.w3.org/2000/svg" width="22" height="20" viewBox="0 0 22 20" fill="none">
  <path d="M21.4828 11.5938L20.3578 2.59375C20.2892 2.04989 20.0245 1.54975 19.6134 1.18724C19.2022 0.824741 18.6728 0.624812 18.1246 0.625H1.99963C1.60181 0.625 1.22028 0.783035 0.938974 1.06434C0.657669 1.34564 0.499634 1.72718 0.499634 2.125V10.375C0.499634 10.7728 0.657669 11.1544 0.938974 11.4357C1.22028 11.717 1.60181 11.875 1.99963 11.875H6.03651L9.57838 18.9606C9.64074 19.0852 9.73657 19.19 9.85513 19.2632C9.97369 19.3364 10.1103 19.3751 10.2496 19.375C11.2442 19.375 12.198 18.9799 12.9013 18.2766C13.6045 17.5734 13.9996 16.6196 13.9996 15.625V14.125H19.2496C19.5689 14.1251 19.8846 14.0573 20.1756 13.926C20.4667 13.7947 20.7264 13.603 20.9377 13.3635C21.1489 13.1241 21.3067 12.8425 21.4007 12.5373C21.4947 12.2322 21.5227 11.9105 21.4828 11.5938ZM5.74963 10.375H1.99963V2.125H5.74963V10.375ZM19.8121 12.3709C19.7422 12.4513 19.6558 12.5157 19.5587 12.5595C19.4616 12.6034 19.3562 12.6257 19.2496 12.625H13.2496C13.0507 12.625 12.86 12.704 12.7193 12.8447C12.5787 12.9853 12.4996 13.1761 12.4996 13.375V15.625C12.4998 16.1452 12.3197 16.6494 11.99 17.0517C11.6602 17.4541 11.2013 17.7298 10.6912 17.8319L7.24963 10.9478V2.125H18.1246C18.3074 2.12494 18.4838 2.19158 18.6209 2.31242C18.7579 2.43325 18.8462 2.59996 18.869 2.78125L19.994 11.7812C20.0081 11.8868 19.9991 11.9942 19.9677 12.096C19.9363 12.1978 19.8832 12.2916 19.8121 12.3709Z" fill="#288BE4
"/>
</svg>
