<svg width="32" height="32" viewBox="0 0 32 32" fill="none" xmlns="http://www.w3.org/2000/svg">
  <path d="M24.6975 16.1325L18.25 13.75L15.875 7.2975C15.7344 6.91541 15.4799 6.58566 15.146 6.35273C14.812 6.11981 14.4147 5.99492 14.0075 5.99492C13.6004 5.99492 13.203 6.11981 12.8691 6.35273C12.5351 6.58566 12.2807 6.91541 12.14 7.2975L9.75002 13.75L3.29752 16.125C2.91543 16.2656 2.58567 16.5201 2.35275 16.854C2.11982 17.188 1.99493 17.5853 1.99493 17.9925C1.99493 18.3997 2.11982 18.797 2.35275 19.131C2.58567 19.4649 2.91543 19.7194 3.29752 19.86L9.75002 22.25L12.125 28.7025C12.2657 29.0846 12.5201 29.4143 12.8541 29.6473C13.188 29.8802 13.5854 30.0051 13.9925 30.0051C14.3997 30.0051 14.797 29.8802 15.131 29.6473C15.4649 29.4143 15.7194 29.0846 15.86 28.7025L18.25 22.25L24.7025 19.875C25.0846 19.7344 25.4144 19.4799 25.6473 19.146C25.8802 18.812 26.0051 18.4147 26.0051 18.0075C26.0051 17.6003 25.8802 17.203 25.6473 16.869C25.4144 16.5351 25.0846 16.2806 24.7025 16.14L24.6975 16.1325ZM17.125 20.5275C16.9893 20.5775 16.866 20.6564 16.7637 20.7587C16.6614 20.861 16.5825 20.9843 16.5325 21.12L14 27.9813L11.4725 21.125C11.4226 20.9878 11.3432 20.8633 11.24 20.76C11.1368 20.6568 11.0122 20.5774 10.875 20.5275L4.01877 18L10.875 15.4725C11.0122 15.4226 11.1368 15.3432 11.24 15.24C11.3432 15.1367 11.4226 15.0122 11.4725 14.875L14 8.01875L16.5275 14.875C16.5775 15.0107 16.6564 15.134 16.7587 15.2363C16.861 15.3386 16.9843 15.4175 17.12 15.4675L23.9813 18L17.125 20.5275ZM18 5C18 4.73478 18.1054 4.48043 18.2929 4.29289C18.4804 4.10536 18.7348 4 19 4H21V2C21 1.73478 21.1054 1.48043 21.2929 1.29289C21.4804 1.10536 21.7348 1 22 1C22.2652 1 22.5196 1.10536 22.7071 1.29289C22.8947 1.48043 23 1.73478 23 2V4H25C25.2652 4 25.5196 4.10536 25.7071 4.29289C25.8947 4.48043 26 4.73478 26 5C26 5.26522 25.8947 5.51957 25.7071 5.70711C25.5196 5.89464 25.2652 6 25 6H23V8C23 8.26522 22.8947 8.51957 22.7071 8.70711C22.5196 8.89464 22.2652 9 22 9C21.7348 9 21.4804 8.89464 21.2929 8.70711C21.1054 8.51957 21 8.26522 21 8V6H19C18.7348 6 18.4804 5.89464 18.2929 5.70711C18.1054 5.51957 18 5.26522 18 5ZM31 11C31 11.2652 30.8947 11.5196 30.7071 11.7071C30.5196 11.8946 30.2652 12 30 12H29V13C29 13.2652 28.8947 13.5196 28.7071 13.7071C28.5196 13.8946 28.2652 14 28 14C27.7348 14 27.4804 13.8946 27.2929 13.7071C27.1054 13.5196 27 13.2652 27 13V12H26C25.7348 12 25.4804 11.8946 25.2929 11.7071C25.1054 11.5196 25 11.2652 25 11C25 10.7348 25.1054 10.4804 25.2929 10.2929C25.4804 10.1054 25.7348 10 26 10H27V9C27 8.73478 27.1054 8.48043 27.2929 8.29289C27.4804 8.10536 27.7348 8 28 8C28.2652 8 28.5196 8.10536 28.7071 8.29289C28.8947 8.48043 29 8.73478 29 9V10H30C30.2652 10 30.5196 10.1054 30.7071 10.2929C30.8947 10.4804 31 10.7348 31 11Z" fill="#288BE4"/>
</svg>
