<svg xmlns="http://www.w3.org/2000/svg" width="24" height="24" viewBox="0 0 24 24" fill="none">
  <path d="M18.5232 12.0994L13.6875 10.3125L11.9063 5.47312C11.8008 5.18656 11.6099 4.93924 11.3595 4.76455C11.109 4.58985 10.811 4.49619 10.5057 4.49619C10.2003 4.49619 9.90227 4.58985 9.65182 4.76455C9.40136 4.93924 9.21051 5.18656 9.10503 5.47312L7.31253 10.3125L2.47315 12.0938C2.18659 12.1992 1.93927 12.3901 1.76458 12.6405C1.58988 12.891 1.49622 13.189 1.49622 13.4944C1.49622 13.7997 1.58988 14.0978 1.76458 14.3482C1.93927 14.5987 2.18659 14.7895 2.47315 14.895L7.31253 16.6875L9.09378 21.5269C9.19926 21.8134 9.39011 22.0608 9.64056 22.2355C9.89102 22.4101 10.189 22.5038 10.4944 22.5038C10.7998 22.5038 11.0978 22.4101 11.3482 22.2355C11.5987 22.0608 11.7895 21.8134 11.895 21.5269L13.6875 16.6875L18.5269 14.9062C18.8135 14.8008 19.0608 14.6099 19.2355 14.3595C19.4102 14.109 19.5038 13.811 19.5038 13.5056C19.5038 13.2003 19.4102 12.9022 19.2355 12.6518C19.0608 12.4013 18.8135 12.2105 18.5269 12.105L18.5232 12.0994ZM12.8438 15.3956C12.742 15.4331 12.6495 15.4923 12.5728 15.569C12.4961 15.6457 12.4369 15.7382 12.3994 15.84L10.5 20.9859L8.6044 15.8438C8.56694 15.7409 8.50741 15.6474 8.43 15.57C8.35258 15.4926 8.25915 15.4331 8.15628 15.3956L3.01409 13.5L8.15628 11.6044C8.25915 11.5669 8.35258 11.5074 8.43 11.43C8.50741 11.3526 8.56694 11.2591 8.6044 11.1562L10.5 6.01406L12.3957 11.1562C12.4332 11.2581 12.4923 11.3505 12.5691 11.4272C12.6458 11.5039 12.7382 11.5631 12.84 11.6006L17.986 13.5L12.8438 15.3956ZM13.5 3.75C13.5 3.55109 13.579 3.36032 13.7197 3.21967C13.8603 3.07902 14.0511 3 14.25 3H15.75V1.5C15.75 1.30109 15.829 1.11032 15.9697 0.96967C16.1103 0.829018 16.3011 0.75 16.5 0.75C16.6989 0.75 16.8897 0.829018 17.0304 0.96967C17.171 1.11032 17.25 1.30109 17.25 1.5V3H18.75C18.9489 3 19.1397 3.07902 19.2804 3.21967C19.421 3.36032 19.5 3.55109 19.5 3.75C19.5 3.94891 19.421 4.13968 19.2804 4.28033C19.1397 4.42098 18.9489 4.5 18.75 4.5H17.25V6C17.25 6.19891 17.171 6.38968 17.0304 6.53033C16.8897 6.67098 16.6989 6.75 16.5 6.75C16.3011 6.75 16.1103 6.67098 15.9697 6.53033C15.829 6.38968 15.75 6.19891 15.75 6V4.5H14.25C14.0511 4.5 13.8603 4.42098 13.7197 4.28033C13.579 4.13968 13.5 3.94891 13.5 3.75ZM23.25 8.25C23.25 8.44891 23.171 8.63968 23.0304 8.78033C22.8897 8.92098 22.6989 9 22.5 9H21.75V9.75C21.75 9.94891 21.671 10.1397 21.5304 10.2803C21.3897 10.421 21.1989 10.5 21 10.5C20.8011 10.5 20.6103 10.421 20.4697 10.2803C20.329 10.1397 20.25 9.94891 20.25 9.75V9H19.5C19.3011 9 19.1103 8.92098 18.9697 8.78033C18.829 8.63968 18.75 8.44891 18.75 8.25C18.75 8.05109 18.829 7.86032 18.9697 7.71967C19.1103 7.57902 19.3011 7.5 19.5 7.5H20.25V6.75C20.25 6.55109 20.329 6.36032 20.4697 6.21967C20.6103 6.07902 20.8011 6 21 6C21.1989 6 21.3897 6.07902 21.5304 6.21967C21.671 6.36032 21.75 6.55109 21.75 6.75V7.5H22.5C22.6989 7.5 22.8897 7.57902 23.0304 7.71967C23.171 7.86032 23.25 8.05109 23.25 8.25Z" fill="white"/>
</svg>
