<svg width="20" height="20" viewBox="0 0 20 20" fill="none" xmlns="http://www.w3.org/2000/svg">
<path id="Vector" d="M19.707 18.2931C19.7999 18.386 19.8736 18.4963 19.9239 18.6177C19.9741 18.7391 20 18.8692 20 19.0006C20 19.132 19.9741 19.2621 19.9239 19.3835C19.8736 19.5048 19.7999 19.6151 19.707 19.7081C19.614 19.801 19.5037 19.8747 19.3824 19.9249C19.261 19.9752 19.1309 20.0011 18.9995 20.0011C18.8681 20.0011 18.738 19.9752 18.6166 19.9249C18.4952 19.8747 18.3849 19.801 18.292 19.7081L9.99946 11.4143L1.70696 19.7081C1.51932 19.8957 1.26482 20.0011 0.999457 20.0011C0.734093 20.0011 0.479598 19.8957 0.291957 19.7081C0.104317 19.5204 -0.00109863 19.2659 -0.00109863 19.0006C-0.00109864 18.7352 0.104317 18.4807 0.291957 18.2931L8.58571 10.0006L0.291957 1.70806C0.104317 1.52042 -0.00109863 1.26592 -0.00109863 1.00056C-0.00109863 0.735192 0.104317 0.480697 0.291957 0.293056C0.479598 0.105415 0.734093 0 0.999457 0C1.26482 0 1.51932 0.105415 1.70696 0.293056L9.99946 8.58681L18.292 0.293056C18.4796 0.105415 18.7341 -5.23096e-09 18.9995 0C19.2648 5.23096e-09 19.5193 0.105415 19.707 0.293056C19.8946 0.480697 20 0.735192 20 1.00056C20 1.26592 19.8946 1.52042 19.707 1.70806L11.4132 10.0006L19.707 18.2931Z" fill="#58585B"/>
</svg>
