<svg  data-name="Layer 1" xmlns="http://www.w3.org/2000/svg" viewBox="0 0 144 144"><title>three column</title><line x1="39.9" y1="49.49" x2="6.5" y2="49.49" fill="none" stroke="#0f1f2d" stroke-linecap="round" stroke-miterlimit="10" stroke-width="3"/><line x1="39.9" y1="60.58" x2="6.5" y2="60.58" fill="none" stroke="#0f1f2d" stroke-linecap="round" stroke-miterlimit="10" stroke-width="3"/><line x1="39.9" y1="72" x2="6.5" y2="72" fill="none" stroke="#0f1f2d" stroke-linecap="round" stroke-miterlimit="10" stroke-width="3"/><line x1="39.9" y1="83.09" x2="6.5" y2="83.09" fill="none" stroke="#0f1f2d" stroke-linecap="round" stroke-miterlimit="10" stroke-width="3"/><line x1="39.9" y1="94.51" x2="6.5" y2="94.51" fill="none" stroke="#0f1f2d" stroke-linecap="round" stroke-miterlimit="10" stroke-width="3"/><line x1="88.7" y1="49.49" x2="55.3" y2="49.49" fill="none" stroke="#0f1f2d" stroke-linecap="round" stroke-miterlimit="10" stroke-width="3"/><line x1="88.7" y1="60.58" x2="55.3" y2="60.58" fill="none" stroke="#0f1f2d" stroke-linecap="round" stroke-miterlimit="10" stroke-width="3"/><line x1="88.7" y1="72" x2="55.3" y2="72" fill="none" stroke="#0f1f2d" stroke-linecap="round" stroke-miterlimit="10" stroke-width="3"/><line x1="88.7" y1="83.09" x2="55.3" y2="83.09" fill="none" stroke="#0f1f2d" stroke-linecap="round" stroke-miterlimit="10" stroke-width="3"/><line x1="88.7" y1="94.51" x2="55.3" y2="94.51" fill="none" stroke="#0f1f2d" stroke-linecap="round" stroke-miterlimit="10" stroke-width="3"/><line x1="137.5" y1="49.49" x2="104.1" y2="49.49" fill="none" stroke="#0f1f2d" stroke-linecap="round" stroke-miterlimit="10" stroke-width="3"/><line x1="137.5" y1="60.58" x2="104.1" y2="60.58" fill="none" stroke="#0f1f2d" stroke-linecap="round" stroke-miterlimit="10" stroke-width="3"/><line x1="137.5" y1="72" x2="104.1" y2="72" fill="none" stroke="#0f1f2d" stroke-linecap="round" stroke-miterlimit="10" stroke-width="3"/><line x1="137.5" y1="83.09" x2="104.1" y2="83.09" fill="none" stroke="#0f1f2d" stroke-linecap="round" stroke-miterlimit="10" stroke-width="3"/><line x1="137.5" y1="94.51" x2="104.1" y2="94.51" fill="none" stroke="#0f1f2d" stroke-linecap="round" stroke-miterlimit="10" stroke-width="3"/></svg>
