<svg  data-name="Layer 1" xmlns="http://www.w3.org/2000/svg" viewBox="0 0 144 144"><title>city score</title><path d="M65.58,81.86H49.38V62.17h16.2Zm-15.83-.37H65.21V62.54H49.75Z" fill="#1b1b1b"/><path d="M82.51,81.86H66.31V62.17h16.2Zm-15.83-.37H82.14V62.54H66.68Z" fill="#1b1b1b"/><path d="M99.26,81.86H83.06V62.17h16.2Zm-15.83-.37H98.89V62.54H83.43Z" fill="#1b1b1b"/><path d="M116.19,81.86H100V62.17h16.19Zm-15.83-.37h15.47V62.54H100.36Z" fill="#1b1b1b"/><path d="M132.94,81.86H116.75V62.17h16.19Zm-15.83-.37h15.47V62.54H117.11Z" fill="#1b1b1b"/><path d="M10,65.65h.15s0,0,0,0h0a0,0,0,0,1,0,0h.13l.22,0a0,0,0,0,0,0,0c.2,0,.3,0,.3,0h0a2.35,2.35,0,0,1,.61.13l.27.13a2.64,2.64,0,0,1,.54.32,2.81,2.81,0,0,1,.52.44,3.29,3.29,0,0,1,.64.61,4,4,0,0,1,.61.85.41.41,0,0,1,.11.22L12.79,69c-.35.17-.57.29-.68.36s-.18-.14-.32-.4a2,2,0,0,0-.75-.77A2.55,2.55,0,0,0,10,67.8a1.08,1.08,0,0,0-.32,0h0a3.06,3.06,0,0,0-.41.1.71.71,0,0,0-.26.15.46.46,0,0,0-.16.1,1.24,1.24,0,0,0-.31.23,2.91,2.91,0,0,0-.32.34,4.32,4.32,0,0,0-.6,1.08c0,.11,0,.17-.08.17v0c0,.14-.12.39-.22.75v0l-.06.2s0,0,0,0a1.24,1.24,0,0,0-.05.29v.06a0,0,0,0,0,0,0v.1h0a0,0,0,0,1,0,0s0,.07,0,.07v.08a0,0,0,0,1,0,0h0v0a.21.21,0,0,0,0,.06h0c0,.15,0,.28,0,.41a1.67,1.67,0,0,1,0,.19.07.07,0,0,1,0,0h0s0,0,0,0a.26.26,0,0,1,0,.07v.09a.32.32,0,0,0,0,.07c0,.2,0,.3,0,.3h0a2.12,2.12,0,0,0,.08.41c.1.43.18.76.26,1a2.05,2.05,0,0,1,.16.37l.19.35a1.18,1.18,0,0,0,.17.28,0,0,0,0,0,0,0,1.72,1.72,0,0,1,.23.24,2.71,2.71,0,0,0,.79.59,2.17,2.17,0,0,0,.56.22.5.5,0,0,0,.33.07H10l.1,0h.05a.63.63,0,0,1,.25-.06h0a1.86,1.86,0,0,0,.63-.34,5,5,0,0,0,.78-.8,8.51,8.51,0,0,0,.5-1.2h0s.64.2,1.77.51a2.9,2.9,0,0,0,.38.11l.09.06h0l-.13.4c-.09.25-.18.46-.26.65a6,6,0,0,1-.74,1.06,6,6,0,0,1-.87.85,3.33,3.33,0,0,1-.62.47,5.43,5.43,0,0,1-.53.28.68.68,0,0,1-.36.15,3.69,3.69,0,0,1-.52.1h-.25a0,0,0,0,0,0,0h-.22l-.83-.07s0,0-.05,0h0a1.55,1.55,0,0,1-.54-.12A6.37,6.37,0,0,1,8,78.26a2.64,2.64,0,0,1-.58-.38,5.48,5.48,0,0,1-.92-.83,7.29,7.29,0,0,1-.59-.79,1.55,1.55,0,0,0-.21-.43l-.13-.29a2.75,2.75,0,0,1-.13-.3.5.5,0,0,1-.06-.14,5.63,5.63,0,0,1-.18-.75s0,0,0,0h0c0-.19-.1-.55-.17-1.07a.15.15,0,0,0,0-.07.51.51,0,0,1,0-.1c0-.31-.06-.85-.1-1.61,0,0,0-.07,0-.12v0h0a4.22,4.22,0,0,1,.1-.73,1.78,1.78,0,0,1,.07-.42v0a7.56,7.56,0,0,1,.41-1.22,4.91,4.91,0,0,1,.27-.53,5.45,5.45,0,0,1,.59-.87,1.64,1.64,0,0,0,.24-.3A4.83,4.83,0,0,0,7,66.79a2.55,2.55,0,0,1,.55-.43,3.94,3.94,0,0,1,1-.54l.43-.1H9l.12,0h0l.54-.06H10ZM6.55,67.8h0a.12.12,0,0,0,0,0h0Zm7,8.11h0v0h0Z" fill="#1b1b1b"/><path d="M18.52,65.65h.06s0,0,0,0h0s0,0,0,0H19s0,0,0,0,0,0,0,0h.36a0,0,0,0,0,0,0h.36s0,0,0,0h.19s0,0,0,0a0,0,0,0,1,0,0s0,.19,0,.47h0a1.23,1.23,0,0,0,0,.13s0,0,0,0h0a0,0,0,0,1,0,0,.08.08,0,0,1,0,0v0h0v.48s0,0,0,0V67a.06.06,0,0,0,0,0s0,0,0,0,0,0,0,0v.14a0,0,0,0,0,0,0h0v.17h0a0,0,0,0,1,0,0s0,.13,0,.25v0A1,1,0,0,0,20,68V68h0a0,0,0,0,1,0,0,.28.28,0,0,0,0,.06v0a.32.32,0,0,1,0,.07v.16a0,0,0,0,0,0,0h0a1.4,1.4,0,0,0,0,.23,0,0,0,0,1,0,0h0a.41.41,0,0,1,0,.07v.11A.28.28,0,0,0,20,69v0s0,0,0,0,0,.09,0,.09v.16a0,0,0,0,1,0,0v0a.06.06,0,0,1,0,0,0,0,0,0,1,0,0v.29a.06.06,0,0,1,0,0h0v.23a.72.72,0,0,0,0,.13h0v0s0,0,0,0a.08.08,0,0,0,0,0,1.41,1.41,0,0,0,0,.2v0s0,0,0,0v0h0v.19a0,0,0,0,1,0,0,0,0,0,0,1,0,0,1.49,1.49,0,0,1,0,.17h0V71s0,0,0,0,0,.06,0,.14v0s0,0,0,0v.09a.17.17,0,0,1,0,.07h0a0,0,0,0,0,0,0,.56.56,0,0,1,0,.07,0,0,0,0,0,0,0v.21s0,0,0,0v.36s0,0,0,0v0s0,0,0,0v.2a.71.71,0,0,1,0,.14v0s0,.06,0,.08v0s0,0,0,0l0,0v0a.12.12,0,0,1,0,0v.12h0v0a.31.31,0,0,1,0,.09v.09a.43.43,0,0,0,0,.05v.12a.14.14,0,0,1,0,.06v.28h0v.17h0v.68h0v.1h0a.36.36,0,0,1,0,.1h0v0h0v0h0v.06h0v.05s0,0,0,0v.13s0,0,0,0v0s0,0,0,0h0a.08.08,0,0,0,0,0s0,0,0,0v0a.2.2,0,0,0,0,.07.37.37,0,0,0,0,.11h0v.7s0,0,0,0,0,0,0,0v.5h0v.14l0,0a.17.17,0,0,1,0,0h0v0h0a0,0,0,0,1,0,0v.23s0,0,0,0v0h0s0,0,0,0,0,0,0,.06h0v.18s0,0,0,0h0v.1s0,0,0,0,0,0,0,0a.44.44,0,0,0,0,.09V78a.22.22,0,0,0,0,.06v0a0,0,0,0,0,0,0h0s0,0,0,0v.26c0,.09,0,.14,0,.15v0s0,0,0,0,0,.13,0,.14,0,0,0,0h-.55l0,0h-.68s0,0,0,0H18.5s0,0,0,0h-.83v0a.06.06,0,0,0,0,0v-.61h0V78h0v-.06a0,0,0,0,1,0,0,0,0,0,0,1,0,0v-.18h0a0,0,0,0,1,0,0c0-.16,0-.29,0-.38v-.14a0,0,0,0,1,0,0,.71.71,0,0,0,0-.12h0a1.28,1.28,0,0,1,0-.19,0,0,0,0,1,0,0h0v-.2h0v-.1c0-.06,0-.19,0-.38v0s0,0,0,0v-.08s0,0,0,0a.08.08,0,0,1,0,0v-.08s0,0,0,0v-.06a0,0,0,0,1,0,0,.08.08,0,0,1,0,0v0a0,0,0,0,1,0,0V75.2c0-.09,0-.2,0-.34v0a0,0,0,0,0,0,0v0a0,0,0,0,0,0,0v-.39h0v-.09c0-.09,0-.2,0-.31s0,0,0,0v-.75s0,0,0-.08,0,0,0,0v-.29c0-.08,0-.19,0-.33a.1.1,0,0,1,0,0h0v0h0v-.06h0v-.68a0,0,0,0,1,0,0s0,0,0,0v-.46h0l0,0h0a.29.29,0,0,1,0-.09h0l0,0v-.92s0,0,0,0,0,0,0,0v-.16a.05.05,0,0,0,0,0s0-.08,0-.14,0,0,0,0l0-.06v0c0-.06,0-.17,0-.3h0v0a1.15,1.15,0,0,0,0-.14v-.2a0,0,0,0,1,0,0v0s0-.08,0-.09v-.18s0,0,0,0,0,0,0,0v0a.1.1,0,0,0,0,0V67.35s0,0,0-.1v0h0s0-.07,0-.1a0,0,0,0,1,0,0h0c0-.06,0-.09,0-.11l0-.09a.08.08,0,0,1,0,0v-.09a.06.06,0,0,1,0,0,.45.45,0,0,1,0-.11v0s0,0,0,0v-.51s0,0,0,0,0,0,0,0,0-.08,0-.15h0v0h0v-.15a0,0,0,0,1,0,0h.74A0,0,0,0,1,18.52,65.65Zm-.64,3.49h0s0,0,0,0h0Zm.4,6,0,0h0Zm1.31-7.48s0,0,0,0h0v0h0Zm.28-2v0h0a0,0,0,0,0,0,0Z" fill="#1b1b1b"/><path d="M32.51,65.68a.58.58,0,0,0,0,.1c0,.19,0,.31,0,.36h0V67s0,0,0,0v0s0,.07,0,.09h0a0,0,0,0,1,0,0v.58a.43.43,0,0,1,0,0,.5.5,0,0,1,0,.11s-.07,0-.14,0H32s0,0,0,0H28.89c-.05,0-.07,0-.07.14v0a.05.05,0,0,1,0,.06v0h0v.31a0,0,0,0,0,0,0s0,0,0,0,0,.07,0,.09h0s0,.06,0,.09V69s0,0,0,0v.08a0,0,0,0,0,0,0v.06h0v.31s0,.06,0,.09,0,.05,0,.07v.16s0,0,0,0V70h0v.28a.92.92,0,0,0,0,.15.08.08,0,0,0,0,0,.2.2,0,0,1,0,.07v0s0,0,0,0a1.23,1.23,0,0,0,0,.17v.22s0,0,0,0a0,0,0,0,0,0,0,0,0,0,0,1,0,0h0v.33a1.48,1.48,0,0,1,0,.2.31.31,0,0,1,0,.11v0a.09.09,0,0,1,0,0s0,0,0,0v.41l0,0,0,0v.16a.34.34,0,0,1,0,.09v0s0,0,0,0v.41s0,0,0,0a1.15,1.15,0,0,1,0,.14.08.08,0,0,1,0,0s0,0,0,0v0s0,0,0,0v.41s0,.09,0,.16v0h0v.53s0,0,0,0,0,0,0,0v.28s0,.09,0,.16h0v0s0,0,0,0v0s0,0,0,0v.52h0v.4s0,0,0,0h0V76c0,.06,0,.11,0,.15a0,0,0,0,1,0,0h0v.19a.43.43,0,0,0,0,.05h0c0,.11,0,.2,0,.26v.26h0v0s0,0,0,0a0,0,0,0,1,0,0s0,0,0,0a.31.31,0,0,1,0,.09v0s0,0,0,0a0,0,0,0,0,0,0c0,.1,0,.18,0,.24v.19a.06.06,0,0,1,0,0h0v.06s0,.09,0,.19h0v0h0v.16c0,.09,0,.23,0,.41h0v.14s0,0-.06,0h-.74s0,0,0,0h-.88a0,0,0,0,0,0,0h-.24a0,0,0,0,1,0,0H26.6s0,0,0,0,0-.11,0-.23v0s0,0,0,0V78a.07.07,0,0,0,0-.05V77.9a.08.08,0,0,0,0,0h0V77.8h0s0,0,0,0h0v0s0,0,0,0v-.17h0c0-.2,0-.34,0-.44V77a.45.45,0,0,1,0-.11.08.08,0,0,1,0,0v0s0,0,0,0v-.3a0,0,0,0,1,0,0s0,0,0,0V76.3a.08.08,0,0,1,0-.08v-.1s0,0,0,0v-.06h0v0h0s0,0,0,0v-.18h0a0,0,0,0,0,0,0v-.4c0-.1,0-.2,0-.32a.08.08,0,0,0,0,0,1.56,1.56,0,0,0,0-.2v-.37a.06.06,0,0,0,0,0s0,0,0,0h0s0,0,0-.06,0-.15,0-.15v-.4s0,0,0,0h0a.1.1,0,0,1,0,0s0,0,0,0,0,0,0,0l0-.86s0,0,0,0v-.37c0-.32,0-.53,0-.62v-.06c0-.11,0-.19,0-.23h0a0,0,0,0,0,0,0v0a0,0,0,0,0,0,0s0,0,0,0V70.23a2.09,2.09,0,0,0,0-.24s0,0,0-.06v0c0-.11,0-.19,0-.25v-.18c0-.14,0-.42,0-.82h0s0,0,0,0v-.3s0,0,0,0h0c0-.07,0-.12,0-.15v-.08a.08.08,0,0,1,0,0h-.33s0,0,0,0H26s0,0,0,0h-.2c-.13,0-.19,0-.19,0h-.09s0,0,0,0H24.18a0,0,0,0,0,0,0H24c-.06,0-.1,0-.1,0h-.51s-.06,0-.06,0v-.34c0-.06,0-.15,0-.27s0,0,0,0,0,0,0-.13a.1.1,0,0,0,0,0v0s0,0,0,0v-.07s0,0,0,0h0c0-.42,0-.76,0-1V65.9a.07.07,0,0,1,0-.05v-.07s0,0,0,0h.3l.51,0h0s0,0,0,0H25s0,0,0,0h1.5a0,0,0,0,0,0,0h1.28l1.12,0h0a0,0,0,0,0,0,0c.08,0,.11,0,.11,0h1.19s0,0,0,0a.15.15,0,0,1,.09,0s0,0,0,0h.14s0,0,0,0h.95l.06,0s0,0,0,0l.06,0h.87S32.49,65.68,32.51,65.68Zm-6.23,1.74h0v0h0Z" fill="#1b1b1b"/><path d="M44.22,65.75H45s0,.08-.1.2l-1,2-.33.71-.54,1.23-.28.59c-.39.91-.69,1.6-.91,2.07l-.43,1a.51.51,0,0,0-.08.21v0a.35.35,0,0,1,0,.07s0,.07,0,.07v0h0V74c0,.11,0,.25,0,.42v0a.08.08,0,0,1,0,0h0v.11a0,0,0,0,0,0,0c0,.07,0,.12,0,.15V75a.24.24,0,0,0,0,.09,0,0,0,0,1,0,0,.82.82,0,0,1,0,.14v0s0,0,0,0v.27a.66.66,0,0,0,0,.13v0a.06.06,0,0,1,0,0s0,0,0,0v.36h0v.06h0a.08.08,0,0,1,0,0c0,.09,0,.34,0,.73v.08h0a0,0,0,0,1,0,0v.13a0,0,0,0,1,0,0v.26s0,0,0,0v.08s0,0,0,0V78s0,0,0,0a.07.07,0,0,0,0,0s0,0,0,0v.14a.06.06,0,0,0,0,0h0a.08.08,0,0,0,0,0c0,.12,0,.22,0,.29v0h0s0,.05,0,.1,0,0,0,0H39.85s0,0,0,0h-.4s0,0,0,0h-.1q-.18,0-.18,0v-.45s0,0,0,0a.27.27,0,0,1,0-.13.35.35,0,0,1,0-.06,0,0,0,0,0,0,0v-.71s0,0,0,0v-.15a0,0,0,0,0,0,0V77s0-.08,0-.11v-.05c0-.18,0-.32,0-.43v-.08s0,0,0,0a.06.06,0,0,1,0,0v0s0,0,0,0v0s0,0,0,0V76s0,0,0,0v-.45a.35.35,0,0,0,0-.06h0v-.11s0,0,0,0,0,0,0,0v-.08s0,0,0,0a0,0,0,0,1,0,0s0,0,0,0v-.23a.54.54,0,0,1,0-.08s0,0,0,0h0c0-.08,0-.13,0-.14a.61.61,0,0,1,0-.14h0v0h0a0,0,0,0,1,0,0h0v-.28a.08.08,0,0,1,0,0h0c0-.4,0-.6-.07-.6-.11-.22-.27-.54-.49-1T38,71.43l-.66-1.38-.68-1.38c-.06-.08-.3-.56-.73-1.42l-.56-1.11a.65.65,0,0,1-.1-.2h0v0a1,1,0,0,0,.26,0h.55s0,0,0,0h1.17s0,0,0,0h.23l.15,0a.94.94,0,0,1,.1.22c.25.49.41.82.49,1s.12.22.2.4c0,0,.16.31.46.9a1.8,1.8,0,0,0,.12.25l.87,1.76c0,.08.07.16.11.26a1.51,1.51,0,0,1,.13.26h0s.14-.29.31-.71.23-.5.27-.61c.14-.29.5-1.11,1.09-2.45.36-.82.55-1.24.55-1.26s.07-.11.08-.11,0,0,0,0h.33a0,0,0,0,1,0,0l.26,0s0,0,0,0h.73s0,0,0,0H44l.15,0ZM37.83,67v0h0a0,0,0,0,0,0,0Zm1.34,6.08h0v0h0Zm.18.73h0v0h0Z" fill="#1b1b1b"/><path d="M57.92,66s0,0,0,0H58a4.31,4.31,0,0,1,.93.15,1.65,1.65,0,0,1,.44.16,1.72,1.72,0,0,1,.59.4c.08.07.3.32.67.75a4.64,4.64,0,0,1,.58,1.07l0,.1v0a2.06,2.06,0,0,1-.39.18,1.67,1.67,0,0,1-.31.13c-.06,0-.27.14-.65.31l-.61.29s0,0-.06-.14a2.56,2.56,0,0,0-.53-.68,1.9,1.9,0,0,0-.52-.35,1.26,1.26,0,0,0-.77-.19h-.09a3.3,3.3,0,0,0-.47.08h0l-.26.08a2.78,2.78,0,0,1-.29.15,1.31,1.31,0,0,0-.36.47.87.87,0,0,0-.1.42,1.23,1.23,0,0,0,.22.8,1.78,1.78,0,0,0,.71.64,2.68,2.68,0,0,0,.77.35c.65.22,1.16.37,1.53.46a6.8,6.8,0,0,1,.73.3,4.28,4.28,0,0,1,.71.45,2.72,2.72,0,0,1,.53.64,6.61,6.61,0,0,1,.39.72,1.93,1.93,0,0,1,.17.56h0v.08c0,.09,0,.19,0,.3a0,0,0,0,1,0,0s0,0,0,0,0,0,0,0a2.91,2.91,0,0,1-.31,1.32q-.09.28-.15.3a.59.59,0,0,1-.12.19.66.66,0,0,0-.17.24,2.35,2.35,0,0,0-.37.39,1.6,1.6,0,0,0-.34.29,5.6,5.6,0,0,1-.46.35l-.22.13h0a1.31,1.31,0,0,1-.34.17,6.58,6.58,0,0,1-.71.22,2.09,2.09,0,0,1-.56.09h0l-.17,0h0a5.64,5.64,0,0,1-.73,0h0a2.78,2.78,0,0,1-1-.17,5,5,0,0,1-.64-.31,5.84,5.84,0,0,1-.91-.69,3.62,3.62,0,0,1-.61-.72l-.34-.51a.9.9,0,0,0-.1-.22h0a.54.54,0,0,1,.16-.09s0,0,0,0a1.7,1.7,0,0,1,.43-.26l.63-.34a6.18,6.18,0,0,1,.62-.3s0,0,0,0a2.69,2.69,0,0,1,.17.3,2.56,2.56,0,0,0,.41.4,2.82,2.82,0,0,0,.46.38,2.33,2.33,0,0,0,.64.27,5.09,5.09,0,0,0,.68.11,2,2,0,0,0,.82-.15,1.65,1.65,0,0,0,.6-.4,2.24,2.24,0,0,0,.27-.66h0a.68.68,0,0,0,0-.21,1.24,1.24,0,0,0-.56-1c0-.12-.44-.31-1.21-.58-.2-.08-.52-.18-1-.31-.22-.07-.55-.19-1-.37a3.7,3.7,0,0,1-.79-.56,3.6,3.6,0,0,1-.43-.52A5.65,5.65,0,0,1,53.8,71a1.59,1.59,0,0,1-.22-.62.93.93,0,0,1,0-.16h0a1.87,1.87,0,0,1-.08-.44h0l0-.31v0a0,0,0,0,1,0,0h0v-.2a.06.06,0,0,1,0,0,0,0,0,0,1,0,0c.09-.45.15-.75.2-.91a6,6,0,0,1,.52-.88A2.21,2.21,0,0,1,55,66.7a9.27,9.27,0,0,1,1.38-.57,1.27,1.27,0,0,1,.45-.1,0,0,0,0,1,0,0h0a3.09,3.09,0,0,1,.59,0A2.91,2.91,0,0,1,57.92,66ZM54.27,76.17a0,0,0,0,0,0,0v0h0Zm1.88-8.25h0s0,0,0,0h0A0,0,0,0,0,56.15,67.92Zm4.42.38h0v0h0Z" fill="#1b1b1b"/><path d="M74.73,65.86s0,0,0,0h.11s0,0,0,0h0a0,0,0,0,1,0,0H75a.87.87,0,0,0,.21,0,0,0,0,0,0,0,0,1,1,0,0,1,.28,0h0a2.41,2.41,0,0,1,.59.14l.26.12a2.48,2.48,0,0,1,.52.31,3,3,0,0,1,.51.43,3.29,3.29,0,0,1,.62.58,4.74,4.74,0,0,1,.58.82.41.41,0,0,1,.11.22l-1.3.62c-.34.16-.56.28-.67.34s-.17-.12-.3-.38a1.88,1.88,0,0,0-.73-.74,2.34,2.34,0,0,0-1-.42,1,1,0,0,0-.31,0h0a2,2,0,0,0-.4.1.74.74,0,0,0-.25.14.44.44,0,0,0-.15.09,1.34,1.34,0,0,0-.31.23s-.11.11-.31.32a4.38,4.38,0,0,0-.57,1.06c0,.1-.06.16-.08.16v0q-.08.19-.21.72v0l-.06.19v0s0,.11,0,.28v.07h0v.1h0s0,0,0,0,0,.07,0,.07v.07h0a0,0,0,0,0,0,0v0a.18.18,0,0,0,0,.06h0c0,.15,0,.28,0,.39a1.58,1.58,0,0,1,0,.19.07.07,0,0,1,0,.05h0a.18.18,0,0,1,0,.06v.09a.32.32,0,0,0,0,.07A1.11,1.11,0,0,0,72,73h0a1.32,1.32,0,0,0,.08.39q.13.63.24,1a2.38,2.38,0,0,1,.16.36l.18.34a1.82,1.82,0,0,0,.17.28h0a1.59,1.59,0,0,1,.22.23,2.52,2.52,0,0,0,.76.57,2,2,0,0,0,.55.22.53.53,0,0,0,.32.06h.19s.1,0,.25-.06c0,0,0,0,0,0h0A1.55,1.55,0,0,0,75.8,76a5,5,0,0,0,.75-.77A8.43,8.43,0,0,0,77,74.05h0s.62.19,1.71.48l.37.12.09,0h0l-.13.39c-.09.24-.17.45-.25.63a6.21,6.21,0,0,1-.72,1,6,6,0,0,1-.84.81,3.19,3.19,0,0,1-.6.46,4.12,4.12,0,0,1-.51.27.78.78,0,0,1-.35.15l-.5.1h-.47l-.8-.08s0,0,0,0h0a2.11,2.11,0,0,1-.52-.12,7,7,0,0,1-.65-.28,2.85,2.85,0,0,1-.56-.37,5.14,5.14,0,0,1-.89-.8,6.8,6.8,0,0,1-.57-.76,1.65,1.65,0,0,0-.2-.42l-.13-.28a2.75,2.75,0,0,1-.13-.3s0,0,0-.13a5.46,5.46,0,0,1-.18-.72l0,0a0,0,0,0,1,0,0c0-.19-.1-.53-.17-1a.41.41,0,0,1,0-.07.44.44,0,0,1,0-.09c0-.31-.07-.83-.1-1.56,0,0,0-.07,0-.12v0h0a0,0,0,0,0,0,0,3.84,3.84,0,0,1,.1-.71A1.8,1.8,0,0,1,70,70.2v0A7.77,7.77,0,0,1,70.39,69c.11-.23.2-.4.26-.51a5.08,5.08,0,0,1,.57-.84,1.86,1.86,0,0,0,.24-.29s.14-.14.4-.4a2.79,2.79,0,0,1,.54-.42,3.79,3.79,0,0,1,1-.51,3,3,0,0,1,.42-.1h0l.11,0H74l.51-.06h.24Zm-3.31,2.08h0s0,0,0,0h0Zm6.78,7.85h0v0h0Z" fill="#1b1b1b"/><path d="M91.34,65.86h.2l.19,0h.06a4.74,4.74,0,0,1,.81.12,3,3,0,0,1,.54.24l.75.42.19.17s.17.18.52.52a5.16,5.16,0,0,1,.59.68,2.69,2.69,0,0,1,.37.5l.1.26a4.15,4.15,0,0,1,.33.89,4,4,0,0,1,.1.5h0a4.74,4.74,0,0,1,.15,1v0h0s0,0,0,.07,0,.28,0,.53h0a0,0,0,0,1,0,0c0,.07,0,.24,0,.49v0s0,0,0,0a0,0,0,0,0,0,0l0,0s0,.08,0,.11v.09s0,0,0,0h0v.18h0V73s0,0,0,0,0,.27,0,.57a0,0,0,0,0,0,0,0,0,0,0,1,0,0,1.53,1.53,0,0,0-.09.47,6.15,6.15,0,0,1-.38,1.39,4,4,0,0,1-.9,1.48,2.91,2.91,0,0,0-.46.46,4.34,4.34,0,0,0-.53.47c-.19.12-.44.26-.73.41a2,2,0,0,1-.42.15,2.12,2.12,0,0,1-.54.11h0a1,1,0,0,1-.25,0h-.7A4.28,4.28,0,0,1,90,78.27a.72.72,0,0,0-.21-.09,4.84,4.84,0,0,1-.7-.41,3,3,0,0,1-.63-.56,6.27,6.27,0,0,1-.91-1.29,1.87,1.87,0,0,1-.18-.35,2.37,2.37,0,0,1-.25-.53,13.32,13.32,0,0,1-.35-1.34c0-.22,0-.34,0-.35h0V73h0s0,0,0,0h0v-.17a0,0,0,0,1,0,0v0c0-.15,0-.24,0-.28h0v-.43s0,0,0,0v-.2a.25.25,0,0,0,0-.08,0,0,0,0,0,0,0,.28.28,0,0,1,0-.08h0s0,0,0,0v-.15c0-.33.07-.63.11-.91v-.14a6.89,6.89,0,0,1,.29-1.21A3.79,3.79,0,0,1,87.74,68a6.41,6.41,0,0,1,.85-1,4.62,4.62,0,0,1,.88-.69A4.93,4.93,0,0,1,90.56,66a5.9,5.9,0,0,1,.7-.1Zm-3.09,6.71h0Zm3.14-4.51-.08,0h0a2.26,2.26,0,0,0-.55.16,1.18,1.18,0,0,0-.28.17,1.72,1.72,0,0,1-.28.18,1.2,1.2,0,0,0-.31.28,2.24,2.24,0,0,0-.45.69,3.31,3.31,0,0,0-.15.33h0a3.61,3.61,0,0,0-.19.54h0v0a1.51,1.51,0,0,0-.08.39,3.24,3.24,0,0,0-.13.83v0a1.65,1.65,0,0,1,0,.29s0,.12,0,.23v.06a.9.9,0,0,1,0,.18s0,0,0,0v0c0,.16,0,.43.06.79h0a.13.13,0,0,1,0,.06h0a6.08,6.08,0,0,0,.81,2.06l.27.35a3,3,0,0,0,.52.4,1.3,1.3,0,0,0,.66.27,2.28,2.28,0,0,0,.38,0,1.22,1.22,0,0,0,.48-.13,2.48,2.48,0,0,0,.8-.45,1.68,1.68,0,0,0,.44-.49,7.45,7.45,0,0,0,.39-.7,6.6,6.6,0,0,0,.37-1.1,5.64,5.64,0,0,0,.08-.56v-.08a.2.2,0,0,0,0,0c0-.09,0-.14,0-.16h0c0-.18,0-.34,0-.48a2.06,2.06,0,0,0,0-.34h0v-.14a6.4,6.4,0,0,0-.47-1.9,3.77,3.77,0,0,0-.45-.82c-.1-.14-.19-.25-.25-.32a2.32,2.32,0,0,0-.67-.52,2.46,2.46,0,0,0-.46-.19h0Zm-1.52.1h0s0,0,0,0h0ZM91,77.05h0a0,0,0,0,0,0,0Z" fill="#1b1b1b"/><path d="M109.61,65.85l.63.15a1.37,1.37,0,0,1,.45.24,3,3,0,0,1,.74.57,2.43,2.43,0,0,1,.48.49,3.23,3.23,0,0,1,.45.8,3.12,3.12,0,0,1,.36,1.14l0,.19v.18a5.14,5.14,0,0,1-.17,1.16l-.13.32a3.35,3.35,0,0,1-.23.36,3.19,3.19,0,0,1-.53.69,1.79,1.79,0,0,1-.31.31,1.38,1.38,0,0,0-.25.2,1.4,1.4,0,0,1-.37.17l-.15.12c-.07,0-.1,0-.1.09.14.37.31.74.48,1.11l.18.41c.72,1.74,1.26,3,1.62,3.85a.19.19,0,0,1,0,.12.4.4,0,0,1-.15,0h-.11a0,0,0,0,1,0,0h-.4a0,0,0,0,1,0,0H112s0,0,0,0h-.29a0,0,0,0,1,0,0s0,0,0,0h-.17s0,0,0,0h-.2s0,0,0,0h-.48s0,0,0,0h-.31a3.83,3.83,0,0,1-.35-.79s0,0,0,0h0s0-.06-.1-.18c-.24-.57-.6-1.41-1.09-2.52-.4-.94-.63-1.46-.7-1.58s0-.09-.06-.09H108a2,2,0,0,0-.4,0h-.49s0,0,0,0h0v0h-.17c-.08,0-.12,0-.12.07s0,.09,0,.09V74s0,0,0,.06v0h0v.25s0,0,0,0v.25a.25.25,0,0,0,0,.08v0h0v.2s0,0,0,0a0,0,0,0,0,0,0v.06a0,0,0,0,1,0,0v.06h0a.08.08,0,0,1,0,0h0a1,1,0,0,0,0,.15v0a1.21,1.21,0,0,0,0,.18,0,0,0,0,0,0,0s0,0,0,.06a0,0,0,0,1,0,0h0v0a0,0,0,0,0,0,0h0v.58a0,0,0,0,1,0,0s0,0,0,0c0,.24,0,.42,0,.54v.45a.06.06,0,0,0,0,0v0h0v.05a.06.06,0,0,1,0,0,0,0,0,0,1,0,0s0,0,0,0,0,0,0,0c0,.16,0,.28,0,.38v.17a1.41,1.41,0,0,0,0,.2c0,.12,0,.18,0,.18h0a0,0,0,0,1,0,0h-2.1v-.18a.09.09,0,0,1,0,0,0,0,0,0,1,0,0v0s0,0,0,0,0,0,0,0v-.06a.33.33,0,0,1,0-.16v0s0,0,0,0a1.23,1.23,0,0,1,0-.17v-.6s0,0,0,0a0,0,0,0,1,0,0h0s0,0,0,0a.23.23,0,0,0,0-.07V77h0v0c0-.17,0-.27,0-.31h0v-.08h0v-.21a0,0,0,0,1,0,0v0h0v-.1a.25.25,0,0,1,0-.08h0v-.35s0,0,0,0h0a.66.66,0,0,1,0-.11s0-.46,0-1.21v0a0,0,0,0,1,0,0v-.53s0,0,0,0v-.21c0-.25,0-.61,0-1.1a.08.08,0,0,1,0,0s0,0,0,0v-.06c0-.35,0-.57,0-.67a.28.28,0,0,1,0-.08h0v0c0-.34,0-.56,0-.67v-.07s0,0,0,0a0,0,0,0,0,0,0v-.11a.58.58,0,0,0,0-.1,0,0,0,0,0,0,0h0v-.06h0a.08.08,0,0,0,0,0s0,0,0,0v-.49a2.78,2.78,0,0,1,0-.41v-.12c0-.1,0-.23,0-.4h0v-.06h0v-.13s0,0,0,0a0,0,0,0,0,0,0v-.2h0v-.07h0V68h0v-.43s0,0,0,0v-.3a.06.06,0,0,0,0,0,0,0,0,0,0,0,0v0a0,0,0,0,0,0,0v0h0c0-.12,0-.18,0-.18v-.6s0-.12,0-.2,0,0,0,0,0,0,0,0,0-.1,0-.13v0s0,0,0,0h.16s0,0,0,0h.8s0,0,0,0h1.14a0,0,0,0,1,0,0h1.83l.15,0h.2s0,0,0,0h.65l.06,0Zm-3.74,6h0v0h0Zm.15,3.43v0l0,0Zm.58,2.63s0,0,0,0v0h0Zm2-9.76s0,0,0,0h-1.52s0,0,0,0h-.35s0,0,0,.08v.34h0v.54h0v.32s0,0,0,0h0l0,.14s0,0,0,0a.56.56,0,0,1,0,.07v.11h0v.24s0,0,0,0v.22a0,0,0,0,1,0,0s0,0,0,0v0s0,0,0,0v.13s0,0,0,.07,0,.05,0,.08v0s0,0,0,0h0v0s0,0,0,0v.22s0,.06.05.06l.07,0,.1,0h1.52l.13,0h0a5.18,5.18,0,0,0,.84-.12.82.82,0,0,1,.21-.08l.32-.18a.7.7,0,0,0,.26-.31,1.15,1.15,0,0,0,.18-.44h0v0h0a.62.62,0,0,0,.06-.36s0-.14,0-.34a1,1,0,0,0-.2-.39,2,2,0,0,0-.39-.45,1.85,1.85,0,0,0-.75-.3h-.38a0,0,0,0,1,0,0h0l-.08,0A0,0,0,0,1,108.59,68.12Zm-1.61-.2s0,0,0,0h0v0h0Zm2,4.71s0,0,0,0h0Z" fill="#1b1b1b"/><path d="M125.75,65.88h.72s0,0,0,0h.42s0,0,0,0h0s0,0,0,0h.42a0,0,0,0,0,0,0h1.72l.22,0h.08s.07,0,.08,0h0c0,.09,0,.21,0,.37v0a0,0,0,0,0,0,0,.1.1,0,0,0,0,.06c0,.07,0,.11,0,.12a0,0,0,0,1,0,0s0,.06,0,.1v.13c0,.11,0,.19,0,.25h0v0a.35.35,0,0,1,0,.06h0a0,0,0,0,1,0,0v0h0v.56h0v.15c0,.12,0,.18-.1.18H129a0,0,0,0,0,0,0h-.61a0,0,0,0,1,0,0h-.13s0,0,0,0h-.31a0,0,0,0,0,0,0h-.14a0,0,0,0,1,0,0h-.14s0,0,0,0h0s0,0,0,0h-.43s0,0,0,0h-.28s0,0,0,0h-.38s0,0,0,0h-.22s0,0,0,0H125s0,0,0,0h-.86s0,0,0,0h-.3s0,0,0,0h-.16s0,0,0,0h-.16s-.06,0-.06.14v.16s0,0,0,0,0,0,0,0v.3s0,0,0,0v0a.43.43,0,0,0,0,.05V69s0,.09,0,.16h0v0h0l0,.06s0,0,0,0v.1s0,.06,0,.1,0,0,0,0h0v0c0,.12,0,.24,0,.37h0v.18c0,.06,0,.14,0,.25h0v.11h0a.37.37,0,0,1,0,.14,0,0,0,0,1,0,0h0v.28a.34.34,0,0,1,0,.09.08.08,0,0,1,0,0,0,0,0,0,0,0,0l0,0h3.66s0,0,0,0l0,0h.59s0,0,0,0h.13s0,0,0,.09v.25s0,0,0,0,0,0,0,0v.2s0,0,0,0,0,0,0,0v.12s0,0,0,0v.51a0,0,0,0,1,0,0c0,.06,0,.1,0,.12s0,.08,0,.11v0s0,.1,0,.18h0v.19a.6.6,0,0,0,0,.12l0,0a.2.2,0,0,1,0,.1l-.06,0h-.15a0,0,0,0,1,0,0h-.84a0,0,0,0,1,0,0h-3.41s0,0,0,.11v0h0a.15.15,0,0,0,0,.06V74c0,.1,0,.25,0,.47h0c0,.07,0,.11,0,.14v.18s0,.06,0,.08,0,0,0,.07v0a.43.43,0,0,0,0,0v.25a.78.78,0,0,1,0,.09.92.92,0,0,0,0,.16v.11s0,0,0,0a0,0,0,0,1,0,0,.35.35,0,0,0,0,.07c0,.07,0,.17,0,.3s0,0,0,0v.16s0,.06.07.06h.21a0,0,0,0,1,0,0h0a0,0,0,0,1,0,0h1.44s0,0,0,0h.07c.05,0,.07,0,.07,0h.44s0,0,0,0l.08,0h2.82s0,0,0,0h.93l0,0h0l0,0s0,0,0,0v.2a.43.43,0,0,1,0,0,.1.1,0,0,1,0,0v0h0V77a.09.09,0,0,0,0,0,.07.07,0,0,0,0,.06v0h0c0,.06,0,.1,0,.14v0a0,0,0,0,1,0,0v.12a8.81,8.81,0,0,0,0,1l0,.06h-.16a0,0,0,0,1,0,0h-.15a0,0,0,0,1,0,0h0s0,0,0,0h-.28a0,0,0,0,1,0,0H129a0,0,0,0,1,0,0h-.91s0,0,0,0h-.32l-.07,0s0,0,0,0h0s-.06,0-.06,0h-.12s0,0,0,0h0s0,0,0,0h-.81l-.07,0h-1.35s0,0,0,0h-.66l-.1,0,0,0a0,0,0,0,0,0,0h-1.06a0,0,0,0,1,0,0h-.11s0,0,0,0H122s0,0,0,0h-.27l-.07,0h-.32s-.05,0-.05,0,0-.14,0-.26h0v-.18s0,0,0,0,0,0,0,0v-.06h0v0h0a0,0,0,0,1,0,0s0,0,0,0V77.4h0v-.46h0v-.71h0v0h0v0c0-.35,0-.62,0-.79v-.09h0v-.1s0,0,0,0,0,0,0,0v-.24a.07.07,0,0,0,0-.05v-.26h0v-.32s0,0,0,0v-.52a1.21,1.21,0,0,1,0-.18,0,0,0,0,1,0,0h0v0h0v-.13s0,0,0,0h0v-1c0-.12,0-.28,0-.48a.06.06,0,0,0,0,0h0v-.08h0v0h0v0c0-.42,0-.69,0-.8h0v-.19s0,0,0,0,0,0,0,0v-.32s0,0,0,0,0,0,0,0v-.09s0,0,0,0,0,0,0,0a.82.82,0,0,1,0-.14V69.7h0v0s0,0,0,0v-.43a.17.17,0,0,1,0-.07s0,0,0,0v-.09a1.23,1.23,0,0,0,0-.17v-.06h0v-.35a.06.06,0,0,0,0,0v-.09c0-.35,0-.58,0-.71h0s0,0,0,0v-.17a.22.22,0,0,1,0-.09,1,1,0,0,0,0-.2.54.54,0,0,0,0-.11v-.44h0s0,0,0,0,0-.22,0-.29v0a.06.06,0,0,0,0,0,0,0,0,0,0,0,0v-.12a0,0,0,0,0,0,0h0V66h0s0-.06,0-.06h.12s0,0,0,0H122s0,0,0,0,0,0,0,0h3.52l.13,0Zm-4.46.48s0,0,0,0h0Zm.32,8.23h0v0h0Zm.23,1.71v0s0,0,0,0Zm5,.14v0h0s0,0,0,0ZM129.08,68h0v0h0Z" fill="#1b1b1b"/><path d="M139.08,64.33a2.19,2.19,0,1,1-2.18-2.19A2.2,2.2,0,0,1,139.08,64.33Zm-.37,0a1.82,1.82,0,1,0-1.83,1.82A1.82,1.82,0,0,0,138.71,64.33Zm-1.34.3.5.74h-.43l-.4-.66h-.61v.66h-.37V63.18h.88c.57,0,.89.27.89.75A.7.7,0,0,1,137.37,64.63Zm-.43-.23c.34,0,.54-.17.54-.46s-.2-.45-.54-.45h-.51v.91Z" fill="#1b1b1b"/></svg>
