<svg id="Layer_1" data-name="Layer 1" xmlns="http://www.w3.org/2000/svg" viewBox="0 0 144 144"><title>group of links - mini grid</title><path d="M62.51,57.26A18.91,18.91,0,0,0,44.46,44H30A18.91,18.91,0,0,0,11.11,62.9v1.29A18.91,18.91,0,0,0,30,83.1H44.46A18.91,18.91,0,0,0,62.52,69.83a19.11,19.11,0,0,0,.85-5.64V62.9A18.79,18.79,0,0,0,62.51,57.26ZM43.34,73.48H31.15a9.61,9.61,0,0,1-9.61-9.61v-.65a9.61,9.61,0,0,1,9.61-9.61H43.34a9.61,9.61,0,0,1,7.59,3.72,5.52,5.52,0,0,0-4.72,5.48v1.47a5.52,5.52,0,0,0,4.72,5.48A9.61,9.61,0,0,1,43.34,73.48Z" fill="#fff" stroke="#0f1f2d" stroke-miterlimit="10" stroke-width="3"/><path d="M52.94,63.22v.65a9.59,9.59,0,0,1-2,5.89,5.52,5.52,0,0,1-4.72-5.48V62.81a5.52,5.52,0,0,1,4.72-5.48A9.57,9.57,0,0,1,52.94,63.22Z" fill="#fff" stroke="#0f1f2d" stroke-miterlimit="10" stroke-width="3"/><path d="M110.42,44H96A18.91,18.91,0,0,0,77.08,62.9v1.29A18.87,18.87,0,0,0,96,83.1h14.43a18.91,18.91,0,0,0,18.92-18.91V62.9A18.91,18.91,0,0,0,110.42,44ZM116,70.57a9.92,9.92,0,0,1-7,2.91H97.44a9.91,9.91,0,0,1-7.76-3.74,5.54,5.54,0,0,0,4.56-5.46V62.81a5.54,5.54,0,0,0-4.56-5.46,9.74,9.74,0,0,1,.74-.83,9.89,9.89,0,0,1,7-2.91H109a9.93,9.93,0,0,1,7,17Z" fill="#fff" stroke="#0f1f2d" stroke-miterlimit="10" stroke-width="3"/><path d="M94.24,62.81v1.47a5.54,5.54,0,0,1-4.56,5.46,9.93,9.93,0,0,1,0-12.39A5.54,5.54,0,0,1,94.24,62.81Z" fill="#fff" stroke="#0f1f2d" stroke-miterlimit="10" stroke-width="3"/><path d="M94.24,62.81v1.47a5.54,5.54,0,0,1-4.56,5.46,5.36,5.36,0,0,1-1,.09H51.76a4.57,4.57,0,0,1-.83-.07,5.52,5.52,0,0,1-4.72-5.48V62.81a5.52,5.52,0,0,1,4.72-5.48,4.57,4.57,0,0,1,.83-.07H88.69a5.36,5.36,0,0,1,1,.09A5.54,5.54,0,0,1,94.24,62.81Z" fill="#fff" stroke="#0f1f2d" stroke-miterlimit="10" stroke-width="3"/><line x1="106.83" y1="87.73" x2="121.98" y2="76.73" fill="#fff"/><circle cx="114.21" cy="81.06" r="18.99" fill="#fff" stroke="#0d202e" stroke-linecap="round" stroke-miterlimit="10" stroke-width="3"/><rect x="102.78" y="72.49" width="4.46" height="4.46" fill="#0f1f2d"/><rect x="115.05" y="72.49" width="4.46" height="4.46" fill="#0f1f2d"/><rect x="108.91" y="72.49" width="4.46" height="4.46" fill="#0f1f2d"/><rect x="102.78" y="78.83" width="4.46" height="4.46" fill="#0f1f2d"/><rect x="115.05" y="78.83" width="4.46" height="4.46" fill="#0f1f2d"/><rect x="121.18" y="72.49" width="4.46" height="4.46" fill="#0f1f2d"/><rect x="121.18" y="78.83" width="4.46" height="4.46" fill="#0f1f2d"/><rect x="108.91" y="78.83" width="4.46" height="4.46" fill="#0f1f2d"/><rect x="102.78" y="85.18" width="4.46" height="4.46" fill="#0f1f2d"/><rect x="115.05" y="85.18" width="4.46" height="4.46" fill="#0f1f2d"/><rect x="121.18" y="85.18" width="4.46" height="4.46" fill="#0f1f2d"/><rect x="108.91" y="85.18" width="4.46" height="4.46" fill="#0f1f2d"/></svg>
