<svg  data-name="Layer 1" xmlns="http://www.w3.org/2000/svg" viewBox="0 0 144 144"><title>grid of people </title><path d="M86.4,108.94H37.57V71.6L51.82,60.83H72.24L86.4,72Z" fill="#0f1f2d" stroke="#0c1f2e" stroke-miterlimit="10" stroke-width="3"/><polygon points="86.4 72.02 86.4 108.94 37.57 108.94 37.57 71.6 51.82 60.83 72.24 60.83 86.4 72.02" fill="#fff" stroke="#0c1f2e" stroke-miterlimit="10" stroke-width="3"/><path d="M61.52,20.63A15.26,15.26,0,1,0,76.78,35.88,15.27,15.27,0,0,0,61.52,20.63Zm0,27.51A12.26,12.26,0,1,1,73.78,35.88,12.27,12.27,0,0,1,61.52,48.14Z" fill="#0f1f2d"/><path d="M73.78,35.88A12.26,12.26,0,1,1,61.52,23.63,12.27,12.27,0,0,1,73.78,35.88Z" fill="#fff"/><circle cx="87.44" cy="104.38" r="18.99" fill="#fff" stroke="#0d202e" stroke-linecap="round" stroke-miterlimit="10" stroke-width="3"/><rect x="75.23" y="96.31" width="6.46" height="6.46" fill="#0f1f2d"/><rect x="93.18" y="96.31" width="6.46" height="6.46" fill="#0f1f2d"/><rect x="84.16" y="96.31" width="6.46" height="6.46" fill="#0f1f2d"/><rect x="75.23" y="106" width="6.46" height="6.46" fill="#0f1f2d"/><rect x="93.18" y="106" width="6.46" height="6.46" fill="#0f1f2d"/><rect x="84.16" y="106" width="6.46" height="6.46" fill="#0f1f2d"/></svg>
