<svg  data-name="Layer 1" xmlns="http://www.w3.org/2000/svg" viewBox="0 0 144 144"><title>grid of places</title><polygon points="119.35 106.92 95.85 114.05 67.33 106.92 41.55 114.85 15.56 106.92 15.56 28.86 41.55 36.79 67.46 28.86 95.85 35.99 119.35 28.86 119.35 106.92" fill="#fff" stroke="#0f1f2d" stroke-linecap="round" stroke-miterlimit="10" stroke-width="3"/><line x1="41.28" y1="36.79" x2="41.28" y2="103.91" fill="none" stroke="#0f1f2d" stroke-linecap="round" stroke-miterlimit="10" stroke-width="3"/><line x1="41.28" y1="98.7" x2="41.28" y2="115.14" fill="none" stroke="#0f1f2d" stroke-linecap="round" stroke-miterlimit="10" stroke-width="3"/><line x1="95.31" y1="94.4" x2="95.31" y2="113.42" fill="none" stroke="#0f1f2d" stroke-linecap="round" stroke-miterlimit="10" stroke-width="3"/><line x1="95.31" y1="35.95" x2="95.31" y2="92.41" fill="none" stroke="#0f1f2d" stroke-linecap="round" stroke-miterlimit="10" stroke-width="3"/><line x1="67.98" y1="92.4" x2="67.98" y2="107.13" fill="none" stroke="#0f1f2d" stroke-linecap="round" stroke-miterlimit="10" stroke-width="3"/><line x1="67.98" y1="29.87" x2="67.98" y2="44.6" fill="none" stroke="#0f1f2d" stroke-linecap="round" stroke-miterlimit="10" stroke-width="3"/><circle cx="68.3" cy="68.35" r="17.74" fill="#fff"/><path d="M68.3,87.59A19.24,19.24,0,1,1,87.54,68.35,19.26,19.26,0,0,1,68.3,87.59Zm0-35.48A16.24,16.24,0,1,0,84.54,68.35,16.26,16.26,0,0,0,68.3,52.11Z" fill="#0f1f2d"/><path d="M74.77,65c0,3.57-6.47,12.23-6.47,12.23S61.82,68.54,61.82,65a6.48,6.48,0,1,1,12.95,0Z" fill="#fff"/><path d="M68.3,79.7l-1.2-1.6C66,76.59,60.32,68.84,60.32,65a8,8,0,1,1,15.95,0c0,3.87-5.64,11.62-6.77,13.13ZM68.3,60a5,5,0,0,0-5,5c0,1.8,2.62,6.26,5,9.66,2.28-3.28,5-7.78,5-9.66A5,5,0,0,0,68.3,60Z" fill="#111f2d"/><circle cx="68.3" cy="64.34" r="2.14" fill="#111f2d"/><circle cx="117.83" cy="110.1" r="18.99" fill="#fff" stroke="#0d202e" stroke-linecap="round" stroke-miterlimit="10" stroke-width="3"/><rect x="105.63" y="102.03" width="6.46" height="6.46" fill="#0f1f2d"/><rect x="123.58" y="102.03" width="6.46" height="6.46" fill="#0f1f2d"/><rect x="114.56" y="102.03" width="6.46" height="6.46" fill="#0f1f2d"/><rect x="105.63" y="111.72" width="6.46" height="6.46" fill="#0f1f2d"/><rect x="123.58" y="111.72" width="6.46" height="6.46" fill="#0f1f2d"/><rect x="114.56" y="111.72" width="6.46" height="6.46" fill="#0f1f2d"/></svg>
