<svg  data-name="Layer 1" xmlns="http://www.w3.org/2000/svg" viewBox="0 0 144 144"><title>grid of quotes </title><polygon points="14.16 90.66 37.41 90.66 29.21 115.64 55.35 90.66 127.18 90.66 127.84 35.39 14.16 35.39 14.16 90.66" fill="#fff" stroke="#0f1f2d" stroke-linejoin="round" stroke-width="3"/><path d="M43.35,68.09a6.31,6.31,0,0,1-6.59,6.6,6.36,6.36,0,0,1-6.66-6.6c0-1.79.27-3.09,1.85-6.87l4-9.89h6.81l-3,10.92A6,6,0,0,1,43.35,68.09Zm16.22,0a6.32,6.32,0,0,1-6.6,6.6,6.37,6.37,0,0,1-6.66-6.6c0-1.79.27-3.09,1.85-6.87l4-9.89H59l-3,10.92A6,6,0,0,1,59.57,68.09Z" fill="#0c1f2e"/><path d="M97.07,57.37c0,1.79-.27,3.09-1.78,6.87l-4,9.9H84.5l3-10.86a6.09,6.09,0,0,1-3.64-5.91,6.37,6.37,0,0,1,6.67-6.59A6.31,6.31,0,0,1,97.07,57.37Zm16.22,0c0,1.79-.28,3.09-1.79,6.87l-4,9.9h-6.81l3-10.86A6.09,6.09,0,0,1,100,57.37a6.63,6.63,0,0,1,13.26,0Z" fill="#0c1f2e"/><circle cx="117.83" cy="93.1" r="18.99" fill="#fff" stroke="#0d202e" stroke-linecap="round" stroke-miterlimit="10" stroke-width="3"/><rect x="105.63" y="85.03" width="6.46" height="6.46" fill="#0f1f2d"/><rect x="123.58" y="85.03" width="6.46" height="6.46" fill="#0f1f2d"/><rect x="114.56" y="85.03" width="6.46" height="6.46" fill="#0f1f2d"/><rect x="105.63" y="94.72" width="6.46" height="6.46" fill="#0f1f2d"/><rect x="123.58" y="94.72" width="6.46" height="6.46" fill="#0f1f2d"/><rect x="114.56" y="94.72" width="6.46" height="6.46" fill="#0f1f2d"/></svg>
