<svg  data-name="Layer 1" xmlns="http://www.w3.org/2000/svg" viewBox="0 0 144 144"><title>grid of cards_1</title><path d="M53.93,33.67H97.87a0,0,0,0,1,0,0v76.67a0,0,0,0,1,0,0H45.8a0,0,0,0,1,0,0V41.8a8.13,8.13,0,0,1,8.13-8.13Z" transform="translate(21.02 -16.1) rotate(14.96)" fill="#fff" stroke="#0f1f2d" stroke-linecap="round" stroke-linejoin="round" stroke-width="3"/><path d="M98.18,45.94l-2.56,9.47-2.19-.59,2.08-7.71-1.89-.51.48-1.76Z" fill="#231f20"/><rect x="31.57" y="28.25" width="52.07" height="76.67" fill="#fff" stroke="#0f1f2d" stroke-linecap="round" stroke-linejoin="round" stroke-width="3"/><path d="M66.33,68,62,72.59,57.59,77.2l-4.4-4.62L48.87,68a5.49,5.49,0,1,1,8.74-6.26A5.49,5.49,0,1,1,66.33,68Z" fill="#0f1f2d"/><path d="M39.5,92.13h4.63L45,90h2.36l-4.45,10H40.65L36.19,90h2.42Zm.72,1.76,1.59,3.82,1.58-3.82Z" fill="#0c1f2e"/><path d="M75.69,41.49H71.05l-.88,2.14H67.8l4.45-10h2.28l4.47,10H76.57ZM75,39.74l-1.58-3.82L71.8,39.74Z" fill="#0c1f2e"/><circle cx="93.44" cy="89.06" r="18.99" fill="#fff" stroke="#0d202e" stroke-linecap="round" stroke-linejoin="round" stroke-width="3"/><rect x="81.23" y="80.99" width="6.46" height="6.46" fill="#0f1f2d"/><rect x="99.18" y="80.99" width="6.46" height="6.46" fill="#0f1f2d"/><rect x="90.16" y="80.99" width="6.46" height="6.46" fill="#0f1f2d"/><rect x="81.23" y="90.68" width="6.46" height="6.46" fill="#0f1f2d"/><rect x="99.18" y="90.68" width="6.46" height="6.46" fill="#0f1f2d"/><rect x="90.16" y="90.68" width="6.46" height="6.46" fill="#0f1f2d"/></svg>
