<svg  data-name="Layer 1" xmlns="http://www.w3.org/2000/svg" viewBox="0 0 144 144"><title>grid of guide</title><rect x="26.18" y="25.01" width="79.07" height="96.2" fill="#fff" stroke="#111f2d" stroke-linecap="round" stroke-miterlimit="10" stroke-width="3"/><polygon points="97.7 114.92 33.72 114.92 33.72 31.27 97.7 31.27 97.7 50.37 97.7 114.92" fill="#fff" stroke="#111f2d" stroke-linecap="round" stroke-miterlimit="10" stroke-width="3"/><path d="M72.59,21a7.22,7.22,0,0,0-6.8-6.13A7.21,7.21,0,0,0,59,21H50.71V31h30V21Z" fill="#fff" stroke="#111f2d" stroke-linecap="round" stroke-miterlimit="10" stroke-width="3"/><circle cx="65.71" cy="21.54" r="2" fill="#0f1f2d" stroke="#111f2d" stroke-miterlimit="10"/><line x1="56.71" y1="45.96" x2="89.71" y2="45.96" fill="none" stroke="#111f2d" stroke-linecap="round" stroke-miterlimit="10" stroke-width="3"/><rect x="42.47" y="42.4" width="7.13" height="7.13" fill="none" stroke="#111f2d" stroke-linecap="round" stroke-miterlimit="10" stroke-width="3"/><line x1="56.71" y1="64.29" x2="89.71" y2="64.29" fill="none" stroke="#111f2d" stroke-linecap="round" stroke-miterlimit="10" stroke-width="3"/><rect x="42.47" y="60.73" width="7.13" height="7.13" fill="none" stroke="#111f2d" stroke-linecap="round" stroke-miterlimit="10" stroke-width="3"/><line x1="56.71" y1="82.63" x2="89.71" y2="82.63" fill="none" stroke="#111f2d" stroke-linecap="round" stroke-miterlimit="10" stroke-width="3"/><rect x="42.47" y="79.07" width="7.13" height="7.13" fill="none" stroke="#111f2d" stroke-linecap="round" stroke-miterlimit="10" stroke-width="3"/><line x1="56.71" y1="100.96" x2="89.71" y2="100.96" fill="none" stroke="#111f2d" stroke-linecap="round" stroke-miterlimit="10" stroke-width="3"/><rect x="42.47" y="97.4" width="7.13" height="7.13" fill="none" stroke="#111f2d" stroke-linecap="round" stroke-miterlimit="10" stroke-width="3"/><circle cx="98.83" cy="110.1" r="18.99" fill="#fff" stroke="#0d202e" stroke-linecap="round" stroke-miterlimit="10" stroke-width="3"/><rect x="86.63" y="102.03" width="6.46" height="6.46" fill="#0f1f2d"/><rect x="104.58" y="102.03" width="6.46" height="6.46" fill="#0f1f2d"/><rect x="95.56" y="102.03" width="6.46" height="6.46" fill="#0f1f2d"/><rect x="86.63" y="111.72" width="6.46" height="6.46" fill="#0f1f2d"/><rect x="104.58" y="111.72" width="6.46" height="6.46" fill="#0f1f2d"/><rect x="95.56" y="111.72" width="6.46" height="6.46" fill="#0f1f2d"/></svg>
