<?xml version="1.0" encoding="UTF-8" standalone="no"?>
<svg xmlns:dc="http://purl.org/dc/elements/1.1/" xmlns:cc="http://creativecommons.org/ns#" xmlns:rdf="http://www.w3.org/1999/02/22-rdf-syntax-ns#" xmlns:svg="http://www.w3.org/2000/svg" xmlns="http://www.w3.org/2000/svg" xmlns:sodipodi="http://sodipodi.sourceforge.net/DTD/sodipodi-0.dtd" xmlns:inkscape="http://www.inkscape.org/namespaces/inkscape" id="Layer_1" data-name="Layer 1" viewBox="0 0 144 144" version="1.1" sodipodi:docname="election_area_results_icon.svg" inkscape:version="0.92.5 (2060ec1f9f, 2020-04-08)">
  <metadata id="metadata35">
    <rdf:RDF>
      <cc:Work rdf:about="">
        <dc:format>image/svg+xml</dc:format>
        <dc:type rdf:resource="http://purl.org/dc/dcmitype/StillImage" />
        <dc:title></dc:title>
      </cc:Work>
    </rdf:RDF>
  </metadata>
  <defs id="defs33" />
  <sodipodi:namedview pagecolor="#ffffff" bordercolor="#666666" borderopacity="1" objecttolerance="10" gridtolerance="10" guidetolerance="10" inkscape:pageopacity="0" inkscape:pageshadow="2" inkscape:window-width="702" inkscape:window-height="480" id="namedview31" showgrid="false" inkscape:zoom="1.6388889" inkscape:cx="72" inkscape:cy="72" inkscape:window-x="2500" inkscape:window-y="110" inkscape:window-maximized="0" inkscape:current-layer="Layer_1" />
  <rect x="47.58" y="30.49" width="37.11" height="20.87" transform="translate(-11.37 47.39) rotate(-36.51)" fill="#fff" stroke="#0d202e" stroke-miterlimit="10" stroke-width="3" id="rect2" />
  <line x1="65.51" y1="36.63" x2="74" y2="30.34" fill="#fff" stroke="#0d202e" stroke-miterlimit="10" stroke-width="3" id="line4" />
  <line x1="69.91" y1="42.57" x2="78.41" y2="36.28" fill="#fff" stroke="#0d202e" stroke-miterlimit="10" stroke-width="3" id="line6" />
  <rect x="21.6" y="57.86" width="76.14" height="48.09" fill="#fff" stroke="#0d202e" stroke-miterlimit="10" stroke-width="3" id="rect8" />
  <circle cx="103.17" cy="99.26" r="17.74" fill="#fff" id="circle10" />
  <path d="M103.17,118.5A19.24,19.24,0,1,1,122.4,99.26,19.26,19.26,0,0,1,103.17,118.5Zm0-35.47A16.24,16.24,0,1,0,119.4,99.26,16.25,16.25,0,0,0,103.17,83Z" fill="#111f2d" id="path12" />
  <path d="M109.64,95.88c0,3.58-6.47,12.24-6.47,12.24s-6.48-8.66-6.48-12.24a6.48,6.48,0,0,1,13,0Z" fill="#fff" id="path14" />
  <path d="M103.17,110.62,102,109c-1.13-1.51-6.78-9.25-6.78-13.13a8,8,0,0,1,16,0c0,3.88-5.64,11.62-6.77,13.13Zm0-19.71a5,5,0,0,0-5,5c0,1.81,2.62,6.26,5,9.67,2.28-3.28,5-7.78,5-9.67A5,5,0,0,0,103.17,90.91Z" fill="#111f2d" id="path16" />
  <circle cx="103.17" cy="95.26" r="2.14" fill="#111f2d" id="circle18" />
  <rect x="21.6" y="50.95" width="76.14" height="6.91" fill="#fff" stroke="#0d202e" stroke-miterlimit="10" stroke-width="3" id="rect20" />
  <path d="M40.38,88.07,35.63,75.83H39l3.13,9,3.12-9h3.2L43.6,88.07Z" fill="#111f2d" id="path22" />
  <path d="M62,81.93a6.3,6.3,0,0,1-6.62,6.27,6.29,6.29,0,0,1-6.6-6.27c0-3.56,2.83-6.2,6.6-6.2S62,78.38,62,81.93ZM52,82a3.56,3.56,0,0,0,3.46,3.65A3.64,3.64,0,1,0,52,82Z" fill="#111f2d" id="path24" />
  <path d="M68.91,78.33v9.74H65.8V78.33H62.15V75.82H72.6v2.51Z" fill="#111f2d" id="path26" />
  <path d="M77.05,78.28v2.43h5.83v2.44H77.05v2.47H83.7v2.45H73.94V75.83h9.57v2.45Z" fill="#111f2d" id="path28" />
</svg>
