<?xml version="1.0" encoding="UTF-8" standalone="no"?>
<svg xmlns:dc="http://purl.org/dc/elements/1.1/" xmlns:cc="http://creativecommons.org/ns#" xmlns:rdf="http://www.w3.org/1999/02/22-rdf-syntax-ns#" xmlns:svg="http://www.w3.org/2000/svg" xmlns="http://www.w3.org/2000/svg" xmlns:sodipodi="http://sodipodi.sourceforge.net/DTD/sodipodi-0.dtd" xmlns:inkscape="http://www.inkscape.org/namespaces/inkscape" id="Layer_1" data-name="Layer 1" viewBox="0 0 144 144" version="1.1" sodipodi:docname="election_contest_results_icon.svg" inkscape:version="0.92.5 (2060ec1f9f, 2020-04-08)">
  <metadata id="metadata19">
    <rdf:RDF>
      <cc:Work rdf:about="">
        <dc:format>image/svg+xml</dc:format>
        <dc:type rdf:resource="http://purl.org/dc/dcmitype/StillImage" />
        <dc:title></dc:title>
      </cc:Work>
    </rdf:RDF>
  </metadata>
  <defs id="defs17" />
  <sodipodi:namedview pagecolor="#ffffff" bordercolor="#666666" borderopacity="1" objecttolerance="10" gridtolerance="10" guidetolerance="10" inkscape:pageopacity="0" inkscape:pageshadow="2" inkscape:window-width="975" inkscape:window-height="634" id="namedview15" showgrid="false" inkscape:zoom="1.6388889" inkscape:cx="72" inkscape:cy="47.59322" inkscape:window-x="423" inkscape:window-y="180" inkscape:window-maximized="0" inkscape:current-layer="layer3" />
  <circle style="fill:#ffffff;stroke:#0f1f2d;stroke-width:3;stroke-linecap:round;stroke-miterlimit:10" cx="44.330677" cy="35.824745" r="10.04" stroke-miterlimit="10" id="circle4" />
  <circle style="fill:#ffffff;stroke:#0f1f2d;stroke-width:3;stroke-linecap:round;stroke-miterlimit:10" cx="97.010681" cy="35.824745" r="10.04" stroke-miterlimit="10" id="circle8" />
  <polygon style="fill:#ffffff;stroke:#0f1f2d;stroke-width:3;stroke-linecap:round;stroke-miterlimit:10" points="85.48,109.3 85.48,80.72 74.44,71.99 58.77,71.99 47.65,80.4 47.65,109.3 " stroke-miterlimit="10" id="polygon10" transform="translate(4.880678,-27.455254)" />
  <circle style="fill:#ffffff;stroke:#0f1f2d;stroke-width:3;stroke-linecap:round;stroke-miterlimit:10" cx="71.110687" cy="27.414745" r="10.04" stroke-miterlimit="10" id="circle12" />
  <g inkscape:groupmode="layer" id="layer1" inkscape:label="people" style="display:inline">
    <polygon style="fill:#ffffff;stroke:#0f1f2d;stroke-width:3;stroke-linecap:round;stroke-miterlimit:10" points="73.99,70.27 73.99,99.18 111.82,99.18 111.82,70.6 100.78,61.86 85.12,61.86 " stroke-miterlimit="10" id="polygon6" transform="translate(5.240678,-8.595254)" />
    <polygon style="fill:#ffffff;stroke:#0f1f2d;stroke-width:3;stroke-linecap:round;stroke-miterlimit:10" points="21.3,70.27 21.3,99.18 59.14,99.18 59.14,70.6 48.09,61.86 32.43,61.86 " stroke-miterlimit="10" id="polygon2" transform="translate(4.440678,-8.915254)" />
  </g>
  <g inkscape:groupmode="layer" id="layer2" inkscape:label="vote" style="display:inline">
    <g id="g57" transform="matrix(1.3737118,0,0,1.3080923,-26.355616,-68.528433)">
      <rect id="rect10" height="5.8899999" width="50.880001" y="108.8406" x="47.170166" style="fill:#ffffff" />
      <path id="path12" d="m 99.550169,116.23059 h -53.88 v -8.89 h 53.88 z m -50.88,-3 h 47.88 v -2.89 h -47.88 z" style="fill:#0d202e" inkscape:connector-curvature="0" />
      <rect id="rect14" height="32.130001" width="50.880001" y="115.2906" x="47.170166" style="fill:#ffffff" />
      <path id="path16" d="m 99.550169,148.93059 h -53.88 v -35.14 h 53.88 z m -50.88,-3 h 47.88 v -29.14 h -47.88 z" style="fill:#0d202e" inkscape:connector-curvature="0" />
      <path id="path18" d="m 59.720169,135.48059 -3.22,-8.18 h 2.22 l 2.09,6 2.09,-6 h 2.14 l -3.21,8.18 z" style="fill:#0f1f2d" inkscape:connector-curvature="0" />
      <path id="path20" d="m 74.170169,131.38059 a 4.43,4.43 0 1 1 -4.43,-4.15 4.22,4.22 0 0 1 4.43,4.15 z m -6.72,0 a 2.38,2.38 0 0 0 2.32,2.48 2.44,2.44 0 0 0 0,-4.86 2.36,2.36 0 0 0 -2.27,2.39 z" style="fill:#0f1f2d" inkscape:connector-curvature="0" />
      <path id="path22" d="m 78.790169,128.97059 v 6.51 h -2.08 v -6.51 h -2.44 v -1.68 h 7 v 1.68 z" style="fill:#0f1f2d" inkscape:connector-curvature="0" />
      <path id="path24" d="m 84.220169,128.94059 v 1.62 h 3.9 v 1.64 h -3.9 v 1.66 h 4.45 v 1.64 h -6.53 v -8.2 h 6.36 v 1.64 z" style="fill:#0f1f2d" inkscape:connector-curvature="0" />
    </g>
  </g>
  <g inkscape:groupmode="layer" id="layer3" inkscape:label="ribbon" style="display:inline">
    <g id="g952" transform="translate(-1.563503,-2.400844)">
      <polygon id="polygon20" stroke-miterlimit="10" points="33,55.75 46.31,67.13 59.62,55.75 59.62,39.45 46.38,39.45 33,39.45 " style="opacity:1;fill:#ffffff;fill-opacity:1;stroke:#0d202e;stroke-width:3.81957102;stroke-miterlimit:10;stroke-dasharray:none" transform="matrix(0.33296408,0,0,0.34790456,95.032863,39.539911)" />
      <polygon id="polygon22" stroke-miterlimit="10" points="39.91,83.42 33.5,77.18 42.35,75.89 46.31,67.87 50.27,75.89 59.12,77.18 52.71,83.42 54.23,92.23 46.31,88.07 38.39,92.23 " style="fill:none;stroke:#0d202e;stroke-width:3;stroke-miterlimit:10" transform="matrix(0.33296408,0,0,0.34790456,95.032863,39.539911)" />
    </g>
  </g>
</svg>
