<svg id="Layer_1" data-name="Layer 1" xmlns="http://www.w3.org/2000/svg" viewBox="0 0 144 144"><rect x="16.47" y="30.77" width="113.06" height="75.32" fill="#fff" stroke="#121f2c" stroke-miterlimit="10" stroke-width="3"/><rect x="23.44" y="36.59" width="99.12" height="63.74" fill="#fff" stroke="#121f2c" stroke-miterlimit="10" stroke-width="3"/><rect x="58.29" y="106.1" width="29.43" height="17.97" fill="#fff" stroke="#121f2c" stroke-miterlimit="10" stroke-width="3"/><rect x="49.4" y="124.06" width="47.21" height="5.16" fill="#fff" stroke="#121f2c" stroke-miterlimit="10" stroke-width="3"/><rect x="33.81" y="64.56" width="77.66" height="12.77" fill="#fff" stroke="#111f2d" stroke-miterlimit="10" stroke-width="3"/><line x1="48.5" y1="64.58" x2="48.5" y2="77.42" fill="#fff" stroke="#111f2d" stroke-miterlimit="10" stroke-width="3"/><path d="M44.58,74.36l-2.15-2.15A2.83,2.83,0,0,0,43,70.5a2.91,2.91,0,1,0-2.91,2.9,2.94,2.94,0,0,0,1.81-.63l2.16,2.17,0,0a.38.38,0,0,0,.49,0h0A.37.37,0,0,0,44.58,74.36Zm-4.49-1.54a2.33,2.33,0,1,1,2.33-2.32A2.32,2.32,0,0,1,40.09,72.82Z" fill="#0c1f2e" stroke="#121f2c" stroke-linecap="round" stroke-miterlimit="10"/></svg>
