<svg  data-name="Layer 1" xmlns="http://www.w3.org/2000/svg" viewBox="0 0 144 144"><title>maps</title><polygon points="124.23 108.54 100.72 115.68 72.2 108.54 46.43 116.47 20.44 108.54 20.44 30.49 46.43 38.41 72.33 30.49 100.72 37.62 124.23 30.49 124.23 108.54" fill="#fff" stroke="#0f1f2d" stroke-linecap="round" stroke-miterlimit="10" stroke-width="3"/><line x1="46.16" y1="38.41" x2="46.16" y2="105.54" fill="none" stroke="#0f1f2d" stroke-linecap="round" stroke-miterlimit="10" stroke-width="3"/><line x1="46.16" y1="100.32" x2="46.16" y2="116.77" fill="none" stroke="#0f1f2d" stroke-linecap="round" stroke-miterlimit="10" stroke-width="3"/><line x1="100.19" y1="96.02" x2="100.19" y2="115.05" fill="none" stroke="#0f1f2d" stroke-linecap="round" stroke-miterlimit="10" stroke-width="3"/><line x1="100.19" y1="37.57" x2="100.19" y2="94.04" fill="none" stroke="#0f1f2d" stroke-linecap="round" stroke-miterlimit="10" stroke-width="3"/><line x1="72.86" y1="94.02" x2="72.86" y2="108.76" fill="none" stroke="#0f1f2d" stroke-linecap="round" stroke-miterlimit="10" stroke-width="3"/><line x1="72.86" y1="31.5" x2="72.86" y2="46.23" fill="none" stroke="#0f1f2d" stroke-linecap="round" stroke-miterlimit="10" stroke-width="3"/><circle cx="73.17" cy="69.97" r="17.74" fill="#fff"/><path d="M73.17,89.21A19.24,19.24,0,1,1,92.41,70,19.26,19.26,0,0,1,73.17,89.21Zm0-35.47A16.24,16.24,0,1,0,89.41,70,16.25,16.25,0,0,0,73.17,53.74Z" fill="#0f1f2d"/><path d="M79.65,66.59c0,3.58-6.48,12.24-6.48,12.24S66.7,70.17,66.7,66.59a6.48,6.48,0,0,1,13,0Z" fill="#fff"/><path d="M73.17,81.33,72,79.72c-1.13-1.51-6.77-9.25-6.77-13.13a8,8,0,0,1,16,0c0,3.88-5.64,11.62-6.77,13.13Zm0-19.71a5,5,0,0,0-5,5c0,1.81,2.61,6.27,5,9.67,2.28-3.28,5-7.78,5-9.67A5,5,0,0,0,73.17,61.62Z" fill="#111f2d"/><circle cx="73.17" cy="65.97" r="2.14" fill="#111f2d"/></svg>
