<svg xmlns="http://www.w3.org/2000/svg" viewBox="0 0 136.8 136.8"><defs><style>.cls-1{fill:#091f2f}.cls-2{fill:#fb4d42}</style></defs><g id="Layer_2" data-name="Layer 2"><g id="Layer_1-2" data-name="Layer 1"><path class="cls-1" d="M0 0h136.8v136.8H0z"/><path class="cls-2" d="M29 106.29a11.1 11.1 0 0 1-10.81-11V94h9.56V30.74h92.47l-.14 64.8a10.88 10.88 0 0 1-11 10.71zm-8.2-9.79a8.59 8.59 0 0 0 8.2 7.3h72.89a10.72 10.72 0 0 1-3.8-7.23zm9.46-2.5h70.3v1.25a8.22 8.22 0 0 0 8.52 8.48 8.38 8.38 0 0 0 8.52-8.22l.14-62.3H30.26z"/><path class="cls-2" d="M69.35 42.34h39.1v2.5h-39.1zm0 9.98h39.1v2.5h-39.1zm0 9.98h39.1v2.5h-39.1zm0 9.98h39.1v2.5h-39.1zm0 9.99h39.1v2.5h-39.1z"/><path class="cls-2" transform="rotate(45 47.953 58.103)" d="M47.03 51.54h1.83v13.12h-1.83z"/><path class="cls-2" transform="rotate(-45 53.506 52.017)" d="M51.34 48.39h4.34v7.26h-4.34z"/><path class="cls-2" transform="rotate(-45 50.38 48.842)" d="M48.21 48.33h4.34v1.03h-4.34z"/><path class="cls-2" transform="rotate(-45 56.641 55.168)" d="M54.47 54.65h4.34v1.03h-4.34z"/><path class="cls-2" d="M49.41 70.36a14.28 14.28 0 1 1 14.28-14.28 14.3 14.3 0 0 1-14.28 14.28zm0-26.06a11.78 11.78 0 1 0 11.78 11.78A11.8 11.8 0 0 0 49.41 44.3z"/></g></g></svg>