<svg  data-name="Layer 1" xmlns="http://www.w3.org/2000/svg" viewBox="0 0 144 144"><title>money_1</title><circle cx="70.79" cy="70.23" r="50.5" fill="#fff" stroke="#111f2d" stroke-miterlimit="10" stroke-width="3"/><circle cx="70.79" cy="70.23" r="43.5" fill="none" stroke="#111f2d" stroke-miterlimit="10" stroke-width="3"/><path d="M67.68,95.84V89.59a26.49,26.49,0,0,1-11.19-2.83l2-7.7A23.24,23.24,0,0,0,69.39,82c3.75,0,6.32-1.44,6.32-4.08s-2.1-4.08-7-5.72c-7-2.37-11.84-5.67-11.84-12.05C56.89,54.31,61,49.77,68,48.38V42.13h6.45v5.79A23.87,23.87,0,0,1,84,50.09L82.1,57.53a21.88,21.88,0,0,0-9.48-2.24C68.34,55.29,67,57.14,67,59c0,2.17,2.3,3.56,7.9,5.66,7.83,2.77,11,6.39,11,12.31S81.7,87.81,74.13,89.13v6.71Z" fill="none" stroke="#0f1f2d" stroke-linecap="round" stroke-miterlimit="10" stroke-width="3"/></svg>
