<svg id="Layer_1" data-name="Layer 1" xmlns="http://www.w3.org/2000/svg" viewBox="0 0 144 144"><title>rain</title><line x1="85.04" y1="78.28" x2="81.1" y2="87.29" fill="#d3d3d3" stroke="#0f1f2d" stroke-linecap="round" stroke-miterlimit="10" stroke-width="3"/><line x1="75.11" y1="74.74" x2="68.89" y2="88.95" fill="#d3d3d3" stroke="#0f1f2d" stroke-linecap="round" stroke-miterlimit="10" stroke-width="3"/><line x1="38.23" y1="73.77" x2="34.29" y2="82.78" fill="#d3d3d3" stroke="#0f1f2d" stroke-linecap="round" stroke-miterlimit="10" stroke-width="3"/><line x1="41.59" y1="103.96" x2="40.61" y2="106.21" fill="#d3d3d3" stroke="#0f1f2d" stroke-linecap="round" stroke-miterlimit="10" stroke-width="3"/><line x1="86.25" y1="102.52" x2="84.28" y2="107.02" fill="#d3d3d3" stroke="#0f1f2d" stroke-linecap="round" stroke-miterlimit="10" stroke-width="3"/><line x1="79.05" y1="93.01" x2="77.07" y2="97.52" fill="#d3d3d3" stroke="#0f1f2d" stroke-linecap="round" stroke-miterlimit="10" stroke-width="3"/><line x1="103.94" y1="83.03" x2="101.97" y2="87.53" fill="#d3d3d3" stroke="#0f1f2d" stroke-linecap="round" stroke-miterlimit="10" stroke-width="3"/><line x1="53.21" y1="102.52" x2="51.23" y2="107.02" fill="#d3d3d3" stroke="#0f1f2d" stroke-linecap="round" stroke-miterlimit="10" stroke-width="3"/><line x1="96.74" y1="78.28" x2="89.03" y2="95.88" fill="#d3d3d3" stroke="#0f1f2d" stroke-linecap="round" stroke-miterlimit="10" stroke-width="3"/><line x1="51.78" y1="81" x2="44.09" y2="98.55" fill="#d3d3d3" stroke="#0f1f2d" stroke-linecap="round" stroke-miterlimit="10" stroke-width="3"/><line x1="67.07" y1="95.64" x2="63.13" y2="104.65" fill="#d3d3d3" stroke="#0f1f2d" stroke-linecap="round" stroke-miterlimit="10" stroke-width="3"/><line x1="74.87" y1="103.96" x2="70.93" y2="112.97" fill="#d3d3d3" stroke="#0f1f2d" stroke-linecap="round" stroke-miterlimit="10" stroke-width="3"/><line x1="42.18" y1="84.03" x2="38.23" y2="93.04" fill="#d3d3d3" stroke="#0f1f2d" stroke-linecap="round" stroke-miterlimit="10" stroke-width="3"/><line x1="99.09" y1="94.11" x2="95.14" y2="103.12" fill="#d3d3d3" stroke="#0f1f2d" stroke-linecap="round" stroke-miterlimit="10" stroke-width="3"/><line x1="59.28" y1="87.27" x2="55.33" y2="96.28" fill="#d3d3d3" stroke="#0f1f2d" stroke-linecap="round" stroke-miterlimit="10" stroke-width="3"/><path d="M113,64.77a11,11,0,0,1-1.28,1.09,7.68,7.68,0,0,1-10.62,10.66,12.7,12.7,0,0,1-20.7-3.18,7.7,7.7,0,0,1-9.3,4.07A12.71,12.71,0,0,1,49.5,76a7.6,7.6,0,0,1-4.92,1.79,7.7,7.7,0,0,1-7.33-10,10.43,10.43,0,0,1-3-20,7.41,7.41,0,0,1-.21-1.16v0A12.71,12.71,0,0,1,51.33,32.32a9.67,9.67,0,0,1,16.83-1.69A14.51,14.51,0,0,1,95,33.2,9.68,9.68,0,0,1,108,47.26a10.41,10.41,0,0,1,5,17.51Z" fill="#fff" stroke="#0f1f2d" stroke-miterlimit="10" stroke-width="3"/></svg>