<svg  data-name="Layer 1" xmlns="http://www.w3.org/2000/svg" viewBox="0 0 144 144"><title>zombie</title><path d="M73.05,16.43a31.3,31.3,0,0,0-31.3,31.3v61h62.6v-61A31.3,31.3,0,0,0,73.05,16.43Z" fill="#fff" stroke="#121f2c" stroke-linecap="round" stroke-miterlimit="10" stroke-width="3"/><path d="M92.88,63.89,91,63.76a2.26,2.26,0,0,0-2.45,2l-.15,1.84A12.57,12.57,0,0,1,88,70.83l-.84,1.66c-.9,1.31-3.14.87-3.14.87-.5-9.71.17-11.2.37-11.92l1.06-3.94c.31-1.13.81-3,1.11-4.13L87,51.58c.3-1.14.8-3,1.11-4.13l.48-1.79A2.12,2.12,0,0,0,87,43.08l-.7-.17a2.32,2.32,0,0,0-2.78,1.55L83,46.25c-.31,1.13-.81,3-1.11,4.13l-.49,1.79c-.3,1.13-.81,3-1.11,4.13l-1.07,3.94c-.12.45-2.18-.09-2.18-.57L76.56,54V39.48a2.21,2.21,0,0,0-2.28-2.13h-.72a2.22,2.22,0,0,0-2.29,2.13V54l-.42,5.7c0,.43-1.75.81-1.83.45,0,0-2.1-7.64-2.36-8.79L66.15,49c-.26-1.14-.67-3-.93-4.17l-.51-2.34A2.3,2.3,0,0,0,62,40.79l-.71.14a2.14,2.14,0,0,0-1.78,2.51c.35,1.56,1.75,7.9,2,8.86.26,1.15,2.54,9.25,2.54,9.25.16.69-.28,2.18-.71,1.38,0-.11-2.24-3.42-2.24-3.42l-1.46-2.64-1.11-2L57,52.23l-1.11-2a1.65,1.65,0,0,0-2.15-.64l-.85.41a1.45,1.45,0,0,0-.69,2l1.11,2,1.46,2.64,1.11,2,1.46,2.64,2,3.68a4.66,4.66,0,0,1,.26,1.29A107.14,107.14,0,0,0,60.9,80.33c0,.21.07.41.1.6a12.34,12.34,0,0,0,4.41,4.59c-.25,6.24-.94,20.83-2,27.22H81.57c-.87-9.12-1.86-20-2.28-26.19a33,33,0,0,0,6.5-5.38l3-3a22.59,22.59,0,0,0,3.18-3.59l.84-1.67C93.31,71.88,92.88,63.89,92.88,63.89Z" fill="#fff" stroke="#121f2c" stroke-linecap="round" stroke-miterlimit="10" stroke-width="3"/><path d="M62.75,110.08H47l14.09,2s-9.44,6.72-9,6.5,13.1-3.69,13.1-3.69L61,125.16l14.09-10.87,14.47,9.65-9.14-9.74L93,116.73l-8.21-3.94,12.06-2.85-15.08.39L81.57,112H63.36Z" fill="#121f2c"/><polygon points="72.55 114.2 77.6 125.63 77.6 114.2 72.55 114.2" fill="#121f2c"/><path d="M63.79,109.44a17.36,17.36,0,0,0,17.49,0l.29,3.3L70.36,114.2l-7-1.46Z" fill="#fff" stroke="#121f2c" stroke-linecap="round" stroke-miterlimit="10" stroke-width="3"/><polygon points="72.55 112.74 73.92 102.58 75.08 112.04 71 112.1 70.36 92.81 68.59 112.1 72.55 112.74" fill="#121f2c"/></svg>
