<svg  data-name="Layer 1" xmlns="http://www.w3.org/2000/svg" viewBox="0 0 144 144"><title>bos 311</title><circle cx="71.15" cy="70.37" r="48.55" fill="#fff"/><circle cx="70.79" cy="70.23" r="50.5" fill="none" stroke="#0f1f2d" stroke-miterlimit="10" stroke-width="3"/><circle cx="70.79" cy="70.23" r="43.5" fill="none" stroke="#0f1f2d" stroke-miterlimit="10" stroke-width="3"/><path d="M45.34,50h7a17.08,17.08,0,0,1,4.7.43,4.25,4.25,0,0,1,3.11,4.19,4.2,4.2,0,0,1-.33,1.74,4.43,4.43,0,0,1-3.52,2.4,5.56,5.56,0,0,1,3.55,1.53,4,4,0,0,1,1,2.7,4.81,4.81,0,0,1-3,4.37A11.91,11.91,0,0,1,53,68H45.34Zm4.29,3.37V57.1H53c1,0,2.68-.08,2.68-1.94s-1.51-1.81-2.38-1.81Zm0,7v4.37h3.14c1.51,0,3.47-.08,3.47-2.15s-1.78-2.19-2.7-2.22Z" fill="#0d202e"/><path d="M71.61,68.51c-5.72,0-9-4.39-9-9.6,0-4.87,3.09-9.49,8.89-9.49a10.06,10.06,0,0,1,3.29.53c5.51,1.92,5.87,7.92,5.87,9.14a9.78,9.78,0,0,1-3.42,7.53A8.64,8.64,0,0,1,71.61,68.51Zm3.12-14a4.39,4.39,0,0,0-3.17-1.33c-2.73,0-4.47,2.4-4.47,5.67,0,4.29,2.4,5.87,4.52,5.87s4.45-1.53,4.57-5.31A7,7,0,0,0,74.73,54.5Z" fill="#0d202e"/><path d="M84.81,62.59A5.7,5.7,0,0,0,86.55,64a7.48,7.48,0,0,0,3.47.86c1.79,0,3.32-.84,3.32-2.09,0-1.43-1.81-1.66-3.14-1.84-1-.13-2-.25-3-.46s-4.86-1-4.86-4.9c0-4.65,4.14-6,7.26-6a11,11,0,0,1,8,3.43l-3.32,2.37a8.41,8.41,0,0,0-1.78-1.46,6.59,6.59,0,0,0-2.94-.79c-1.79,0-2.68,1-2.68,1.89,0,1.38,1.53,1.59,2.3,1.69a34.93,34.93,0,0,1,5.51,1.07,4.47,4.47,0,0,1,3.12,4.42A6,6,0,0,1,96.38,66c-1.64,1.89-4.24,2.42-6.77,2.42-5.08,0-7.1-2.35-8.22-3.65Z" fill="#0d202e"/><path d="M45.8,77.4h4.09v4.29H45.8Zm0,9h4.09v4.34H45.8Z" fill="#0d202e"/><path d="M57.83,78.34a5.58,5.58,0,0,1,1.91-4,6.66,6.66,0,0,1,4.14-1.23A6,6,0,0,1,68,74.31a4.47,4.47,0,0,1,1.56,3.45,3.9,3.9,0,0,1-1.3,3,5.57,5.57,0,0,1-1.56.84,10,10,0,0,1,1,.28A3.82,3.82,0,0,1,70,85.57a5.29,5.29,0,0,1-1.2,3.32A6.66,6.66,0,0,1,63.39,91a6,6,0,0,1-4.67-1.89,6.2,6.2,0,0,1-1.23-4.23l4-.34c0,.26,0,.49,0,.74,0,1.61.95,2.56,2.12,2.56a2.26,2.26,0,0,0,2.27-2.56c0-2.34-2.12-2.24-3.11-2.19V80.18A4.13,4.13,0,0,0,64,80.13a1.93,1.93,0,0,0,1.49-2,1.84,1.84,0,0,0-1.87-2c-1.76,0-1.76,1.76-1.76,2.5Z" fill="#0d202e"/><path d="M73.63,76a7,7,0,0,0,2.86-.64,3.62,3.62,0,0,0,1.78-1.94h3.12V90.73H77.28V78.09c-1,.41-1.18.51-3.65.56Z" fill="#0d202e"/><path d="M86.37,76a7,7,0,0,0,2.86-.64A3.62,3.62,0,0,0,91,73.42h3.12V90.73H90V78.09c-1,.41-1.18.51-3.65.56Z" fill="#0d202e"/></svg>
