<svg  data-name="Layer 1" xmlns="http://www.w3.org/2000/svg" viewBox="0 0 144 144"><title>link</title><path d="M65.6,73.68a18.91,18.91,0,0,0-18-13.27H33.12A18.91,18.91,0,0,0,14.2,79.32v1.29A18.91,18.91,0,0,0,33.12,99.52H47.55A18.91,18.91,0,0,0,65.61,86.25a19.11,19.11,0,0,0,.85-5.64V79.32A18.79,18.79,0,0,0,65.6,73.68ZM46.43,89.9H34.24a9.61,9.61,0,0,1-9.61-9.61v-.65A9.61,9.61,0,0,1,34.24,70H46.43A9.61,9.61,0,0,1,54,73.75a5.52,5.52,0,0,0-4.72,5.48V80.7A5.52,5.52,0,0,0,54,86.18,9.61,9.61,0,0,1,46.43,89.9Z" fill="#fff" stroke="#0f1f2d" stroke-miterlimit="10" stroke-width="3"/><path d="M56,79.64v.65a9.59,9.59,0,0,1-2,5.89A5.52,5.52,0,0,1,49.3,80.7V79.23A5.52,5.52,0,0,1,54,73.75,9.57,9.57,0,0,1,56,79.64Z" fill="#fff" stroke="#0f1f2d" stroke-miterlimit="10" stroke-width="3"/><path d="M113.51,60.41H99.08A18.91,18.91,0,0,0,80.17,79.32v1.29A18.87,18.87,0,0,0,99.08,99.52h14.43a18.91,18.91,0,0,0,18.92-18.91V79.32A18.91,18.91,0,0,0,113.51,60.41ZM119.09,87a9.92,9.92,0,0,1-7,2.91H100.53a9.91,9.91,0,0,1-7.76-3.74,5.54,5.54,0,0,0,4.56-5.46V79.23a5.54,5.54,0,0,0-4.56-5.46,9.74,9.74,0,0,1,.74-.83,9.89,9.89,0,0,1,7-2.91h11.53a9.93,9.93,0,0,1,7,17Z" fill="#fff" stroke="#0f1f2d" stroke-miterlimit="10" stroke-width="3"/><path d="M97.33,79.23V80.7a5.54,5.54,0,0,1-4.56,5.46,9.93,9.93,0,0,1,0-12.39A5.54,5.54,0,0,1,97.33,79.23Z" fill="#fff" stroke="#0f1f2d" stroke-miterlimit="10" stroke-width="3"/><path d="M97.33,79.23V80.7a5.54,5.54,0,0,1-4.56,5.46,5.36,5.36,0,0,1-1,.09H54.85a4.57,4.57,0,0,1-.83-.07A5.52,5.52,0,0,1,49.3,80.7V79.23A5.52,5.52,0,0,1,54,73.75a4.57,4.57,0,0,1,.83-.07H91.78a5.36,5.36,0,0,1,1,.09A5.54,5.54,0,0,1,97.33,79.23Z" fill="#fff" stroke="#0f1f2d" stroke-miterlimit="10" stroke-width="3"/></svg>
