<svg  data-name="Layer 1" xmlns="http://www.w3.org/2000/svg" viewBox="0 0 144 144"><title>quote</title><polygon points="15.16 90.66 38.41 90.66 30.21 115.64 56.35 90.66 128.18 90.66 128.84 35.39 15.16 35.39 15.16 90.66" fill="#fff" stroke="#0f1f2d" stroke-linejoin="round" stroke-width="3"/><path d="M44.35,68.09a6.31,6.31,0,0,1-6.59,6.6,6.36,6.36,0,0,1-6.66-6.6c0-1.79.27-3.09,1.85-6.87l4-9.89h6.81l-3,10.92A6,6,0,0,1,44.35,68.09Zm16.22,0a6.32,6.32,0,0,1-6.6,6.6,6.37,6.37,0,0,1-6.66-6.6c0-1.79.27-3.09,1.85-6.87l4-9.89H60l-3,10.92A6,6,0,0,1,60.57,68.09Z" fill="#0c1f2e"/><path d="M98.07,57.37c0,1.79-.27,3.09-1.78,6.87l-4,9.9H85.5l3-10.86a6.09,6.09,0,0,1-3.64-5.91,6.37,6.37,0,0,1,6.67-6.59A6.31,6.31,0,0,1,98.07,57.37Zm16.22,0c0,1.79-.28,3.09-1.79,6.87l-4,9.9h-6.81l3-10.86A6.09,6.09,0,0,1,101,57.37a6.63,6.63,0,0,1,13.26,0Z" fill="#0c1f2e"/></svg>
