<svg xmlns="http://www.w3.org/2000/svg" viewBox="0 0 119.3 77.41"><rect x="1.5" y="1.5" width="27.38" height="74.41" fill="#fff" stroke="#0f1f2d" stroke-linecap="round" stroke-miterlimit="10" stroke-width="3"/><rect x="22.89" y="15.55" width="94.92" height="42.84" fill="#fff" stroke="#0f1f2d" stroke-linecap="round" stroke-miterlimit="10" stroke-width="3"/><line x1="31.1" y1="24.29" x2="51.06" y2="24.29" fill="none" stroke="#0f1f2d" stroke-linecap="round" stroke-miterlimit="10" stroke-width="3"/><line x1="31.1" y1="28.9" x2="51.06" y2="28.9" fill="none" stroke="#0f1f2d" stroke-linecap="round" stroke-miterlimit="10" stroke-width="3"/><line x1="31.1" y1="48.25" x2="77.41" y2="48.25" fill="none" stroke="#0f1f2d" stroke-linecap="round" stroke-miterlimit="10" stroke-width="3"/><line x1="92.67" y1="48.25" x2="108.55" y2="48.25" fill="none" stroke="#0f1f2d" stroke-linecap="round" stroke-miterlimit="10" stroke-width="3"/><polyline points="11.38 30.89 7.63 38.09 12.38 43.9" fill="none" stroke="#0f1f2d" stroke-linecap="round" stroke-miterlimit="10" stroke-width="3"/><line x1="7.63" y1="38.09" x2="22.89" y2="38.09" fill="none" stroke="#0f1f2d" stroke-linecap="round" stroke-miterlimit="10" stroke-width="3"/><path d="M100.22,44.46V43.05a6.24,6.24,0,0,1-2.54-.64l.45-1.75a5.2,5.2,0,0,0,2.47.66c.85,0,1.44-.33,1.44-.93s-.48-.92-1.58-1.29c-1.6-.54-2.69-1.29-2.69-2.73a2.76,2.76,0,0,1,2.52-2.65V32.3h1.46v1.31a5.41,5.41,0,0,1,2.16.49l-.43,1.69a4.84,4.84,0,0,0-2.14-.51c-1,0-1.29.42-1.29.84s.52.8,1.79,1.28c1.78.62,2.49,1.44,2.49,2.78a2.86,2.86,0,0,1-2.65,2.76v1.52Z" fill="#0f1f2d"/></svg>