<svg xmlns="http://www.w3.org/2000/svg" viewBox="0 0 117.82 91.05"><polygon points="105.27 28.65 89.61 28.65 78.48 37.07 78.48 65.97 116.32 65.97 116.32 37.39 105.27 28.65" fill="#fff" stroke="#0f1f2d" stroke-linecap="round" stroke-miterlimit="10" stroke-width="3"/><circle cx="97.07" cy="11.54" r="10.04" fill="#fff" stroke="#0f1f2d" stroke-linecap="round" stroke-miterlimit="10" stroke-width="3"/><polygon points="28.29 29.33 12.63 29.33 1.5 37.75 1.5 66.65 39.34 66.65 39.34 38.07 28.29 29.33" fill="#fff" stroke="#0f1f2d" stroke-linecap="round" stroke-miterlimit="10" stroke-width="3"/><circle cx="20.08" cy="12.22" r="10.04" fill="#fff" stroke="#0f1f2d" stroke-linecap="round" stroke-miterlimit="10" stroke-width="3"/><polygon points="66.88 29.33 51.22 29.33 40.09 37.75 40.09 66.65 77.93 66.65 77.93 38.07 66.88 29.33" fill="#fff" stroke="#0f1f2d" stroke-linecap="round" stroke-miterlimit="10" stroke-width="3"/><circle cx="58.67" cy="12.22" r="10.04" fill="#fff" stroke="#0f1f2d" stroke-linecap="round" stroke-miterlimit="10" stroke-width="3"/><polygon points="47.14 52.23 31.48 52.23 20.35 60.65 20.35 89.55 58.19 89.55 58.19 60.97 47.14 52.23" fill="#fff" stroke="#0f1f2d" stroke-linecap="round" stroke-miterlimit="10" stroke-width="3"/><circle cx="38.94" cy="35.11" r="10.04" fill="#fff" stroke="#0f1f2d" stroke-linecap="round" stroke-miterlimit="10" stroke-width="3"/><polygon points="85.9 52.23 70.24 52.23 59.11 60.65 59.11 89.55 96.94 89.55 96.94 60.97 85.9 52.23" fill="#fff" stroke="#0f1f2d" stroke-linecap="round" stroke-miterlimit="10" stroke-width="3"/><circle cx="77.69" cy="35.11" r="10.04" fill="#fff" stroke="#0f1f2d" stroke-linecap="round" stroke-miterlimit="10" stroke-width="3"/></svg>