<?xml version="1.0" encoding="UTF-8"?>
<svg version="1.1" viewBox="0 0 926.06 220.14" xmlns="http://www.w3.org/2000/svg"><title>Metrolist</title><polygon points="840.77 0 759.4 82.03 922.32 82.03" fill="#4185c5"/><polygon points="783.77 0 702.4 82.03 865.32 82.03"/><polygon points="730.77 0 649.4 82.03 812.32 82.03" fill="#4185c5"/><polygon points="673.77 0 592.4 82.03 755.32 82.03"/><rect x="616.4" y="8.02" width="25.97" height="49.78"/><g fill="#4185c5"><path transform="translate(-.44)" d="M98.09,218l-.31-57.31L70,207.31H56.37L28.72,162.2V218H.44V109.83H25.63l38,62.41,37.08-62.41h25.18L126.2,218Z"/><path transform="translate(-.44)" d="M234.66,194.33V218H147.84V109.83h84.81v23.63H178.12v18.23h48v22.87h-48v19.77Z"/><path transform="translate(-.44)" d="M274.68,134.08H241.46V109.83h96.87v24.25H305.27V218H274.68Z"/><path transform="translate(-.44)" d="m397 189.24h-16.64v28.76h-30.59v-108.17h49.44c29.5 0 48 15.29 48 40 0 15.91-7.72 27.65-21.16 34.14l23.33 34h-32.72zm0.31-55.31h-17v31.67h17c12.67 0 19-5.87 19-15.76 0.04-10.04-6.31-15.91-18.96-15.91z"/><path transform="translate(-.44)" d="m458.53 163.9c0-32.45 25.49-56.24 60.1-56.24s60.1 23.79 60.1 56.24-25.49 56.24-60.1 56.24-60.1-23.8-60.1-56.24zm89.3 0c0-18.7-12.82-30.9-29.2-30.9s-29.2 12.2-29.2 30.9 12.82 30.9 29.2 30.9 29.2-12.21 29.2-30.9z"/></g><path transform="translate(-.44)" d="M594.8,109.83h30.59v83.89H677V218H594.8Z"/><path transform="translate(-.44)" d="M689,109.83h30.59V218H689Z"/><path transform="translate(-.44)" d="m733.85 208.24 10-22.56a68.14 68.14 0 0 0 35.69 10.66c12.67 0 17.61-3.55 17.61-8.8 0-17.15-61.49-4.64-61.49-44.81 0-19.31 15.76-35.07 47.9-35.07 14 0 28.58 3.25 39.24 9.43l-9.43 22.71c-10.35-5.56-20.54-8.35-30-8.35-12.82 0-17.46 4.33-17.46 9.74 0 16.53 61.34 4.17 61.34 44 0 18.85-15.76 34.92-47.9 34.92-17.69 0.03-35.35-4.76-45.5-11.87z"/><path transform="translate(-.44)" d="M862.85,134.08H829.64V109.83h96.87v24.25H893.44V218H862.85Z"/></svg>
