<svg xmlns="http://www.w3.org/2000/svg" viewBox="0 0 117.82 125.77"><polygon points="66.98 28.66 51.32 28.66 40.19 37.07 40.19 65.98 78.02 65.98 78.02 37.4 66.98 28.66" fill="#fff" stroke="#0f1f2d" stroke-linecap="round" stroke-miterlimit="10" stroke-width="3"/><circle cx="59.43" cy="11.54" r="10.04" fill="#fff" stroke="#0f1f2d" stroke-linecap="round" stroke-miterlimit="10" stroke-width="3"/><polygon points="105.27 63.38 89.61 63.38 78.48 71.79 78.48 100.69 116.32 100.69 116.32 72.11 105.27 63.38" fill="#fff" stroke="#0f1f2d" stroke-linecap="round" stroke-miterlimit="10" stroke-width="3"/><circle cx="97.06" cy="46.26" r="10.04" fill="#fff" stroke="#0f1f2d" stroke-linecap="round" stroke-miterlimit="10" stroke-width="3"/><polygon points="28.29 64.05 12.63 64.05 1.5 72.47 1.5 101.37 39.33 101.37 39.33 72.79 28.29 64.05" fill="#fff" stroke="#0f1f2d" stroke-linecap="round" stroke-miterlimit="10" stroke-width="3"/><circle cx="20.08" cy="46.94" r="10.04" fill="#fff" stroke="#0f1f2d" stroke-linecap="round" stroke-miterlimit="10" stroke-width="3"/><polygon points="66.88 64.05 51.22 64.05 40.09 72.47 40.09 101.37 77.92 101.37 77.92 72.79 66.88 64.05" fill="#fff" stroke="#0f1f2d" stroke-linecap="round" stroke-miterlimit="10" stroke-width="3"/><circle cx="58.67" cy="46.94" r="10.04" fill="#fff" stroke="#0f1f2d" stroke-linecap="round" stroke-miterlimit="10" stroke-width="3"/><polygon points="47.14 86.95 31.48 86.95 20.35 95.37 20.35 124.27 58.19 124.27 58.19 95.69 47.14 86.95" fill="#fff" stroke="#0f1f2d" stroke-linecap="round" stroke-miterlimit="10" stroke-width="3"/><circle cx="38.94" cy="69.83" r="10.04" fill="#fff" stroke="#0f1f2d" stroke-linecap="round" stroke-miterlimit="10" stroke-width="3"/><polygon points="85.89 86.95 70.23 86.95 59.1 95.37 59.1 124.27 96.94 124.27 96.94 95.69 85.89 86.95" fill="#fff" stroke="#0f1f2d" stroke-linecap="round" stroke-miterlimit="10" stroke-width="3"/><circle cx="77.69" cy="69.83" r="10.04" fill="#fff" stroke="#0f1f2d" stroke-linecap="round" stroke-miterlimit="10" stroke-width="3"/></svg>