<svg  data-name="Layer 1" xmlns="http://www.w3.org/2000/svg" viewBox="0 0 144 144"><title>info</title><circle cx="72" cy="72" r="48.55" fill="#fff"/><circle cx="72" cy="72" r="50.5" fill="none" stroke="#0f1f2d" stroke-miterlimit="10" stroke-width="3"/><circle cx="72" cy="72" r="43.5" fill="none" stroke="#0f1f2d" stroke-miterlimit="10" stroke-width="3"/><path d="M76.27,68.36a34.32,34.32,0,0,1-.43,5.1q-.44,2.87-1,6.06t-1,6.5a49.56,49.56,0,0,0-.43,6.42A4.11,4.11,0,0,0,74,94.75a2,2,0,0,0,1.77.79,2.69,2.69,0,0,0,1.31-.38,5.14,5.14,0,0,0,1.43-1.22,10.8,10.8,0,0,0,1.4-2.22,18.18,18.18,0,0,0,1.23-3.32l2.09.44a22.52,22.52,0,0,1-1,3.37,15.37,15.37,0,0,1-1.82,3.39,10.39,10.39,0,0,1-2.68,2.61,6.39,6.39,0,0,1-3.63,1.05q-6.66,0-6.67-7A43,43,0,0,1,67.85,86c.3-2,.63-4.07,1-6.07s.69-4,1-6a42.22,42.22,0,0,0,.45-6.18,6.75,6.75,0,0,0-.09-1,4.1,4.1,0,0,0-.31-1.08,2.29,2.29,0,0,0-.61-.85,1.54,1.54,0,0,0-1-.34,2.69,2.69,0,0,0-1.31.38A5.31,5.31,0,0,0,65.47,66a10.6,10.6,0,0,0-1.42,2.2,18.22,18.22,0,0,0-1.23,3.3l-2-.43a21.34,21.34,0,0,1,.9-3.08,15,15,0,0,1,1.79-3.43,11,11,0,0,1,2.75-2.78,6.63,6.63,0,0,1,3.86-1.13,6.29,6.29,0,0,1,2.72.56,5.24,5.24,0,0,1,1.95,1.57,6.66,6.66,0,0,1,1.15,2.41A11.75,11.75,0,0,1,76.27,68.36ZM78.18,49a4.4,4.4,0,0,1-.32,1.7A4.19,4.19,0,0,1,77,52a3.89,3.89,0,0,1-1.26.85,3.71,3.71,0,0,1-1.51.31,3.64,3.64,0,0,1-1.53-.31,3.93,3.93,0,0,1-2.1-2.14,4.6,4.6,0,0,1-.3-1.7,4.53,4.53,0,0,1,.32-1.71,4,4,0,0,1,.89-1.33,3.73,3.73,0,0,1,1.28-.87,3.88,3.88,0,0,1,1.51-.31,3.7,3.7,0,0,1,2.81,1.14A4.28,4.28,0,0,1,78.18,49Z" fill="#0c1f2e" stroke="#0f1f2d" stroke-miterlimit="10" stroke-width="2"/></svg>
