<svg id="Layer_1" data-name="Layer 1" xmlns="http://www.w3.org/2000/svg" viewBox="0 0 144 144"><polygon points="118.72 59.63 103.06 59.63 91.93 68.05 91.93 96.95 129.77 96.95 129.77 68.37 118.72 59.63" fill="#fff" stroke="#0f1f2d" stroke-linecap="round" stroke-miterlimit="10" stroke-width="3"/><circle cx="110.52" cy="42.52" r="10.04" fill="#fff" stroke="#0f1f2d" stroke-linecap="round" stroke-miterlimit="10" stroke-width="3"/><polygon points="41.74 60.31 26.08 60.31 14.95 68.73 14.95 97.63 52.79 97.63 52.79 69.05 41.74 60.31" fill="#fff" stroke="#0f1f2d" stroke-linecap="round" stroke-miterlimit="10" stroke-width="3"/><circle cx="33.53" cy="43.2" r="10.04" fill="#fff" stroke="#0f1f2d" stroke-linecap="round" stroke-miterlimit="10" stroke-width="3"/><polygon points="80.33 60.31 64.67 60.31 53.54 68.73 53.54 97.63 91.38 97.63 91.38 69.05 80.33 60.31" fill="#fff" stroke="#0f1f2d" stroke-linecap="round" stroke-miterlimit="10" stroke-width="3"/><circle cx="72.12" cy="43.2" r="10.04" fill="#fff" stroke="#0f1f2d" stroke-linecap="round" stroke-miterlimit="10" stroke-width="3"/><polygon points="60.59 83.21 44.93 83.21 33.8 91.63 33.8 120.53 71.64 120.53 71.64 91.95 60.59 83.21" fill="#fff" stroke="#0f1f2d" stroke-linecap="round" stroke-miterlimit="10" stroke-width="3"/><circle cx="52.39" cy="66.09" r="10.04" fill="#fff" stroke="#0f1f2d" stroke-linecap="round" stroke-miterlimit="10" stroke-width="3"/><polygon points="99.35 83.21 83.69 83.21 72.56 91.63 72.56 120.53 110.39 120.53 110.39 91.95 99.35 83.21" fill="#fff" stroke="#0f1f2d" stroke-linecap="round" stroke-miterlimit="10" stroke-width="3"/><circle cx="91.14" cy="66.09" r="10.04" fill="#fff" stroke="#0f1f2d" stroke-linecap="round" stroke-miterlimit="10" stroke-width="3"/></svg>