<svg xmlns="http://www.w3.org/2000/svg" viewBox="0 0 93.52 104.46"><polygon points="54.63 28.65 38.97 28.65 27.84 37.07 27.84 65.97 65.67 65.97 65.67 37.39 54.63 28.65" fill="#fff" stroke="#0f1f2d" stroke-linecap="round" stroke-miterlimit="10" stroke-width="3"/><circle cx="46.42" cy="11.54" r="10.04" fill="#fff" stroke="#0f1f2d" stroke-linecap="round" stroke-miterlimit="10" stroke-width="3"/><polygon points="28.29 55.52 12.63 55.52 1.5 63.93 1.5 92.84 39.33 92.84 39.33 64.26 28.29 55.52" fill="#fff" stroke="#0f1f2d" stroke-linecap="round" stroke-miterlimit="10" stroke-width="3"/><circle cx="20.08" cy="38.4" r="10.04" fill="#fff" stroke="#0f1f2d" stroke-linecap="round" stroke-miterlimit="10" stroke-width="3"/><polygon points="80.97 55.52 65.31 55.52 54.18 63.93 54.18 92.84 92.02 92.84 92.02 64.26 80.97 55.52" fill="#fff" stroke="#0f1f2d" stroke-linecap="round" stroke-miterlimit="10" stroke-width="3"/><circle cx="72.76" cy="38.4" r="10.04" fill="#fff" stroke="#0f1f2d" stroke-linecap="round" stroke-miterlimit="10" stroke-width="3"/><polygon points="54.63 65.65 38.97 65.65 27.84 74.06 27.84 102.96 65.67 102.96 65.67 74.38 54.63 65.65" fill="#fff" stroke="#0f1f2d" stroke-linecap="round" stroke-miterlimit="10" stroke-width="3"/><circle cx="46.42" cy="48.53" r="10.04" fill="#fff" stroke="#0f1f2d" stroke-linecap="round" stroke-miterlimit="10" stroke-width="3"/></svg>