<svg id="Layer_1" data-name="Layer 1" xmlns="http://www.w3.org/2000/svg" viewBox="0 0 144 144"><polygon points="77.14 48.86 61.48 48.86 50.35 57.28 50.35 86.18 88.18 86.18 88.18 57.6 77.14 48.86" fill="#fff" stroke="#0f1f2d" stroke-linecap="round" stroke-miterlimit="10" stroke-width="3"/><circle cx="68.93" cy="31.75" r="10.04" fill="#fff" stroke="#0f1f2d" stroke-linecap="round" stroke-miterlimit="10" stroke-width="3"/><polygon points="50.8 75.73 35.14 75.73 24.01 84.14 24.01 113.05 61.84 113.05 61.84 84.47 50.8 75.73" fill="#fff" stroke="#0f1f2d" stroke-linecap="round" stroke-miterlimit="10" stroke-width="3"/><circle cx="42.59" cy="58.61" r="10.04" fill="#fff" stroke="#0f1f2d" stroke-linecap="round" stroke-miterlimit="10" stroke-width="3"/><polygon points="103.48 75.73 87.82 75.73 76.69 84.14 76.69 113.05 114.53 113.05 114.53 84.47 103.48 75.73" fill="#fff" stroke="#0f1f2d" stroke-linecap="round" stroke-miterlimit="10" stroke-width="3"/><circle cx="95.27" cy="58.61" r="10.04" fill="#fff" stroke="#0f1f2d" stroke-linecap="round" stroke-miterlimit="10" stroke-width="3"/><polygon points="77.14 85.86 61.48 85.86 50.35 94.27 50.35 123.17 88.18 123.17 88.18 94.59 77.14 85.86" fill="#fff" stroke="#0f1f2d" stroke-linecap="round" stroke-miterlimit="10" stroke-width="3"/><circle cx="68.93" cy="68.74" r="10.04" fill="#fff" stroke="#0f1f2d" stroke-linecap="round" stroke-miterlimit="10" stroke-width="3"/></svg>