<svg xmlns="http://www.w3.org/2000/svg" viewBox="0 0 54.8 91.32"><path d="M38.69,37.21H16.21L0,49.48V91.32H54.8V50ZM51.8,88.32H3V51L17.22,40.21H37.64L51.8,51.4Z" fill="#0f1f2d"/><polygon points="51.8 51.39 51.8 88.32 2.97 88.32 2.97 50.97 17.22 40.21 37.64 40.21 51.8 51.39" fill="#fff"/><path d="M26.92,0A15.26,15.26,0,1,0,42.18,15.26h0A15.27,15.27,0,0,0,26.92,0Zm0,27.51A12.26,12.26,0,1,1,39.18,15.25,12.26,12.26,0,0,1,26.92,27.51Z" fill="#0f1f2d"/><path d="M39.18,15.25A12.26,12.26,0,1,1,26.91,3h0A12.28,12.28,0,0,1,39.18,15.25Z" fill="#fff"/></svg>