<svg id="Layer_1" data-name="Layer 1" xmlns="http://www.w3.org/2000/svg" viewBox="0 0 144 144"><polygon points="80.7 36.92 65.04 36.92 53.91 45.33 53.91 74.24 91.74 74.24 91.74 45.66 80.7 36.92" fill="#fff" stroke="#0f1f2d" stroke-linecap="round" stroke-miterlimit="10" stroke-width="3"/><circle cx="73.15" cy="19.8" r="10.04" fill="#fff" stroke="#0f1f2d" stroke-linecap="round" stroke-miterlimit="10" stroke-width="3"/><polygon points="118.99 71.64 103.33 71.64 92.2 80.05 92.2 108.95 130.04 108.95 130.04 80.37 118.99 71.64" fill="#fff" stroke="#0f1f2d" stroke-linecap="round" stroke-miterlimit="10" stroke-width="3"/><circle cx="110.78" cy="54.52" r="10.04" fill="#fff" stroke="#0f1f2d" stroke-linecap="round" stroke-miterlimit="10" stroke-width="3"/><polygon points="42.01 72.31 26.35 72.31 15.22 80.73 15.22 109.63 53.05 109.63 53.05 81.05 42.01 72.31" fill="#fff" stroke="#0f1f2d" stroke-linecap="round" stroke-miterlimit="10" stroke-width="3"/><circle cx="33.8" cy="55.2" r="10.04" fill="#fff" stroke="#0f1f2d" stroke-linecap="round" stroke-miterlimit="10" stroke-width="3"/><polygon points="80.6 72.31 64.94 72.31 53.81 80.73 53.81 109.63 91.64 109.63 91.64 81.05 80.6 72.31" fill="#fff" stroke="#0f1f2d" stroke-linecap="round" stroke-miterlimit="10" stroke-width="3"/><circle cx="72.39" cy="55.2" r="10.04" fill="#fff" stroke="#0f1f2d" stroke-linecap="round" stroke-miterlimit="10" stroke-width="3"/><polygon points="60.86 95.21 45.2 95.21 34.07 103.63 34.07 132.53 71.91 132.53 71.91 103.95 60.86 95.21" fill="#fff" stroke="#0f1f2d" stroke-linecap="round" stroke-miterlimit="10" stroke-width="3"/><circle cx="52.66" cy="78.09" r="10.04" fill="#fff" stroke="#0f1f2d" stroke-linecap="round" stroke-miterlimit="10" stroke-width="3"/><polygon points="99.61 95.21 83.95 95.21 72.82 103.63 72.82 132.53 110.66 132.53 110.66 103.95 99.61 95.21" fill="#fff" stroke="#0f1f2d" stroke-linecap="round" stroke-miterlimit="10" stroke-width="3"/><circle cx="91.41" cy="78.09" r="10.04" fill="#fff" stroke="#0f1f2d" stroke-linecap="round" stroke-miterlimit="10" stroke-width="3"/></svg>