<svg  data-name="Layer 1" xmlns="http://www.w3.org/2000/svg" viewBox="0 0 144 144"><title>featured guide</title><rect x="25.52" y="25.9" width="79.07" height="96.2" fill="#fff" stroke="#111f2d" stroke-linecap="round" stroke-miterlimit="10" stroke-width="3"/><polygon points="97.05 115.81 33.06 115.81 33.06 32.16 97.05 32.16 97.05 51.26 97.05 115.81" fill="#fff" stroke="#111f2d" stroke-linecap="round" stroke-miterlimit="10" stroke-width="3"/><path d="M71.94,21.93a7.22,7.22,0,0,0-6.8-6.14,7.22,7.22,0,0,0-6.8,6.14H50.05v10h30v-10Z" fill="#fff" stroke="#111f2d" stroke-linecap="round" stroke-miterlimit="10" stroke-width="3"/><circle cx="65.05" cy="22.43" r="2" fill="#0f1f2d" stroke="#111f2d" stroke-miterlimit="10"/><line x1="56.05" y1="46.85" x2="89.05" y2="46.85" fill="none" stroke="#111f2d" stroke-linecap="round" stroke-miterlimit="10" stroke-width="3"/><rect x="41.81" y="43.28" width="7.13" height="7.13" fill="none" stroke="#111f2d" stroke-linecap="round" stroke-miterlimit="10" stroke-width="3"/><line x1="56.05" y1="65.18" x2="89.05" y2="65.18" fill="none" stroke="#111f2d" stroke-linecap="round" stroke-miterlimit="10" stroke-width="3"/><rect x="41.81" y="61.62" width="7.13" height="7.13" fill="none" stroke="#111f2d" stroke-linecap="round" stroke-miterlimit="10" stroke-width="3"/><line x1="56.05" y1="83.51" x2="89.05" y2="83.51" fill="none" stroke="#111f2d" stroke-linecap="round" stroke-miterlimit="10" stroke-width="3"/><rect x="41.81" y="79.95" width="7.13" height="7.13" fill="none" stroke="#111f2d" stroke-linecap="round" stroke-miterlimit="10" stroke-width="3"/><line x1="56.05" y1="101.85" x2="89.05" y2="101.85" fill="none" stroke="#111f2d" stroke-linecap="round" stroke-miterlimit="10" stroke-width="3"/><rect x="41.81" y="98.28" width="7.13" height="7.13" fill="none" stroke="#111f2d" stroke-linecap="round" stroke-miterlimit="10" stroke-width="3"/><circle cx="101.36" cy="111.09" r="17.12" fill="#fff" stroke="#111f2d" stroke-linecap="round" stroke-miterlimit="10" stroke-width="3"/><polygon points="101.36 101.92 103.63 108.92 111 108.92 105.04 113.25 107.32 120.26 101.36 115.93 95.4 120.26 97.67 113.25 91.72 108.92 99.08 108.92 101.36 101.92" fill="#111f2d"/></svg>
